<?xml version="1.0" encoding="utf-8"?>
<!-- Generator: Adobe Illustrator 27.5.0, SVG Export Plug-In . SVG Version: 6.00 Build 0)  -->
<svg version="1.1" xmlns="http://www.w3.org/2000/svg" xmlns:xlink="http://www.w3.org/1999/xlink" x="0px" y="0px"
	 viewBox="0 0 500 500" style="enable-background:new 0 0 500 500;" xml:space="preserve">
<g id="Background_Simple">
	<g>
		<path style="fill:#92E3A9;" d="M398.697,422.787c15.409-10.937,28.423-25.114,38.245-43.517
			c57.157-107.093,44.244-265.02-65.836-332.734c-50.874-31.294-124.12-51.109-179.099-18.962
			c-44.596,26.076-71.94,75.163-94.553,119.824c-14.223,28.091-25.934,58.32-43.451,84.598
			c-22.723,34.086-47.736,79.604-22.48,119.2c34.406,53.943,99.396,78.574,158.331,94.788
			c63.941,17.592,135.833,20.089,194.897-14.224C389.532,428.983,394.187,425.988,398.697,422.787z"/>
		<path style="opacity:0.7;fill:#FFFFFF;" d="M398.697,422.787c15.409-10.937,28.423-25.114,38.245-43.517
			c57.157-107.093,44.244-265.02-65.836-332.734c-50.874-31.294-124.12-51.109-179.099-18.962
			c-44.596,26.076-71.94,75.163-94.553,119.824c-14.223,28.091-25.934,58.32-43.451,84.598
			c-22.723,34.086-47.736,79.604-22.48,119.2c34.406,53.943,99.396,78.574,158.331,94.788
			c63.941,17.592,135.833,20.089,194.897-14.224C389.532,428.983,394.187,425.988,398.697,422.787z"/>
	</g>
	<path style="fill:none;stroke:#263238;stroke-linecap:round;stroke-linejoin:round;stroke-miterlimit:10;" d="M313.114,244.006
		c0,0,3.751,0.75,6.002-2.813"/>
</g>
<g id="Picture">
	<g style="opacity:0.3;">
		<rect x="384" y="79" style="fill:none;stroke:#000000;stroke-miterlimit:10;" width="83" height="109"/>
		<rect x="399.229" y="99" style="fill:none;stroke:#000000;stroke-miterlimit:10;" width="52.541" height="69"/>
	</g>
</g>
<g id="Floor">
	<g>
		
			<line style="fill:none;stroke:#263238;stroke-linecap:round;stroke-linejoin:round;stroke-miterlimit:10;" x1="466" y1="469" x2="482" y2="469"/>
		
			<line style="fill:none;stroke:#263238;stroke-linecap:round;stroke-linejoin:round;stroke-miterlimit:10;" x1="36" y1="469" x2="456" y2="469"/>
	</g>
</g>
<g id="Window">
	<g style="opacity:0.3;">
		<g>
			<rect x="41.543" y="44.469" style="fill:none;stroke:#000000;stroke-miterlimit:10;" width="94.914" height="267.062"/>
			<polyline style="fill:none;stroke:#000000;stroke-miterlimit:10;" points="42.05,52.588 136.268,52.588 134.054,45.247 			"/>
			<polyline style="fill:none;stroke:#000000;stroke-miterlimit:10;" points="42.05,61.48 136.268,61.48 134.054,54.138 			"/>
			<polyline style="fill:none;stroke:#000000;stroke-miterlimit:10;" points="42.05,70.371 136.268,70.371 134.054,63.029 			"/>
			<polyline style="fill:none;stroke:#000000;stroke-miterlimit:10;" points="42.05,79.262 136.268,79.262 134.054,71.921 			"/>
			<polyline style="fill:none;stroke:#000000;stroke-miterlimit:10;" points="42.05,88.154 136.268,88.154 134.054,80.812 			"/>
			<polyline style="fill:none;stroke:#000000;stroke-miterlimit:10;" points="42.05,97.045 136.268,97.045 134.054,89.703 			"/>
			<polyline style="fill:none;stroke:#000000;stroke-miterlimit:10;" points="42.05,105.936 136.268,105.936 134.054,98.595 			"/>
			<polyline style="fill:none;stroke:#000000;stroke-miterlimit:10;" points="42.05,114.828 136.268,114.828 134.054,107.486 			"/>
			<polyline style="fill:none;stroke:#000000;stroke-miterlimit:10;" points="42.05,123.719 136.268,123.719 134.054,116.377 			"/>
			<polyline style="fill:none;stroke:#000000;stroke-miterlimit:10;" points="42.05,132.61 136.268,132.61 134.054,125.269 			"/>
			<polyline style="fill:none;stroke:#000000;stroke-miterlimit:10;" points="42.05,141.502 136.268,141.502 134.054,134.16 			"/>
			<polyline style="fill:none;stroke:#000000;stroke-miterlimit:10;" points="42.05,150.393 136.268,150.393 134.054,143.051 			"/>
			<polyline style="fill:none;stroke:#000000;stroke-miterlimit:10;" points="42.05,159.284 136.268,159.284 134.054,151.943 			"/>
			<polyline style="fill:none;stroke:#000000;stroke-miterlimit:10;" points="42.05,168.176 136.268,168.176 134.054,160.834 			"/>
			<polyline style="fill:none;stroke:#000000;stroke-miterlimit:10;" points="42.05,177.067 136.268,177.067 134.054,169.725 			"/>
			<polyline style="fill:none;stroke:#000000;stroke-miterlimit:10;" points="42.05,185.958 136.268,185.958 134.054,178.617 			"/>
			<polyline style="fill:none;stroke:#000000;stroke-miterlimit:10;" points="42.05,194.85 136.268,194.85 134.054,187.508 			"/>
			<polyline style="fill:none;stroke:#000000;stroke-miterlimit:10;" points="42.05,203.741 136.268,203.741 134.054,196.399 			"/>
			<polyline style="fill:none;stroke:#000000;stroke-miterlimit:10;" points="42.05,212.632 136.268,212.632 134.054,205.291 			"/>
			<polyline style="fill:none;stroke:#000000;stroke-miterlimit:10;" points="42.05,221.524 136.268,221.524 134.054,214.182 			"/>
			<polyline style="fill:none;stroke:#000000;stroke-miterlimit:10;" points="42.05,230.415 136.268,230.415 134.054,223.073 			"/>
			<polyline style="fill:none;stroke:#000000;stroke-miterlimit:10;" points="42.05,239.306 136.268,239.306 134.054,231.964 			"/>
			<polyline style="fill:none;stroke:#000000;stroke-miterlimit:10;" points="42.05,248.198 136.268,248.198 134.054,240.856 			"/>
			<polyline style="fill:none;stroke:#000000;stroke-miterlimit:10;" points="42.05,257.089 136.268,257.089 134.054,249.747 			"/>
			<polyline style="fill:none;stroke:#000000;stroke-miterlimit:10;" points="42.05,265.98 136.268,265.98 134.054,258.639 			"/>
			<polyline style="fill:none;stroke:#000000;stroke-miterlimit:10;" points="42.05,274.872 136.268,274.872 134.054,267.53 			"/>
			<polyline style="fill:none;stroke:#000000;stroke-miterlimit:10;" points="42.05,283.763 136.268,283.763 134.054,276.421 			"/>
			<polyline style="fill:none;stroke:#000000;stroke-miterlimit:10;" points="42.05,292.654 136.268,292.654 134.054,285.313 			"/>
			<polyline style="fill:none;stroke:#000000;stroke-miterlimit:10;" points="42.05,301.546 136.268,301.546 134.054,294.204 			"/>
		</g>
		<g>
			<rect x="143.609" y="44.469" style="fill:none;stroke:#000000;stroke-miterlimit:10;" width="94.914" height="267.062"/>
			<polyline style="fill:none;stroke:#000000;stroke-miterlimit:10;" points="144.116,52.588 238.334,52.588 236.12,45.247 			"/>
			<polyline style="fill:none;stroke:#000000;stroke-miterlimit:10;" points="144.116,61.48 238.334,61.48 236.12,54.138 			"/>
			<polyline style="fill:none;stroke:#000000;stroke-miterlimit:10;" points="144.116,70.371 238.334,70.371 236.12,63.029 			"/>
			<polyline style="fill:none;stroke:#000000;stroke-miterlimit:10;" points="144.116,79.262 238.334,79.262 236.12,71.921 			"/>
			<polyline style="fill:none;stroke:#000000;stroke-miterlimit:10;" points="144.116,88.154 238.334,88.154 236.12,80.812 			"/>
			<polyline style="fill:none;stroke:#000000;stroke-miterlimit:10;" points="144.116,97.045 238.334,97.045 236.12,89.703 			"/>
			<polyline style="fill:none;stroke:#000000;stroke-miterlimit:10;" points="144.116,105.936 238.334,105.936 236.12,98.595 			"/>
			<polyline style="fill:none;stroke:#000000;stroke-miterlimit:10;" points="144.116,114.828 238.334,114.828 236.12,107.486 			
				"/>
			<polyline style="fill:none;stroke:#000000;stroke-miterlimit:10;" points="144.116,123.719 238.334,123.719 236.12,116.377 			
				"/>
			<polyline style="fill:none;stroke:#000000;stroke-miterlimit:10;" points="144.116,132.61 238.334,132.61 236.12,125.269 			"/>
			<polyline style="fill:none;stroke:#000000;stroke-miterlimit:10;" points="144.116,141.502 238.334,141.502 236.12,134.16 			"/>
			<polyline style="fill:none;stroke:#000000;stroke-miterlimit:10;" points="144.116,150.393 238.334,150.393 236.12,143.051 			
				"/>
			<polyline style="fill:none;stroke:#000000;stroke-miterlimit:10;" points="144.116,159.284 238.334,159.284 236.12,151.943 			
				"/>
			<polyline style="fill:none;stroke:#000000;stroke-miterlimit:10;" points="144.116,168.176 238.334,168.176 236.12,160.834 			
				"/>
			<polyline style="fill:none;stroke:#000000;stroke-miterlimit:10;" points="144.116,177.067 238.334,177.067 236.12,169.725 			
				"/>
			<polyline style="fill:none;stroke:#000000;stroke-miterlimit:10;" points="144.116,185.958 238.334,185.958 236.12,178.617 			
				"/>
			<polyline style="fill:none;stroke:#000000;stroke-miterlimit:10;" points="144.116,194.85 238.334,194.85 236.12,187.508 			"/>
			<polyline style="fill:none;stroke:#000000;stroke-miterlimit:10;" points="144.116,203.741 238.334,203.741 236.12,196.399 			
				"/>
			<polyline style="fill:none;stroke:#000000;stroke-miterlimit:10;" points="144.116,212.632 238.334,212.632 236.12,205.291 			
				"/>
			<polyline style="fill:none;stroke:#000000;stroke-miterlimit:10;" points="144.116,221.524 238.334,221.524 236.12,214.182 			
				"/>
			<polyline style="fill:none;stroke:#000000;stroke-miterlimit:10;" points="144.116,230.415 238.334,230.415 236.12,223.073 			
				"/>
			<polyline style="fill:none;stroke:#000000;stroke-miterlimit:10;" points="144.116,239.306 238.334,239.306 236.12,231.964 			
				"/>
			<polyline style="fill:none;stroke:#000000;stroke-miterlimit:10;" points="144.116,248.198 238.334,248.198 236.12,240.856 			
				"/>
			<polyline style="fill:none;stroke:#000000;stroke-miterlimit:10;" points="144.116,257.089 238.334,257.089 236.12,249.747 			
				"/>
			<polyline style="fill:none;stroke:#000000;stroke-miterlimit:10;" points="144.116,265.98 238.334,265.98 236.12,258.639 			"/>
			<polyline style="fill:none;stroke:#000000;stroke-miterlimit:10;" points="144.116,274.872 238.334,274.872 236.12,267.53 			"/>
			<polyline style="fill:none;stroke:#000000;stroke-miterlimit:10;" points="144.116,283.763 238.334,283.763 236.12,276.421 			
				"/>
			<polyline style="fill:none;stroke:#000000;stroke-miterlimit:10;" points="144.116,292.654 238.334,292.654 236.12,285.313 			
				"/>
			<polyline style="fill:none;stroke:#000000;stroke-miterlimit:10;" points="144.116,301.546 238.334,301.546 236.12,294.204 			
				"/>
		</g>
	</g>
</g>
<g id="Screen">
	<g>
		
			<rect x="117.478" y="25.924" style="fill:#FFFFFF;stroke:#263238;stroke-linecap:round;stroke-linejoin:round;stroke-miterlimit:10;" width="252.22" height="224.512"/>
		
			<rect x="117.478" y="25.924" style="fill:#92E3A9;stroke:#263238;stroke-linecap:round;stroke-linejoin:round;stroke-miterlimit:10;" width="252.22" height="35.076"/>
		
			<rect x="360.201" y="25.924" style="fill:#DBDBDB;stroke:#263238;stroke-linecap:round;stroke-linejoin:round;stroke-miterlimit:10;" width="9.497" height="224.512"/>
		
			<rect x="360.201" y="59.667" style="fill:#949494;stroke:#263238;stroke-linecap:round;stroke-linejoin:round;stroke-miterlimit:10;" width="9.497" height="43.333"/>
		<g>
			
				<rect x="117.478" y="25.924" style="fill:#DBDBDB;stroke:#263238;stroke-linecap:round;stroke-linejoin:round;stroke-miterlimit:10;" width="252.22" height="17.052"/>
			
				<rect x="130.266" y="30.897" style="fill:#FFFFFF;stroke:#263238;stroke-linecap:round;stroke-linejoin:round;stroke-miterlimit:10;" width="99.467" height="7.105"/>
			<g>
				
					<line style="fill:none;stroke:#263238;stroke-linecap:round;stroke-linejoin:round;stroke-miterlimit:10;" x1="354.807" y1="31.227" x2="363.536" y2="31.227"/>
				
					<line style="fill:none;stroke:#263238;stroke-linecap:round;stroke-linejoin:round;stroke-miterlimit:10;" x1="354.807" y1="34.92" x2="363.536" y2="34.92"/>
				
					<line style="fill:none;stroke:#263238;stroke-linecap:round;stroke-linejoin:round;stroke-miterlimit:10;" x1="354.807" y1="38.613" x2="363.536" y2="38.613"/>
			</g>
		</g>
		
			<rect x="159.535" y="87" style="fill:#DBDBDB;stroke:#A8A8A8;stroke-linecap:round;stroke-linejoin:round;stroke-miterlimit:10;" width="160" height="6"/>
		
			<rect x="159.535" y="87" style="fill:#92E3A9;stroke:#263238;stroke-linecap:round;stroke-linejoin:round;stroke-miterlimit:10;" width="79.333" height="6"/>
		
			<circle style="fill:#92E3A9;stroke:#263238;stroke-linecap:round;stroke-linejoin:round;stroke-miterlimit:10;" cx="150.868" cy="91" r="14.667"/>
		
			<circle style="fill:#FFFFFF;stroke:#263238;stroke-linecap:round;stroke-linejoin:round;stroke-miterlimit:10;" cx="150.868" cy="91" r="12.465"/>
		
			<circle style="fill:#92E3A9;stroke:#263238;stroke-linecap:round;stroke-linejoin:round;stroke-miterlimit:10;" cx="239.535" cy="91" r="14.667"/>
		
			<circle style="fill:#FFFFFF;stroke:#263238;stroke-linecap:round;stroke-linejoin:round;stroke-miterlimit:10;" cx="239.535" cy="91" r="12.465"/>
		
			<circle style="fill:#DBDBDB;stroke:#A8A8A8;stroke-linecap:round;stroke-linejoin:round;stroke-miterlimit:10;" cx="328.201" cy="91" r="14.667"/>
		
			<circle style="fill:#FFFFFF;stroke:#A8A8A8;stroke-linecap:round;stroke-linejoin:round;stroke-miterlimit:10;" cx="328.201" cy="91" r="12.506"/>
		<g>
			<path style="fill:#263238;" d="M148.325,86.508c1.536,0,1.879-0.741,2.186-1.59h1.337v12.646h-1.987v-9.647h-1.536V86.508z"/>
		</g>
		<g>
			<path style="fill:#263238;" d="M238.897,86.58c-0.632,0-1.03,0.343-1.03,1.247v1.355h-1.879v-1.229
				c0-2.023,1.012-3.18,2.963-3.18c1.951,0,2.963,1.156,2.963,3.18c0,3.975-3.957,5.456-3.957,7.534c0,0.09,0,0.181,0.018,0.271
				h3.758v1.807h-5.745v-1.554c0-3.722,3.939-4.336,3.939-7.985C239.927,86.887,239.53,86.58,238.897,86.58z"/>
		</g>
		<g>
			<path style="fill:#263238;" d="M329.056,88.025c0-1.138-0.397-1.445-1.029-1.445c-0.633,0-1.03,0.343-1.03,1.247v0.813h-1.879
				v-0.687c0-2.023,1.012-3.18,2.963-3.18c1.951,0,2.963,1.156,2.963,3.18v0.325c0,1.355-0.434,2.204-1.391,2.602
				c0.993,0.434,1.391,1.373,1.391,2.656v0.994c0,2.023-1.012,3.18-2.963,3.18c-1.951,0-2.963-1.156-2.963-3.18v-1.048h1.879v1.174
				c0,0.903,0.398,1.246,1.03,1.246c0.632,0,1.029-0.307,1.029-1.427v-0.994c0-1.174-0.397-1.608-1.301-1.608h-0.668v-1.807h0.776
				c0.741,0,1.192-0.325,1.192-1.337V88.025z"/>
		</g>
		
			<rect x="139.464" y="140.641" style="fill:#FFFFFF;stroke:#263238;stroke-linecap:round;stroke-linejoin:round;stroke-miterlimit:10;" width="74.489" height="11.523"/>
		
			<rect x="230.414" y="140.641" style="fill:#FFFFFF;stroke:#263238;stroke-linecap:round;stroke-linejoin:round;stroke-miterlimit:10;" width="74.489" height="11.523"/>
		
			<rect x="139.464" y="163.276" style="fill:#FFFFFF;stroke:#263238;stroke-linecap:round;stroke-linejoin:round;stroke-miterlimit:10;" width="125.52" height="11.523"/>
		
			<rect x="139.464" y="185.087" style="fill:#FFFFFF;stroke:#263238;stroke-linecap:round;stroke-linejoin:round;stroke-miterlimit:10;" width="125.52" height="11.523"/>
		<g>
			<path style="fill:#263238;" d="M142.542,120.215c1.283,0,1.943,0.768,1.943,2.111v0.264h-1.248v-0.348
				c0-0.6-0.24-0.828-0.66-0.828c-0.419,0-0.659,0.228-0.659,0.828c0,1.727,2.578,2.051,2.578,4.45c0,1.343-0.671,2.11-1.967,2.11
				c-1.295,0-1.967-0.768-1.967-2.11v-0.516h1.247v0.6c0,0.6,0.264,0.816,0.684,0.816c0.42,0,0.684-0.216,0.684-0.816
				c0-1.727-2.579-2.051-2.579-4.449C140.599,120.983,141.259,120.215,142.542,120.215z"/>
			<path style="fill:#263238;" d="M144.87,120.311h4.078v1.199h-1.379v7.196h-1.319v-7.196h-1.379V120.311z"/>
			<path style="fill:#263238;" d="M150.846,123.849h1.811v1.199h-1.811v2.459h2.279v1.199h-3.598v-8.396h3.598v1.199h-2.279V123.849
				z"/>
			<path style="fill:#263238;" d="M157.852,122.386v1.091c0,1.343-0.648,2.075-1.967,2.075h-0.624v3.154h-1.319v-8.396h1.943
				C157.204,120.311,157.852,121.043,157.852,122.386z M155.262,121.51v2.843h0.624c0.419,0,0.647-0.192,0.647-0.791v-1.259
				c0-0.6-0.228-0.792-0.647-0.792H155.262z"/>
			<path style="fill:#263238;" d="M162.869,122.374c0-0.755-0.264-0.959-0.684-0.959c-0.42,0-0.684,0.228-0.684,0.828v0.539h-1.248
				v-0.455c0-1.343,0.672-2.111,1.967-2.111c1.295,0,1.967,0.768,1.967,2.111v0.216c0,0.899-0.288,1.463-0.924,1.727
				c0.66,0.288,0.924,0.912,0.924,1.763v0.66c0,1.343-0.672,2.11-1.967,2.11c-1.295,0-1.967-0.768-1.967-2.11v-0.696h1.248v0.779
				c0,0.6,0.264,0.828,0.684,0.828c0.419,0,0.684-0.204,0.684-0.947v-0.66c0-0.78-0.264-1.067-0.864-1.067h-0.444v-1.199h0.516
				c0.492,0,0.792-0.216,0.792-0.888V122.374z"/>
		</g>
		<g>
			<line style="fill:none;stroke:#263238;stroke-miterlimit:10;" x1="226.535" y1="125" x2="236.535" y2="125"/>
			<line style="fill:none;stroke:#263238;stroke-miterlimit:10;" x1="189.535" y1="125" x2="222.035" y2="125"/>
			<line style="fill:none;stroke:#263238;stroke-miterlimit:10;" x1="175.035" y1="125" x2="185.035" y2="125"/>
		</g>
		
			<line style="fill:none;stroke:#263238;stroke-linecap:round;stroke-linejoin:round;stroke-miterlimit:10;" x1="138.868" y1="217.667" x2="329.535" y2="217.667"/>
	</g>
</g>
<g id="Character">
	<g>
		<g>
			<path style="fill:#263238;stroke:#263238;stroke-linecap:round;stroke-linejoin:round;stroke-miterlimit:10;" d="
				M243.409,356.434l10.137,87.858l10.889-0.751l2.628-67.208l6.758-0.751l42.427,2.628c0,0,5.257-1.126,6.758-1.126
				c1.502,0,3.379-4.13-5.632-7.885c-9.011-3.755-71.338-15.769-72.84-15.769C243.033,353.43,243.409,356.434,243.409,356.434z"/>
			<path style="fill:#263238;stroke:#263238;stroke-linecap:round;stroke-linejoin:round;stroke-miterlimit:10;" d="
				M302.357,344.043c0,0-38.991-12.909-76.97-4.506c-3.111,0.688-9.762,79.974-9.762,79.974l10.137,3.004l15.77-62.702
				c0,0,66.081,19.149,79.598,17.271C334.647,375.207,302.357,344.043,302.357,344.043z"/>
			<g>
				<path style="fill:#9C9C9C;stroke:#263238;stroke-linecap:round;stroke-linejoin:round;stroke-miterlimit:10;" d="
					M313.245,211.505c0,0-3.004,7.885-3.004,11.639c0,3.755,1.747,7.357,1.747,7.357s-5.891,6.387-4.803,8.808
					c0.677,1.508,3.678,2.07,3.678,2.07s2.624,13.879,4.876,14.63c2.253,0.751,11.639-1.126,11.639-1.126l-1.603,19.001
					l18.632-15.821l-1.502-12.015c0,0,4.506-6.383,9.762-13.892c5.257-7.509,2.253-19.524-0.751-25.156
					c-3.004-5.632-25.907-17.271-41.301,1.877L313.245,211.505z"/>
				<path style="fill:#263238;" d="M374.023,217.828c-0.482-1.687,4.819-2.169,2.891-6.264c-1.927-4.096-7.71-3.855-7.469-6.747
					c0.241-2.891,2.168-2.65-1.205-5.783c-3.373-3.132-6.024-1.446-6.987-4.578c-0.964-3.132-1.687-6.265-1.687-6.265
					s0,0-2.168-1.686c-1.427-1.11-2.745-0.03-3.483,0.839c-1.974,0.641-3.841,3.249-5.708,3.016
					c-2.758-0.345-3.447-7.584-8.963-7.239c-5.515,0.345-3.447,9.307-5.515,8.618c-2.068-0.69-6.205-3.447-11.72-2.068
					c-5.516,1.379,0,6.55-2.068,6.205c-2.068-0.345-14.133-2.758-15.168,0.345c-1.034,3.102,6.55,7.239,6.55,7.239
					s-9.307-2.758-6.55,2.413c2.758,5.171,8.473,5.633,8.473,5.633s-3.695,1.366-2.194,3.054c1.299,1.462,5.547,1.798,6.664,1.862
					l0.192,0.211c-0.357,0.9-1.548,4.652,2.897,5.804c1.2,0.311,2.173,0.514,2.968,0.647l0.666,0.733
					c-0.397,1.023-0.83,2.089-1.051,3.084c-0.689,3.103,4.826,4.826,6.894,4.826s3.792,6.894,2.068,8.963
					c-0.393,0.471-0.525,1.033-0.478,1.617c-0.326,0.353-0.589,0.637-0.736,0.821c-0.964,1.205-1.928,5.301-0.723,6.024
					c1.205,0.723,6.024,0,6.024,0s0.723,5.783,2.891,6.264c2.169,0.482,3.855-1.687,4.578-3.373c0.723-1.687,2.65,2.41,5.542,1.928
					c2.891-0.482,4.096-2.65,5.06-4.337s1.928,1.446,6.505,0.482c4.578-0.964,2.65-7.71,2.65-7.71s4.337,2.409,6.746,0.482
					c2.409-1.928,3.132-6.264,3.373-9.156c0.241-2.891,4.096,0.723,4.096-4.578S374.505,219.515,374.023,217.828z"/>
				<polygon style="fill:#263238;stroke:#263238;stroke-linecap:round;stroke-linejoin:round;stroke-miterlimit:10;" points="
					327.379,254.883 332.612,253.519 326.993,263.512 				"/>
				<path style="fill:#263238;" d="M316.56,230.554c0,1.277-0.453,2.312-1.012,2.312c-0.559,0-1.012-1.035-1.012-2.312
					s0.453-2.312,1.012-2.312C316.107,228.241,316.56,229.277,316.56,230.554z"/>
				<path style="fill:none;stroke:#263238;stroke-linecap:round;stroke-linejoin:round;stroke-miterlimit:10;" d="M314.247,224.773
					c0,0,2.023-0.867,4.336,1.156"/>
			</g>
			<path style="fill:#263238;stroke:#263238;stroke-linecap:round;stroke-linejoin:round;stroke-miterlimit:10;" d="
				M314.109,307.064l-40.41,3.264l-12.99-1.203c0,0-17.885,6.073-14.398,7.248c3.487,1.175,7.548-0.084,7.548-0.084
				s5.308,2.218,10.563,2.101c5.255-0.118,8.707-1.168,8.707-1.168l45.068,6.78L314.109,307.064z"/>
			<path style="fill:#FFFFFF;stroke:#263238;stroke-linecap:round;stroke-linejoin:round;stroke-miterlimit:10;" d="M343.658,255.81
				c0,0-23.279,22.528-27.033,28.16c-3.755,5.632-5.256,10.513-5.256,15.394c0,4.881,3.379,15.77,3.379,15.77l-4.506,16.145
				L297.1,343.293l20.651,33.041c0,0,9.387,1.877,15.77-1.877c6.383-3.755,10.513-19.9,10.513-27.784
				c0-7.885-1.502-24.78-1.502-24.78s8.636-27.033,11.264-37.171c2.628-10.138,3.004-19.149,0.376-24.03
				C351.542,255.81,347.412,253.181,343.658,255.81z"/>
			<g>
				<path style="fill:#92E3A9;stroke:#263238;stroke-linecap:round;stroke-linejoin:round;stroke-miterlimit:10;" d="
					M316.624,283.969c-0.793,1.19-1.48,2.344-2.079,3.474c9.877,1.367,23.382,3.475,36.694,6.307
					c0.522-1.764,1.008-3.435,1.44-4.957c-12.562-2.685-25.288-4.728-35.089-6.123C317.195,283.167,316.867,283.605,316.624,283.969
					z"/>
				<path style="fill:#92E3A9;stroke:#263238;stroke-linecap:round;stroke-linejoin:round;stroke-miterlimit:10;" d="
					M354.108,283.455c0.419-1.726,0.77-3.413,1.05-5.05l-27.186-6.995c-1.419,1.453-2.806,2.891-4.107,4.264L354.108,283.455z"/>
				<path style="fill:#92E3A9;stroke:#263238;stroke-linecap:round;stroke-linejoin:round;stroke-miterlimit:10;" d="
					M343.176,319.863c0.393-1.238,0.944-2.98,1.595-5.051c-9.863-0.722-20.69-1.536-30.794-2.305c0.447,1.583,0.77,2.626,0.77,2.626
					l-0.711,2.548C323.595,318.409,333.777,319.174,343.176,319.863z"/>
				<path style="fill:#92E3A9;stroke:#263238;stroke-linecap:round;stroke-linejoin:round;stroke-miterlimit:10;" d="
					M355.802,273.426c0.16-1.915,0.199-3.721,0.109-5.385l-18.553-6.058c-1.269,1.255-2.659,2.636-4.102,4.081L355.802,273.426z"/>
				<path style="fill:#92E3A9;stroke:#263238;stroke-linecap:round;stroke-linejoin:round;stroke-miterlimit:10;" d="
					M331.573,375.401c-8.288-6.608-18.87-15.054-28.735-22.929l8.222,13.156c4.867,3.884,9.629,7.684,13.941,11.123
					C327.115,376.627,329.431,376.253,331.573,375.401z"/>
				<path style="fill:#92E3A9;stroke:#263238;stroke-linecap:round;stroke-linejoin:round;stroke-miterlimit:10;" d="
					M342.827,325.403c-10.645-0.177-21.565-0.463-30.69-0.921l-1.421,5.09c9.598,0.51,21.236,0.818,32.511,1.003
					C343.085,328.624,342.944,326.84,342.827,325.403z"/>
				<path style="fill:#92E3A9;stroke:#263238;stroke-linecap:round;stroke-linejoin:round;stroke-miterlimit:10;" d="
					M311.897,294.472c-0.359,1.649-0.529,3.27-0.529,4.892c0,0.08,0.003,0.166,0.005,0.25c10.597,0.314,23.897,1.455,37.226,2.885
					c0.517-1.687,1.032-3.381,1.533-5.041C336.559,295.99,322.906,294.809,311.897,294.472z"/>
				<path style="fill:#92E3A9;stroke:#263238;stroke-linecap:round;stroke-linejoin:round;stroke-miterlimit:10;" d="
					M311.056,345.967c-3.91-1.81-7.68-3.543-11.23-5.167l-2.726,2.492l1.687,2.699c3.218,1.473,6.603,3.031,10.104,4.651
					c9.338,4.323,21.385,8.604,32.07,12.077c0.562-1.621,1.055-3.295,1.472-4.957C331.885,354.333,320.062,350.136,311.056,345.967z
					"/>
				<path style="fill:#92E3A9;stroke:#263238;stroke-linecap:round;stroke-linejoin:round;stroke-miterlimit:10;" d="
					M344.033,346.672c0-1.184-0.034-2.574-0.092-4.077c-12.678-2.031-25.496-5.237-36.753-8.525l-4.435,4.055
					c12.372,3.714,26.909,7.45,41.251,9.694C344.021,347.421,344.033,347.035,344.033,346.672z"/>
			</g>
			<path style="fill:#9C9C9C;stroke:#263238;stroke-linecap:round;stroke-linejoin:round;stroke-miterlimit:10;" d="
				M253.546,444.292l-12.766,14.268c0,0-9.762,3.004-11.264,4.506c-1.502,1.502,1.502,2.253,5.257,3.755
				c3.755,1.502,17.647-0.751,22.152-1.126c4.505-0.376,8.636,0,10.138-3.755c1.502-3.755,0-7.885-0.375-9.387
				c-0.376-1.502-2.253-9.011-2.253-9.011L253.546,444.292z"/>
			<path style="fill:#92E3A9;stroke:#263238;stroke-linecap:round;stroke-linejoin:round;stroke-miterlimit:10;" d="M240.143,458.76
				c-2.168,0.688-9.354,3.033-10.627,4.305c-1.502,1.502,1.502,2.253,5.257,3.755c3.755,1.502,17.647-0.751,22.152-1.126
				s8.636,0,10.138-3.755c1.502-3.755,0-7.885-0.375-9.387c-0.043-0.17-0.106-0.425-0.182-0.729
				c-6.555,4.111-17.706,8.613-20.093,8.613C244.793,460.437,242.197,459.565,240.143,458.76z"/>
			<g>
				<path style="fill:#9C9C9C;stroke:#263238;stroke-linecap:round;stroke-linejoin:round;stroke-miterlimit:10;" d="
					M215.625,419.512c0,0-14.643,16.145-16.52,18.398c-1.877,2.253-7.509,3.004-7.134,5.632c0.375,2.628,6.383,1.877,9.011,1.502
					c2.628-0.376,19.148-4.506,21.401-5.257c2.253-0.751,5.257-1.877,5.632-5.257c0.376-3.379-2.253-12.015-2.253-12.015
					L215.625,419.512z"/>
				<path style="fill:#92E3A9;stroke:#263238;stroke-linecap:round;stroke-linejoin:round;stroke-miterlimit:10;" d="
					M228.015,434.53c0.234-2.109-0.701-6.264-1.438-9.091c-3.686,1.802-7.247,6.675-9.075,7.589
					c-2.253,1.126-19.524,6.758-19.524,6.758l-0.787-0.443c-2.364,1.298-5.504,2.213-5.22,4.198
					c0.375,2.628,6.383,1.877,9.011,1.502c2.628-0.376,19.149-4.506,21.401-5.257C224.636,439.036,227.64,437.909,228.015,434.53z"
					/>
			</g>
			<g>
				<path style="fill:#9C9C9C;stroke:#263238;stroke-linecap:round;stroke-linejoin:round;stroke-miterlimit:10;" d="
					M351.759,259.54c-3.258-1.81-9.775,1.448-11.948,5.069l-2.896,10.861l-10.5,35.119l-52.717-0.262c0,0-14.922-3.288-17.093-3.239
					c-2.172,0.049-13.239,7.177-13.214,8.263c0.024,1.086,2.92,1.021,2.92,1.021l5.059-0.475l5.405-1.207
					c0,0,4.738,1.342,6.91,1.294c2.172-0.049,5.413-0.846,5.413-0.846s56.955,12.829,60.575,12.829s7.603-1.086,9.051-3.62
					c1.448-2.535,16.655-40.188,17.379-48.515C356.828,267.505,355.018,261.35,351.759,259.54z"/>
				<path style="fill:none;stroke:#263238;stroke-linecap:round;stroke-linejoin:round;stroke-miterlimit:10;" d="M246.647,315.766
					c0,0,8.402-4.481,9.336-4.668"/>
				<path style="fill:none;stroke:#263238;stroke-linecap:round;stroke-linejoin:round;stroke-miterlimit:10;" d="M254.675,308.671
					c0,0-9.522,5.415-10.083,7.469"/>
			</g>
		</g>
		<g>
			<path style="fill:#6E6E6E;stroke:#263238;stroke-linecap:round;stroke-linejoin:round;stroke-miterlimit:10;" d="M368.02,265.021
				l-6.044-0.336c0,0-15.447,44.661-17.461,61.451c-2.015,16.79-1.343,30.893-0.336,35.594c1.007,4.701,6.38,13.768,6.38,13.768
				l6.716,1.679c0,0-7.052-18.133-7.388-23.17c-0.336-5.037,0.531-25.023,1.007-27.535
				C354.588,306.995,368.02,265.021,368.02,265.021z"/>
			<g>
				<path style="fill:#6E6E6E;stroke:#263238;stroke-linecap:round;stroke-linejoin:round;stroke-miterlimit:10;" d="
					M313.956,436.276c0,0-33.244,16.79-33.915,20.484c-0.672,3.694,0,8.395,0,8.395l1.175-1.175l3.19-7.555l29.886-14.103
					L313.956,436.276z"/>
				<path style="fill:#263238;stroke:#263238;stroke-linecap:round;stroke-linejoin:round;stroke-miterlimit:10;" d="
					M286.085,463.812c0,2.04-1.654,3.694-3.694,3.694c-2.04,0-3.694-1.654-3.694-3.694c0-2.04,1.654-3.694,3.694-3.694
					C284.432,460.118,286.085,461.772,286.085,463.812z"/>
			</g>
			<g>
				<path style="fill:#6E6E6E;stroke:#263238;stroke-linecap:round;stroke-linejoin:round;stroke-miterlimit:10;" d="
					M323.695,436.276c0,0,33.244,16.79,33.915,20.484c0.672,3.694,0,8.395,0,8.395l-1.175-1.175l-3.19-7.555l-29.886-14.103
					L323.695,436.276z"/>
				<path style="fill:#263238;stroke:#263238;stroke-linecap:round;stroke-linejoin:round;stroke-miterlimit:10;" d="
					M351.566,463.812c0,2.04,1.654,3.694,3.694,3.694c2.04,0,3.694-1.654,3.694-3.694c0-2.04-1.654-3.694-3.694-3.694
					C353.219,460.118,351.566,461.772,351.566,463.812z"/>
			</g>
			
				<rect x="315.635" y="381.542" style="fill:#263238;stroke:#263238;stroke-linecap:round;stroke-linejoin:round;stroke-miterlimit:10;" width="5.373" height="58.429"/>
			
				<rect x="310.599" y="387.25" style="fill:#263238;stroke:#263238;stroke-linecap:round;stroke-linejoin:round;stroke-miterlimit:10;" width="15.782" height="10.745"/>
			<g>
				<path style="fill:#6E6E6E;stroke:#263238;stroke-linecap:round;stroke-linejoin:round;stroke-miterlimit:10;" d="
					M355.987,376.432c-11.627-1.218-49.091-4.469-82.673,0.032c-1.274,0.171-1.767,1.751-0.832,2.634
					c3.569,3.369,13.474,9.497,39.124,11.174c26.504,1.734,40.035-6.399,45.311-10.786
					C358.098,378.505,357.514,376.592,355.987,376.432z"/>
				<path style="fill:#263238;stroke:#263238;stroke-linecap:round;stroke-linejoin:round;stroke-miterlimit:10;" d="
					M272.451,379.067c0.021,0.02,0.043,0.041,0.065,0.061c0.277,0.259,0.651,0.398,1.03,0.398h83.317
					c0.019-0.016,0.038-0.031,0.057-0.047c1.174-0.978,0.579-2.889-0.941-3.048c-11.636-1.218-49.093-4.467-82.668,0.033
					C272.059,376.633,271.535,378.197,272.451,379.067z"/>
			</g>
			
				<rect x="312.278" y="430.904" style="fill:#263238;stroke:#263238;stroke-linecap:round;stroke-linejoin:round;stroke-miterlimit:10;" width="12.424" height="13.096"/>
			
				<rect x="317.147" y="437.452" style="fill:#6E6E6E;stroke:#263238;stroke-linecap:round;stroke-linejoin:round;stroke-miterlimit:10;" width="1.847" height="30.054"/>
			
				<rect x="316.43" y="459.668" style="fill:#263238;stroke:#263238;stroke-linecap:round;stroke-linejoin:round;stroke-miterlimit:10;" width="3.254" height="7.872"/>
			<polygon style="fill:#6E6E6E;stroke:#263238;stroke-linecap:round;stroke-linejoin:round;stroke-miterlimit:10;" points="
				331.082,379.527 323.695,379.527 318.993,334.53 324.03,334.53 			"/>
			<path style="fill:#263238;stroke:#263238;stroke-linecap:round;stroke-linejoin:round;stroke-miterlimit:10;" d="
				M343.842,337.553h-50.705c0,0,3.694-6.716,6.044-7.388c2.351-0.672,40.631,0,40.631,0S343.842,331.508,343.842,337.553z"/>
			<path style="fill:#6E6E6E;stroke:#263238;stroke-linecap:round;stroke-linejoin:round;stroke-miterlimit:10;" d="
				M293.137,337.553h50.705c0-0.611-0.05-1.161-0.124-1.679h-49.59C293.527,336.846,293.137,337.553,293.137,337.553z"/>
		</g>
	</g>
</g>
<g id="Table">
	<g>
		<g>
			<path style="fill:#FFFFFF;stroke:#263238;stroke-linecap:round;stroke-linejoin:round;stroke-miterlimit:10;" d="
				M135.951,328.492l5.723,14.733c2.03,4.179,2.822,11.284,2.282,15.898l-13.423,106.393c-0.155,1.225,0.8,2.307,2.034,2.307l0,0
				c0.986,0,1.833-0.702,2.015-1.671l25.634-136.24h-9.395l-1.65,7.836c-0.28,1.331-2.145,1.425-2.557,0.129l-3.175-9.978
				L135.951,328.492z"/>
			<g>
				<polygon style="fill:#263238;stroke:#263238;stroke-linecap:round;stroke-linejoin:round;stroke-miterlimit:10;" points="
					149.899,334.289 159.392,334.289 160.216,329.912 150.821,329.912 				"/>
				<polygon style="fill:#263238;stroke:#263238;stroke-linecap:round;stroke-linejoin:round;stroke-miterlimit:10;" points="
					143.439,327.898 135.951,328.492 138.203,334.289 145.473,334.289 				"/>
			</g>
		</g>
		<g>
			<path style="fill:#FFFFFF;stroke:#263238;stroke-linecap:round;stroke-linejoin:round;stroke-miterlimit:10;" d="
				M280.368,328.492l-5.723,14.733c-2.03,4.179-2.822,11.284-2.282,15.898l13.423,106.393c0.155,1.225-0.8,2.307-2.034,2.307l0,0
				c-0.986,0-1.833-0.702-2.015-1.671l-25.634-136.24h9.395l1.65,7.836c0.28,1.331,2.144,1.425,2.557,0.129l3.175-9.978
				L280.368,328.492z"/>
			<g>
				<polygon style="fill:#263238;stroke:#263238;stroke-linecap:round;stroke-linejoin:round;stroke-miterlimit:10;" points="
					265.498,329.912 256.103,329.912 256.926,334.289 266.419,334.289 				"/>
				<polygon style="fill:#263238;stroke:#263238;stroke-linecap:round;stroke-linejoin:round;stroke-miterlimit:10;" points="
					270.846,334.289 278.116,334.289 280.368,328.492 272.879,327.898 				"/>
			</g>
		</g>
		
			<rect x="125.911" y="321.132" style="fill:#FFFFFF;stroke:#263238;stroke-linecap:round;stroke-linejoin:round;stroke-miterlimit:10;" width="165.211" height="8.731"/>
	</g>
	<g>
		
			<rect x="236.652" y="318.671" style="fill:#FFFFFF;stroke:#263238;stroke-linecap:round;stroke-linejoin:round;stroke-miterlimit:10;" width="42.224" height="2.517"/>
		<g>
			<g>
				<path style="fill:#263238;stroke:#263238;stroke-linecap:round;stroke-linejoin:round;stroke-miterlimit:10;" d="
					M211.206,320.629h-18.414c-3.247,0-5.924-2.539-6.096-5.782c-0.035-0.685,0.043-1.364,0.233-2.021l11.543-33.185
					c0.244-0.702,1.014-1.073,1.709-0.828c0.702,0.244,1.072,1.009,0.828,1.709l-11.521,33.118
					c-0.085,0.302-0.129,0.683-0.109,1.066c0.096,1.814,1.595,3.236,3.412,3.236h18.414c0.742,0,1.343,0.601,1.343,1.343
					C212.549,320.028,211.948,320.629,211.206,320.629z"/>
			</g>
			<g>
				<path style="fill:#FFFFFF;stroke:#263238;stroke-linecap:round;stroke-linejoin:round;stroke-miterlimit:10;" d="
					M206.452,234.222l20.34,77.877l-2.226,1.669c0,0-25.598-20.033-25.598-36.728s4.452-42.293,4.452-42.293L206.452,234.222z"/>
				<polygon style="fill:#263238;stroke:#263238;stroke-linecap:round;stroke-linejoin:round;stroke-miterlimit:10;" points="
					206.452,234.222 203.42,234.748 224.566,313.768 226.792,312.099 				"/>
			</g>
		</g>
	</g>
	<g>
		<g>
			<g>
				<path style="fill:#92E3A9;stroke:#263238;stroke-linecap:round;stroke-linejoin:round;stroke-miterlimit:10;" d="
					M150.145,305.399c0,0-7.223-11.557-1.445-18.058c5.779-6.501,15.169-3.371,17.095,2.648c1.926,6.019-2.167,16.132-2.167,16.132
					L150.145,305.399z"/>
				<path style="fill:#92E3A9;stroke:#263238;stroke-linecap:round;stroke-linejoin:round;stroke-miterlimit:10;" d="
					M150.385,292.157c-1.204,0-5.779-1.685-7.223-3.852c-1.445-2.167-1.685-6.983,2.408-6.983s5.538,7.223,5.538,7.223l0.241,2.648"
					/>
				<path style="fill:#92E3A9;stroke:#263238;stroke-linecap:round;stroke-linejoin:round;stroke-miterlimit:10;" d="
					M154.089,287.659c-1.077-0.537-4.419-4.087-4.744-6.671c-0.326-2.584,1.608-7.001,5.271-5.174
					c3.663,1.827,1.732,8.935,1.732,8.935l-0.967,2.478"/>
				<path style="fill:#92E3A9;stroke:#263238;stroke-linecap:round;stroke-linejoin:round;stroke-miterlimit:10;" d="
					M158.459,288.872c-0.598-1.045-1.408-5.852-0.245-8.183c1.163-2.33,5.222-4.931,7.256-1.379
					c2.033,3.552-3.518,8.395-3.518,8.395l-2.179,1.525"/>
				<path style="fill:#92E3A9;stroke:#263238;stroke-linecap:round;stroke-linejoin:round;stroke-miterlimit:10;" d="M159.9,297.5
					c-0.2-1.187,0.704-5.978,2.602-7.762c1.898-1.784,6.607-2.819,7.285,1.217c0.678,4.037-6.205,6.659-6.205,6.659l-2.572,0.676"/>
			</g>
			
				<line style="fill:none;stroke:#FFFFFF;stroke-linecap:round;stroke-linejoin:round;stroke-miterlimit:10;" x1="143.691" y1="285.399" x2="144.504" y2="286.677"/>
			
				<line style="fill:none;stroke:#FFFFFF;stroke-linecap:round;stroke-linejoin:round;stroke-miterlimit:10;" x1="146.014" y1="288.536" x2="147.292" y2="289.582"/>
			
				<line style="fill:none;stroke:#FFFFFF;stroke-linecap:round;stroke-linejoin:round;stroke-miterlimit:10;" x1="144.62" y1="282.959" x2="145.898" y2="284.818"/>
			
				<line style="fill:none;stroke:#FFFFFF;stroke-linecap:round;stroke-linejoin:round;stroke-miterlimit:10;" x1="147.641" y1="286.328" x2="149.035" y2="288.884"/>
			
				<line style="fill:none;stroke:#FFFFFF;stroke-linecap:round;stroke-linejoin:round;stroke-miterlimit:10;" x1="150.894" y1="280.171" x2="151.359" y2="281.565"/>
			
				<line style="fill:none;stroke:#FFFFFF;stroke-linecap:round;stroke-linejoin:round;stroke-miterlimit:10;" x1="152.521" y1="284.121" x2="153.334" y2="285.283"/>
			
				<line style="fill:none;stroke:#FFFFFF;stroke-linecap:round;stroke-linejoin:round;stroke-miterlimit:10;" x1="152.172" y1="277.383" x2="153.218" y2="279.706"/>
			
				<line style="fill:none;stroke:#FFFFFF;stroke-linecap:round;stroke-linejoin:round;stroke-miterlimit:10;" x1="148.106" y1="293.764" x2="148.454" y2="295.855"/>
			
				<line style="fill:none;stroke:#FFFFFF;stroke-linecap:round;stroke-linejoin:round;stroke-miterlimit:10;" x1="149.151" y1="297.83" x2="149.616" y2="299.573"/>
			
				<line style="fill:none;stroke:#FFFFFF;stroke-linecap:round;stroke-linejoin:round;stroke-miterlimit:10;" x1="150.313" y1="293.88" x2="150.778" y2="296.204"/>
			
				<line style="fill:none;stroke:#FFFFFF;stroke-linecap:round;stroke-linejoin:round;stroke-miterlimit:10;" x1="151.824" y1="297.83" x2="152.172" y2="299.573"/>
			
				<line style="fill:none;stroke:#FFFFFF;stroke-linecap:round;stroke-linejoin:round;stroke-miterlimit:10;" x1="152.637" y1="290.86" x2="153.334" y2="294.113"/>
			
				<line style="fill:none;stroke:#FFFFFF;stroke-linecap:round;stroke-linejoin:round;stroke-miterlimit:10;" x1="154.263" y1="297.25" x2="154.38" y2="298.76"/>
			
				<line style="fill:none;stroke:#FFFFFF;stroke-linecap:round;stroke-linejoin:round;stroke-miterlimit:10;" x1="155.541" y1="289.814" x2="156.122" y2="292.835"/>
			
				<line style="fill:none;stroke:#FFFFFF;stroke-linecap:round;stroke-linejoin:round;stroke-miterlimit:10;" x1="156.122" y1="295.971" x2="156.355" y2="299.108"/>
			
				<line style="fill:none;stroke:#FFFFFF;stroke-linecap:round;stroke-linejoin:round;stroke-miterlimit:10;" x1="158.911" y1="290.976" x2="158.911" y2="293.532"/>
			
				<line style="fill:none;stroke:#FFFFFF;stroke-linecap:round;stroke-linejoin:round;stroke-miterlimit:10;" x1="158.562" y1="296.785" x2="158.678" y2="298.76"/>
			
				<line style="fill:none;stroke:#FFFFFF;stroke-linecap:round;stroke-linejoin:round;stroke-miterlimit:10;" x1="161.815" y1="278.893" x2="161.234" y2="280.287"/>
			
				<line style="fill:none;stroke:#FFFFFF;stroke-linecap:round;stroke-linejoin:round;stroke-miterlimit:10;" x1="161.002" y1="281.914" x2="160.421" y2="283.889"/>
			
				<line style="fill:none;stroke:#FFFFFF;stroke-linecap:round;stroke-linejoin:round;stroke-miterlimit:10;" x1="164.371" y1="281.565" x2="163.442" y2="283.424"/>
			
				<line style="fill:none;stroke:#FFFFFF;stroke-linecap:round;stroke-linejoin:round;stroke-miterlimit:10;" x1="161.466" y1="285.515" x2="160.421" y2="286.677"/>
			
				<line style="fill:none;stroke:#FFFFFF;stroke-linecap:round;stroke-linejoin:round;stroke-miterlimit:10;" x1="159.259" y1="281.449" x2="158.911" y2="282.959"/>
			
				<line style="fill:none;stroke:#FFFFFF;stroke-linecap:round;stroke-linejoin:round;stroke-miterlimit:10;" x1="164.371" y1="289.814" x2="163.093" y2="291.905"/>
			
				<line style="fill:none;stroke:#FFFFFF;stroke-linecap:round;stroke-linejoin:round;stroke-miterlimit:10;" x1="162.28" y1="293.183" x2="161.583" y2="295.042"/>
			
				<line style="fill:none;stroke:#FFFFFF;stroke-linecap:round;stroke-linejoin:round;stroke-miterlimit:10;" x1="163.325" y1="295.971" x2="165.417" y2="294.81"/>
			
				<line style="fill:none;stroke:#FFFFFF;stroke-linecap:round;stroke-linejoin:round;stroke-miterlimit:10;" x1="166.695" y1="289.814" x2="165.649" y2="291.557"/>
			
				<line style="fill:none;stroke:#FFFFFF;stroke-linecap:round;stroke-linejoin:round;stroke-miterlimit:10;" x1="167.74" y1="291.789" x2="166.346" y2="292.835"/>
		</g>
		
			<rect x="146.487" y="301.369" style="fill:#263238;stroke:#263238;stroke-linecap:round;stroke-linejoin:round;stroke-miterlimit:10;" width="19.752" height="19.752"/>
	</g>
</g>
<g id="Plant">
	<g>
		<g>
			
				<line style="fill:none;stroke:#263238;stroke-width:2;stroke-miterlimit:10;" x1="391.725" y1="323.736" x2="403.183" y2="433.525"/>
			<g>
				<g>
					
						<line style="fill:none;stroke:#263238;stroke-width:2;stroke-miterlimit:10;" x1="401.337" y1="412.514" x2="396.142" y2="407.028"/>
					<path style="fill:#92E3A9;stroke:#263238;stroke-miterlimit:10;" d="M397.72,408.671c0,0,0.149-2.427-2.067-4.406
						c-1.333-1.191-8.35-4.143-9.016-1.671C385.913,405.282,393.095,410.561,397.72,408.671z"/>
					
						<line style="fill:none;stroke:#263238;stroke-width:0.5;stroke-miterlimit:10;" x1="397.72" y1="408.671" x2="391.04" y2="404.509"/>
				</g>
				<g>
					
						<line style="fill:none;stroke:#263238;stroke-width:2;stroke-miterlimit:10;" x1="402.64" y1="425" x2="397.445" y2="419.514"/>
					<path style="fill:#92E3A9;stroke:#263238;stroke-miterlimit:10;" d="M399.023,421.157c0,0,0.149-2.427-2.067-4.406
						c-1.333-1.191-8.35-4.143-9.016-1.671C387.216,417.768,394.398,423.047,399.023,421.157z"/>
					
						<line style="fill:none;stroke:#263238;stroke-width:0.5;stroke-miterlimit:10;" x1="399.023" y1="421.157" x2="392.343" y2="416.995"/>
				</g>
				<g>
					
						<line style="fill:none;stroke:#263238;stroke-width:2;stroke-miterlimit:10;" x1="398.157" y1="382.046" x2="392.963" y2="376.559"/>
					<path style="fill:#92E3A9;stroke:#263238;stroke-miterlimit:10;" d="M394.541,378.203c0,0,0.149-2.427-2.067-4.406
						c-1.333-1.191-8.35-4.143-9.016-1.671C382.733,374.814,389.915,380.092,394.541,378.203z"/>
					
						<line style="fill:none;stroke:#263238;stroke-width:0.5;stroke-miterlimit:10;" x1="394.541" y1="378.203" x2="387.861" y2="374.04"/>
				</g>
				<g>
					
						<line style="fill:none;stroke:#263238;stroke-width:2;stroke-miterlimit:10;" x1="399.46" y1="394.531" x2="394.266" y2="389.045"/>
					<path style="fill:#92E3A9;stroke:#263238;stroke-miterlimit:10;" d="M395.844,390.689c0,0,0.149-2.427-2.067-4.406
						c-1.333-1.191-8.35-4.143-9.016-1.671C384.036,387.3,391.218,392.578,395.844,390.689z"/>
					
						<line style="fill:none;stroke:#263238;stroke-width:0.5;stroke-miterlimit:10;" x1="395.844" y1="390.689" x2="389.164" y2="386.526"/>
				</g>
				<g>
					
						<line style="fill:none;stroke:#263238;stroke-width:2;stroke-miterlimit:10;" x1="396.04" y1="361.763" x2="390.846" y2="356.276"/>
					<path style="fill:#92E3A9;stroke:#263238;stroke-miterlimit:10;" d="M392.424,357.92c0,0,0.149-2.427-2.067-4.406
						c-1.333-1.191-8.35-4.143-9.016-1.671C380.616,354.531,387.798,359.81,392.424,357.92z"/>
					
						<line style="fill:none;stroke:#263238;stroke-width:0.5;stroke-miterlimit:10;" x1="392.424" y1="357.92" x2="385.744" y2="353.758"/>
				</g>
				<g>
					
						<line style="fill:none;stroke:#263238;stroke-width:2;stroke-miterlimit:10;" x1="393.914" y1="341.391" x2="388.72" y2="335.905"/>
					<path style="fill:#92E3A9;stroke:#263238;stroke-miterlimit:10;" d="M390.298,337.549c0,0,0.149-2.427-2.067-4.406
						c-1.333-1.191-8.35-4.143-9.016-1.671C378.491,334.16,385.673,339.438,390.298,337.549z"/>
					
						<line style="fill:none;stroke:#263238;stroke-width:0.5;stroke-miterlimit:10;" x1="390.298" y1="337.549" x2="383.618" y2="333.386"/>
				</g>
				<g>
					
						<line style="fill:none;stroke:#263238;stroke-width:2;stroke-miterlimit:10;" x1="400.464" y1="405.126" x2="404.413" y2="398.686"/>
					<path style="fill:#92E3A9;stroke:#263238;stroke-miterlimit:10;" d="M403.208,400.62c0,0-0.646-2.344,1.113-4.738
						c1.059-1.44,7.315-5.777,8.477-3.497C414.061,394.866,408.124,401.513,403.208,400.62z"/>
					
						<line style="fill:none;stroke:#263238;stroke-width:0.5;stroke-miterlimit:10;" x1="403.208" y1="400.62" x2="409.223" y2="394.871"/>
				</g>
				<g>
					
						<line style="fill:none;stroke:#263238;stroke-width:2;stroke-miterlimit:10;" x1="397.034" y1="372.269" x2="400.984" y2="365.828"/>
					<path style="fill:#92E3A9;stroke:#263238;stroke-miterlimit:10;" d="M399.779,367.763c0,0-0.646-2.344,1.113-4.738
						c1.059-1.441,7.315-5.777,8.477-3.497C410.632,362.008,404.695,368.656,399.779,367.763z"/>
					
						<line style="fill:none;stroke:#263238;stroke-width:0.5;stroke-miterlimit:10;" x1="399.779" y1="367.763" x2="405.794" y2="362.013"/>
				</g>
				<g>
					
						<line style="fill:none;stroke:#263238;stroke-width:2;stroke-miterlimit:10;" x1="395.528" y1="357.829" x2="399.477" y2="351.389"/>
					<path style="fill:#92E3A9;stroke:#263238;stroke-miterlimit:10;" d="M398.272,353.323c0,0-0.646-2.344,1.113-4.738
						c1.059-1.44,7.315-5.777,8.477-3.497C409.126,347.569,403.188,354.217,398.272,353.323z"/>
					
						<line style="fill:none;stroke:#263238;stroke-width:0.5;stroke-miterlimit:10;" x1="398.272" y1="353.323" x2="404.287" y2="347.574"/>
				</g>
				<g>
					
						<line style="fill:none;stroke:#263238;stroke-width:2;stroke-miterlimit:10;" x1="393.318" y1="336.661" x2="397.268" y2="330.22"/>
					<path style="fill:#92E3A9;stroke:#263238;stroke-miterlimit:10;" d="M396.063,332.155c0,0-0.646-2.344,1.113-4.738
						c1.059-1.44,7.315-5.777,8.477-3.497C406.916,326.4,400.979,333.048,396.063,332.155z"/>
					
						<line style="fill:none;stroke:#263238;stroke-width:0.5;stroke-miterlimit:10;" x1="396.063" y1="332.155" x2="402.078" y2="326.405"/>
					<path style="fill:#92E3A9;stroke:#263238;stroke-miterlimit:10;" d="M391.629,323.127c0,0-0.646-2.344,1.113-4.738
						c1.059-1.44,7.315-5.777,8.477-3.497C402.482,317.372,396.545,324.02,391.629,323.127z"/>
					
						<line style="fill:none;stroke:#263238;stroke-width:0.5;stroke-miterlimit:10;" x1="391.629" y1="323.127" x2="397.644" y2="317.378"/>
					<path style="fill:#92E3A9;stroke:#263238;stroke-miterlimit:10;" d="M391.978,323.375c0,0-2.399,0.397-4.595-1.604
						c-1.321-1.204-4.978-7.88-2.589-8.796C387.393,311.978,393.382,318.58,391.978,323.375z"/>
					
						<line style="fill:none;stroke:#263238;stroke-width:0.5;stroke-miterlimit:10;" x1="391.978" y1="323.375" x2="386.891" y2="316.79"/>
				</g>
			</g>
		</g>
		<g>
			
				<line style="fill:none;stroke:#263238;stroke-width:2;stroke-miterlimit:10;" x1="421.946" y1="338.856" x2="410.552" y2="448.651"/>
			<g>
				<g>
					
						<line style="fill:none;stroke:#263238;stroke-width:2;stroke-miterlimit:10;" x1="413.071" y1="427.71" x2="409.118" y2="421.272"/>
					<path style="fill:#92E3A9;stroke:#263238;stroke-miterlimit:10;" d="M410.324,423.206c0,0,0.645-2.344-1.116-4.737
						c-1.06-1.44-7.318-5.773-8.479-3.492C399.467,417.458,405.409,424.102,410.324,423.206z"/>
					
						<line style="fill:none;stroke:#263238;stroke-width:0.5;stroke-miterlimit:10;" x1="410.324" y1="423.206" x2="404.644" y2="417.757"/>
				</g>
				<g>
					
						<line style="fill:none;stroke:#263238;stroke-width:2;stroke-miterlimit:10;" x1="416.233" y1="397.24" x2="412.28" y2="390.802"/>
					<path style="fill:#92E3A9;stroke:#263238;stroke-miterlimit:10;" d="M413.486,392.735c0,0,0.645-2.344-1.116-4.737
						c-1.06-1.44-7.318-5.773-8.479-3.492C402.629,386.987,408.57,393.632,413.486,392.735z"/>
					
						<line style="fill:none;stroke:#263238;stroke-width:0.5;stroke-miterlimit:10;" x1="413.486" y1="392.735" x2="407.806" y2="387.286"/>
				</g>
				<g>
					
						<line style="fill:none;stroke:#263238;stroke-width:2;stroke-miterlimit:10;" x1="414.938" y1="409.727" x2="410.984" y2="403.289"/>
					<path style="fill:#92E3A9;stroke:#263238;stroke-miterlimit:10;" d="M412.19,405.222c0,0,0.645-2.344-1.116-4.737
						c-1.06-1.44-7.318-5.773-8.479-3.492C401.333,399.474,407.275,406.119,412.19,405.222z"/>
					
						<line style="fill:none;stroke:#263238;stroke-width:0.5;stroke-miterlimit:10;" x1="412.19" y1="405.222" x2="406.51" y2="399.773"/>
				</g>
				<g>
					
						<line style="fill:none;stroke:#263238;stroke-width:2;stroke-miterlimit:10;" x1="418.338" y1="376.956" x2="414.385" y2="370.518"/>
					<path style="fill:#92E3A9;stroke:#263238;stroke-miterlimit:10;" d="M415.591,372.451c0,0,0.645-2.344-1.116-4.737
						c-1.06-1.44-7.318-5.773-8.479-3.492C404.734,366.703,410.675,373.348,415.591,372.451z"/>
					
						<line style="fill:none;stroke:#263238;stroke-width:0.5;stroke-miterlimit:10;" x1="415.591" y1="372.451" x2="409.911" y2="367.002"/>
				</g>
				<g>
					
						<line style="fill:none;stroke:#263238;stroke-width:2;stroke-miterlimit:10;" x1="420.452" y1="356.583" x2="416.499" y2="350.145"/>
					<path style="fill:#92E3A9;stroke:#263238;stroke-miterlimit:10;" d="M417.705,352.079c0,0,0.645-2.344-1.116-4.737
						c-1.06-1.44-7.318-5.773-8.479-3.492C406.848,346.331,412.789,352.975,417.705,352.079z"/>
					
						<line style="fill:none;stroke:#263238;stroke-width:0.5;stroke-miterlimit:10;" x1="417.705" y1="352.079" x2="412.025" y2="346.63"/>
				</g>
				<g>
					
						<line style="fill:none;stroke:#263238;stroke-width:2;stroke-miterlimit:10;" x1="413.738" y1="420.301" x2="418.929" y2="414.812"/>
					<path style="fill:#92E3A9;stroke:#263238;stroke-miterlimit:10;" d="M417.352,416.457c0,0-0.15-2.427,2.065-4.407
						c1.332-1.191,8.347-4.147,9.015-1.677C429.158,413.06,421.979,418.343,417.352,416.457z"/>
					
						<line style="fill:none;stroke:#263238;stroke-width:0.5;stroke-miterlimit:10;" x1="417.352" y1="416.457" x2="424.422" y2="412.069"/>
				</g>
				<g>
					
						<line style="fill:none;stroke:#263238;stroke-width:2;stroke-miterlimit:10;" x1="417.148" y1="387.442" x2="422.339" y2="381.952"/>
					<path style="fill:#92E3A9;stroke:#263238;stroke-miterlimit:10;" d="M420.762,383.597c0,0-0.15-2.427,2.065-4.407
						c1.333-1.192,8.348-4.147,9.015-1.677C432.567,380.201,425.388,385.484,420.762,383.597z"/>
					
						<line style="fill:none;stroke:#263238;stroke-width:0.5;stroke-miterlimit:10;" x1="420.762" y1="383.597" x2="427.832" y2="379.21"/>
				</g>
				<g>
					
						<line style="fill:none;stroke:#263238;stroke-width:2;stroke-miterlimit:10;" x1="418.646" y1="373.001" x2="423.837" y2="367.512"/>
					<path style="fill:#92E3A9;stroke:#263238;stroke-miterlimit:10;" d="M422.26,369.157c0,0-0.15-2.427,2.065-4.407
						c1.332-1.191,8.347-4.148,9.015-1.677C434.066,365.76,426.887,371.043,422.26,369.157z"/>
					
						<line style="fill:none;stroke:#263238;stroke-width:0.5;stroke-miterlimit:10;" x1="422.26" y1="369.157" x2="429.33" y2="364.769"/>
				</g>
				<g>
					
						<line style="fill:none;stroke:#263238;stroke-width:2;stroke-miterlimit:10;" x1="420.843" y1="351.832" x2="426.034" y2="346.342"/>
					<path style="fill:#92E3A9;stroke:#263238;stroke-miterlimit:10;" d="M424.457,347.987c0,0-0.15-2.427,2.065-4.407
						c1.333-1.191,8.348-4.147,9.015-1.677C436.262,344.591,429.083,349.874,424.457,347.987z"/>
					
						<line style="fill:none;stroke:#263238;stroke-width:0.5;stroke-miterlimit:10;" x1="424.457" y1="347.987" x2="431.527" y2="343.599"/>
					<path style="fill:#92E3A9;stroke:#263238;stroke-miterlimit:10;" d="M421.977,338.24c0,0-0.15-2.427,2.065-4.407
						c1.332-1.191,8.348-4.147,9.015-1.677C433.782,334.843,426.603,340.126,421.977,338.24z"/>
					
						<line style="fill:none;stroke:#263238;stroke-width:0.5;stroke-miterlimit:10;" x1="421.977" y1="338.24" x2="429.047" y2="333.852"/>
					<path style="fill:#92E3A9;stroke:#263238;stroke-miterlimit:10;" d="M422.267,338.554c0,0-2.429-0.105-4.166-2.516
						c-1.045-1.45-3.249-8.736-0.722-9.141C420.127,326.457,424.628,334.151,422.267,338.554z"/>
					
						<line style="fill:none;stroke:#263238;stroke-width:0.5;stroke-miterlimit:10;" x1="422.267" y1="338.554" x2="418.645" y2="331.063"/>
				</g>
			</g>
		</g>
		<line style="fill:none;stroke:#263238;stroke-width:2;stroke-miterlimit:10;" x1="408.89" y1="294.147" x2="408.89" y2="432.99"/>
		<g>
			<g>
				
					<line style="fill:none;stroke:#263238;stroke-width:2;stroke-miterlimit:10;" x1="409" y1="412.114" x2="404.403" y2="406.118"/>
				<path style="fill:#92E3A9;stroke:#263238;stroke-miterlimit:10;" d="M405.802,407.917c0,0,0.4-2.398-1.599-4.597
					c-1.202-1.323-7.875-4.987-8.794-2.598C394.41,403.32,401.006,409.316,405.802,407.917z"/>
				
					<line style="fill:none;stroke:#263238;stroke-width:0.5;stroke-miterlimit:10;" x1="405.802" y1="407.917" x2="399.59" y2="403.083"/>
			</g>
			<g>
				
					<line style="fill:none;stroke:#263238;stroke-width:2;stroke-miterlimit:10;" x1="409" y1="386.022" x2="404.403" y2="380.026"/>
				<path style="fill:#92E3A9;stroke:#263238;stroke-miterlimit:10;" d="M405.802,381.824c0,0,0.4-2.398-1.599-4.597
					c-1.202-1.323-7.875-4.987-8.794-2.598C394.41,377.228,401.006,383.224,405.802,381.824z"/>
				
					<line style="fill:none;stroke:#263238;stroke-width:0.5;stroke-miterlimit:10;" x1="405.802" y1="381.824" x2="399.59" y2="376.991"/>
			</g>
			<g>
				
					<line style="fill:none;stroke:#263238;stroke-width:2;stroke-miterlimit:10;" x1="409" y1="355.388" x2="404.403" y2="349.392"/>
				<path style="fill:#92E3A9;stroke:#263238;stroke-miterlimit:10;" d="M405.802,351.191c0,0,0.4-2.398-1.599-4.597
					c-1.202-1.323-7.875-4.987-8.794-2.598C394.41,346.594,401.006,352.59,405.802,351.191z"/>
				
					<line style="fill:none;stroke:#263238;stroke-width:0.5;stroke-miterlimit:10;" x1="405.802" y1="351.191" x2="399.59" y2="346.357"/>
			</g>
			<g>
				
					<line style="fill:none;stroke:#263238;stroke-width:2;stroke-miterlimit:10;" x1="409" y1="334.995" x2="404.403" y2="328.999"/>
				<path style="fill:#92E3A9;stroke:#263238;stroke-miterlimit:10;" d="M405.802,330.798c0,0,0.4-2.398-1.599-4.597
					c-1.202-1.323-7.875-4.987-8.794-2.598C394.41,326.201,401.006,332.197,405.802,330.798z"/>
				
					<line style="fill:none;stroke:#263238;stroke-width:0.5;stroke-miterlimit:10;" x1="405.802" y1="330.798" x2="399.59" y2="325.964"/>
			</g>
			<g>
				
					<line style="fill:none;stroke:#263238;stroke-width:2;stroke-miterlimit:10;" x1="409" y1="314.513" x2="404.403" y2="308.517"/>
				<path style="fill:#92E3A9;stroke:#263238;stroke-miterlimit:10;" d="M405.802,310.316c0,0,0.4-2.398-1.599-4.597
					c-1.202-1.323-7.875-4.987-8.794-2.598C394.41,305.719,401.006,311.715,405.802,310.316z"/>
				
					<line style="fill:none;stroke:#263238;stroke-width:0.5;stroke-miterlimit:10;" x1="405.802" y1="310.316" x2="399.59" y2="305.482"/>
			</g>
			<g>
				
					<line style="fill:none;stroke:#263238;stroke-width:2;stroke-miterlimit:10;" x1="408.899" y1="420.081" x2="413.495" y2="414.086"/>
				<path style="fill:#92E3A9;stroke:#263238;stroke-miterlimit:10;" d="M412.096,415.884c0,0-0.4-2.398,1.599-4.597
					c1.202-1.323,7.875-4.987,8.794-2.598C423.488,411.288,416.893,417.283,412.096,415.884z"/>
				
					<line style="fill:none;stroke:#263238;stroke-width:0.5;stroke-miterlimit:10;" x1="412.096" y1="415.884" x2="418.676" y2="410.791"/>
			</g>
			<g>
				
					<line style="fill:none;stroke:#263238;stroke-width:2;stroke-miterlimit:10;" x1="408.899" y1="378.583" x2="413.495" y2="372.587"/>
				<path style="fill:#92E3A9;stroke:#263238;stroke-miterlimit:10;" d="M412.096,374.386c0,0-0.4-2.398,1.599-4.597
					c1.202-1.323,7.875-4.987,8.794-2.598C423.488,369.789,416.893,375.785,412.096,374.386z"/>
				
					<line style="fill:none;stroke:#263238;stroke-width:0.5;stroke-miterlimit:10;" x1="412.096" y1="374.386" x2="418.676" y2="369.292"/>
			</g>
			<g>
				
					<line style="fill:none;stroke:#263238;stroke-width:2;stroke-miterlimit:10;" x1="408.899" y1="358.101" x2="413.495" y2="352.105"/>
				<path style="fill:#92E3A9;stroke:#263238;stroke-miterlimit:10;" d="M412.096,353.904c0,0-0.4-2.398,1.599-4.597
					c1.202-1.323,7.875-4.987,8.794-2.598C423.488,349.307,416.893,355.303,412.096,353.904z"/>
				
					<line style="fill:none;stroke:#263238;stroke-width:0.5;stroke-miterlimit:10;" x1="412.096" y1="353.904" x2="418.676" y2="348.81"/>
			</g>
			<g>
				
					<line style="fill:none;stroke:#263238;stroke-width:2;stroke-miterlimit:10;" x1="408.899" y1="331.029" x2="413.495" y2="325.034"/>
				<path style="fill:#92E3A9;stroke:#263238;stroke-miterlimit:10;" d="M412.096,326.832c0,0-0.4-2.398,1.599-4.597
					c1.202-1.323,7.875-4.987,8.794-2.598C423.488,322.236,416.893,328.231,412.096,326.832z"/>
				
					<line style="fill:none;stroke:#263238;stroke-width:0.5;stroke-miterlimit:10;" x1="412.096" y1="326.832" x2="418.676" y2="321.739"/>
			</g>
			<g>
				
					<line style="fill:none;stroke:#263238;stroke-width:2;stroke-miterlimit:10;" x1="408.899" y1="309.746" x2="413.495" y2="303.75"/>
				<path style="fill:#92E3A9;stroke:#263238;stroke-miterlimit:10;" d="M412.096,305.549c0,0-0.4-2.398,1.599-4.597
					c1.202-1.323,7.875-4.987,8.794-2.598C423.488,300.952,416.893,306.948,412.096,305.549z"/>
				
					<line style="fill:none;stroke:#263238;stroke-width:0.5;stroke-miterlimit:10;" x1="412.096" y1="305.549" x2="418.676" y2="300.455"/>
				<path style="fill:#92E3A9;stroke:#263238;stroke-miterlimit:10;" d="M408.623,296.109c0,0-0.4-2.398,1.599-4.597
					c1.202-1.323,7.875-4.987,8.794-2.598C420.015,291.513,413.42,297.509,408.623,296.109z"/>
				
					<line style="fill:none;stroke:#263238;stroke-width:0.5;stroke-miterlimit:10;" x1="408.623" y1="296.109" x2="415.203" y2="291.016"/>
				<path style="fill:#92E3A9;stroke:#263238;stroke-miterlimit:10;" d="M408.944,296.392c0,0-2.427,0.146-4.404-2.072
					c-1.189-1.335-4.134-8.355-1.661-9.018C405.568,284.581,410.839,291.769,408.944,296.392z"/>
				
					<line style="fill:none;stroke:#263238;stroke-width:0.5;stroke-miterlimit:10;" x1="408.944" y1="296.392" x2="404.568" y2="289.315"/>
			</g>
		</g>
		<polygon style="fill:#263238;stroke:#263238;stroke-miterlimit:10;" points="414.602,469 399.897,469 398.059,431.865 
			416.439,431.865 		"/>
	</g>
</g>
</svg>
