<?xml version="1.0" encoding="utf-8"?>
<!-- Generator: Adobe Illustrator 27.5.0, SVG Export Plug-In . SVG Version: 6.00 Build 0)  -->
<svg version="1.1" xmlns="http://www.w3.org/2000/svg" xmlns:xlink="http://www.w3.org/1999/xlink" x="0px" y="0px"
	 viewBox="0 0 500 500" style="enable-background:new 0 0 500 500;" xml:space="preserve">
<g id="Floor">
	<ellipse id="Floor_1_" style="fill:#F5F5F5;" cx="250" cy="346.53" rx="230.122" ry="132.838"/>
</g>
<g id="Shadows">
	<ellipse id="Shadow_28_" style="fill:#E0E0E0;" cx="402.112" cy="373.458" rx="57.534" ry="33.217"/>
	<path id="Shadow_29_" style="fill:#E0E0E0;" d="M196.137,445.232L53.412,362.83c-2.342-1.352-2.342-3.544,0-4.897l206.336-119.128
		c2.342-1.352,6.139-1.352,8.481,0l142.688,82.381c2.342,1.352,2.342,3.545,0,4.897l-206.3,119.148
		C202.276,446.584,198.479,446.585,196.137,445.232z"/>
</g>
<g id="Plant">
	<g id="Plants_11_">
		<g id="XMLID_952_">
			<g id="XMLID_956_">
				<path id="XMLID_959_" style="fill:#27DEBF;" d="M431.15,354.41c-1.23-8.439,1.916-40.595,9.074-52.829
					c7.159-12.234,19.047-25.085,29.315-23.165c9.563,1.788,10.319,13.881,0.423,23.412c-9.897,9.53-25.058,21.901-27.921,36.298
					l-7.799,24.51L431.15,354.41z"/>
				<path id="XMLID_957_" style="opacity:0.1;" d="M431.15,354.41c-1.23-8.439,1.916-40.595,9.074-52.829
					c7.159-12.234,19.047-25.085,29.315-23.165c9.563,1.788,10.319,13.881,0.423,23.412c-9.897,9.53-25.058,21.901-27.921,36.298
					l-7.799,24.51L431.15,354.41z"/>
			</g>
			<g id="XMLID_953_">
				<path id="XMLID_955_" style="fill:#FFFFFF;" d="M433.439,351.762c0.264-0.07,0.459-0.308,0.463-0.593
					c0.442-29.663,19.408-57.136,32.349-64.788c0.296-0.175,0.394-0.558,0.219-0.853c-0.173-0.295-0.551-0.401-0.854-0.219
					c-13.187,7.797-32.512,35.729-32.96,65.842c-0.006,0.344,0.269,0.626,0.613,0.632
					C433.329,351.784,433.385,351.777,433.439,351.762z"/>
			</g>
		</g>
		<g id="XMLID_931_">
			<g id="XMLID_937_">
				<path id="XMLID_945_" style="fill:#27DEBF;" d="M438.078,367.244c0.664-4.941,4.12-13.469,11.941-21.908
					c9.577-10.335,25.485-16.018,27.698-22.026c2.658-7.218-3.408-12.145-13.742-8.86c-13.896,4.417-29.395,21.764-29.197,44.075
					L438.078,367.244z"/>
			</g>
			<g id="XMLID_932_">
				<path id="XMLID_933_" style="fill:#FFFFFF;" d="M435.291,362.567c0.231-0.053,0.421-0.236,0.472-0.485
					c5.234-25.967,26.197-39.953,34.753-42.357c0.331-0.093,0.524-0.437,0.432-0.768c-0.093-0.332-0.424-0.527-0.768-0.432
					c-9.461,2.658-30.295,16.806-35.638,43.311c-0.068,0.337,0.151,0.666,0.488,0.734
					C435.119,362.589,435.208,362.586,435.291,362.567z"/>
			</g>
		</g>
	</g>
</g>
<g id="Clouds">
	<g id="Clouds_4_">
		<g id="XMLID_541_">
			<path id="XMLID_542_" style="fill:#E6E6E6;" d="M146.314,74.424l-7.617,4.398c0.038-0.34,0.064-0.678,0.064-1.008v-2.207
				c0-3.927-2.757-5.519-6.158-3.555c-1.378,0.795-2.644,2.055-3.67,3.529c-0.557-4.938-4.431-6.777-9.137-4.061
				c-5.088,2.938-9.212,10.081-9.212,15.956v3.301c0,1.522,0.282,2.803,0.78,3.825l-6.327,3.653
				c-1.886,1.089-3.416,3.738-3.416,5.916c0,2.178,1.529,3.061,3.416,1.972l41.276-23.831c1.887-1.089,3.416-3.738,3.416-5.916
				C149.73,74.217,148.201,73.334,146.314,74.424z"/>
		</g>
		<g id="XMLID_539_">
			<path id="XMLID_540_" style="fill:#E6E6E6;" d="M50.136,84.25l4.202-3.236v-9.256c0-7.338,5.853-15.855,12.208-19.524l0,0
				c6.355-3.669,11.506-0.694,11.506,6.643v1.344c1.442-2.24,3.304-4.167,5.34-5.343l0,0c4.573-2.64,8.28-0.5,8.28,4.78v0.611
				l5.858-3.382c3.012-1.739,5.453-0.329,5.453,3.148c0,3.477-2.441,7.706-5.453,9.444L50.136,96.842
				c-3.011,1.738-5.453,0.329-5.453-3.148C44.683,90.217,47.124,85.988,50.136,84.25z"/>
		</g>
	</g>
</g>
<g id="Device">
	<g id="Laptop">
		<path id="XMLID_30734_" style="fill:#37474F;" d="M62.22,351.491c0,2.765,2.07,6.201,4.622,7.674l129.492,74.762
			c2.552,1.474,6.691,1.474,9.243,0l191.911-110.789c2.552-1.474,4.622-4.91,4.622-7.674c0-2.765-2.069-6.201-4.621-7.674
			l-129.492-74.762c-2.552-1.474-6.691-1.474-9.243,0L66.841,343.817C64.289,345.29,62.22,348.727,62.22,351.491z"/>
		<path id="XMLID_980_" style="fill:#263238;" d="M200.958,425.029v10.001c-1.676,0-3.351-0.363-4.621-1.099L66.84,359.166
			c-2.551-1.473-4.621-4.91-4.621-7.674c0-2.594,1.825-5.774,4.152-7.375c-2.071,1.484-1.91,3.661,0.47,5.038l129.497,74.765
			C197.606,424.656,199.282,425.029,200.958,425.029z"/>
		<path id="XMLID_30732_" style="fill:#455A64;" d="M57.884,343.982c-2.394-1.382-4.335-4.892-4.335-7.839l-0.001-154.53
			c0-2.947,2.069-6.531,4.621-8.005L250.081,62.819c2.552-1.474,6.563-1.548,8.957-0.165c2.395,1.382,4.336,4.892,4.336,7.84v154.53
			c0,2.947-2.069,6.531-4.621,8.005L66.841,343.817C64.289,345.29,60.279,345.365,57.884,343.982z"/>
		<path id="XMLID_979_" style="fill:#263238;" d="M66.295,344.096c-2.551,1.195-6.18,1.174-8.41-0.118
			c-2.391-1.377-4.333-4.888-4.333-7.834V181.609c0-1.473,0.512-3.106,1.355-4.547l8.667,4.995v0.01
			c-0.832,1.452-1.355,3.074-1.355,4.547V341.15C62.218,343.882,64.001,345.109,66.295,344.096z"/>
		<path id="XMLID_30730_" style="fill:#37474F;" d="M62.219,186.619v154.53c0,2.947,2.069,4.142,4.621,2.668l191.912-110.789
			c2.552-1.474,4.621-5.058,4.621-8.005V70.494c0-2.947-2.069-4.142-4.621-2.668L66.841,178.614
			C64.289,180.088,62.219,183.672,62.219,186.619z"/>
		<path id="XMLID_30712_" style="fill:#455A64;" d="M66.841,349.154l129.493,74.762c2.552,1.474,6.691,1.474,9.243,0
			l191.912-110.789c2.552-1.474,2.552-3.863,0-5.337l-129.492-74.762c-2.552-1.474-6.691-1.474-9.243,0L66.841,343.817
			C64.289,345.29,64.289,347.68,66.841,349.154z"/>
		<path id="XMLID_30711_" style="fill:#27DEBF;" d="M69.327,184.548L254.883,77.454c1.532-0.884,2.773-0.167,2.773,1.601v142.575
			c0,1.768-1.241,3.919-2.773,4.803L69.327,333.526c-1.531,0.884-2.773,0.167-2.773-1.601V189.351
			C66.554,187.583,67.795,185.432,69.327,184.548z"/>
		<path id="XMLID_529_" style="opacity:0.4;" d="M69.327,184.548L254.883,77.454c1.532-0.884,2.773-0.167,2.773,1.601v142.575
			c0,1.768-1.241,3.919-2.773,4.803L69.327,333.526c-1.531,0.884-2.773,0.167-2.773-1.601V189.351
			C66.554,187.583,67.795,185.432,69.327,184.548z"/>
		<path id="XMLID_30710_" style="fill:#37474F;" d="M81.872,345.152l179.193-103.445c1.276-0.737,3.345-0.737,4.622,0l8.412,4.856
			c1.276,0.737,1.276,1.931,0,2.668L94.881,352.661c-1.276,0.737-3.346,0.736-4.622,0l-8.387-4.841
			C80.596,347.083,80.595,345.889,81.872,345.152z"/>
		<path id="XMLID_30704_" style="fill:#263238;" d="M103.551,357.667l179.191-103.446c1.276-0.737,3.345-0.737,4.621,0l51.74,29.873
			c1.276,0.737,1.276,1.931,0,2.668L160.1,390.077c-1.276,0.737-3.347,0.74-4.626,0.007l-51.919-29.756
			C102.277,359.595,102.275,358.404,103.551,357.667z"/>
		<path id="XMLID_388_" style="fill:#455A64;" d="M261.02,298.206l5.642-3.257c0.24-0.139,0.244-0.361,0.009-0.497l-5.954-3.438
			c-0.235-0.136-0.62-0.133-0.859,0.005l-5.642,3.257c-0.24,0.138-0.243,0.36-0.008,0.496l5.954,3.438
			C260.396,298.346,260.78,298.344,261.02,298.206z M251.351,286.109l-5.642,3.257c-0.239,0.139-0.243,0.361-0.008,0.496
			l5.954,3.438c0.235,0.136,0.62,0.133,0.859-0.005l5.642-3.258c0.24-0.138,0.244-0.361,0.009-0.496l-5.955-3.438
			C251.975,285.968,251.59,285.971,251.351,286.109z M233.124,296.632l-9.548,5.512c-0.24,0.138-0.243,0.361-0.009,0.496
			l5.954,3.438c0.235,0.136,0.62,0.133,0.859-0.005l9.547-5.512c0.24-0.138,0.244-0.361,0.009-0.496l-5.954-3.438
			C233.748,296.492,233.363,296.494,233.124,296.632z M243.105,290.869l-5.642,3.258c-0.239,0.138-0.243,0.361-0.008,0.496
			l5.954,3.438c0.235,0.136,0.62,0.133,0.859-0.005l5.642-3.257c0.24-0.139,0.244-0.361,0.009-0.496l-5.955-3.437
			C243.73,290.728,243.345,290.731,243.105,290.869z M220.972,303.648l-5.642,3.257c-0.24,0.139-0.244,0.361-0.009,0.496
			l5.955,3.438c0.235,0.136,0.619,0.133,0.859-0.005l5.642-3.258c0.239-0.138,0.243-0.36,0.008-0.496l-5.954-3.438
			C221.596,303.507,221.212,303.51,220.972,303.648z M212.726,308.409l-5.642,3.257c-0.24,0.138-0.243,0.361-0.009,0.496
			l5.954,3.437c0.235,0.136,0.62,0.134,0.859-0.005l5.642-3.257c0.24-0.139,0.244-0.361,0.008-0.496l-5.954-3.437
			C213.351,308.268,212.966,308.27,212.726,308.409z M236.109,322.41l5.642-3.258c0.239-0.138,0.243-0.361,0.008-0.496l-5.954-3.438
			c-0.235-0.136-0.62-0.133-0.859,0.005l-5.642,3.257c-0.24,0.139-0.244,0.361-0.009,0.496l5.955,3.438
			C235.485,322.551,235.87,322.548,236.109,322.41z M227.864,327.17l5.642-3.257c0.24-0.139,0.243-0.36,0.008-0.496l-5.954-3.437
			c-0.235-0.136-0.62-0.134-0.859,0.005l-5.642,3.257c-0.24,0.138-0.243,0.361-0.009,0.496l5.954,3.438
			C227.24,327.311,227.624,327.309,227.864,327.17z M219.618,331.931l5.642-3.258c0.24-0.138,0.243-0.36,0.008-0.496l-5.954-3.438
			c-0.235-0.136-0.62-0.133-0.86,0.005l-5.642,3.257c-0.24,0.139-0.243,0.361-0.008,0.496l5.954,3.438
			C218.994,332.072,219.378,332.069,219.618,331.931z M211.372,336.692l5.642-3.257c0.24-0.138,0.243-0.361,0.008-0.496
			l-5.954-3.437c-0.235-0.135-0.62-0.134-0.859,0.005l-5.642,3.257c-0.24,0.138-0.244,0.361-0.009,0.496l5.954,3.437
			C210.748,336.832,211.133,336.83,211.372,336.692z M252.775,302.966l5.641-3.257c0.24-0.138,0.243-0.361,0.009-0.496l-5.954-3.438
			c-0.235-0.136-0.619-0.133-0.859,0.005l-5.642,3.257c-0.24,0.139-0.244,0.361-0.009,0.497l5.954,3.438
			C252.15,303.107,252.534,303.105,252.775,302.966z M244.355,317.649l12.585-7.266c0.24-0.139,0.243-0.361,0.008-0.496
			l-14.46-8.349c-0.235-0.136-0.62-0.133-0.859,0.005l-6.51,3.758c-0.24,0.139-0.244,0.361-0.009,0.496l7.656,4.42
			c0.235,0.135,0.231,0.358-0.009,0.496l-5.207,3.007c-0.24,0.138-0.244,0.361-0.009,0.496l5.954,3.438
			C243.73,317.79,244.116,317.787,244.355,317.649z M204.481,313.169l-5.642,3.258c-0.239,0.138-0.243,0.361-0.008,0.496
			l5.954,3.438c0.235,0.136,0.62,0.133,0.859-0.005l5.642-3.257c0.24-0.139,0.243-0.361,0.008-0.496l-5.954-3.438
			C205.105,313.029,204.721,313.031,204.481,313.169z M196.235,317.93l-5.642,3.257c-0.24,0.139-0.244,0.361-0.008,0.496
			l5.954,3.438c0.235,0.136,0.62,0.133,0.859-0.005l5.642-3.257c0.24-0.138,0.243-0.361,0.009-0.496l-5.955-3.438
			C196.859,317.789,196.475,317.792,196.235,317.93z M152.793,370.022c0.235,0.135,0.619,0.133,0.859-0.005l5.642-3.257
			c0.239-0.138,0.243-0.361,0.008-0.496l-5.954-3.437c-0.235-0.135-0.62-0.133-0.859,0.005l-5.642,3.257
			c-0.24,0.139-0.244,0.361-0.009,0.496L152.793,370.022z M130.27,356.015l-5.642,3.257c-0.24,0.138-0.244,0.361-0.008,0.496
			l5.954,3.437c0.235,0.136,0.62,0.134,0.859-0.005l5.642-3.257c0.24-0.138,0.243-0.361,0.008-0.496l-5.954-3.437
			C130.894,355.875,130.51,355.876,130.27,356.015z M142.117,366.363c0.235,0.136,0.62,0.133,0.859-0.005l5.642-3.258
			c0.24-0.138,0.243-0.361,0.008-0.496l-5.954-3.438c-0.235-0.136-0.62-0.133-0.859,0.005l-5.642,3.257
			c-0.24,0.139-0.244,0.36-0.009,0.496L142.117,366.363z M166.498,372.422l5.642-3.257c0.24-0.139,0.244-0.361,0.009-0.496
			l-5.954-3.438c-0.235-0.135-0.62-0.133-0.86,0.005l-5.642,3.257c-0.239,0.138-0.243,0.36-0.008,0.496l5.954,3.437
			C165.874,372.562,166.259,372.56,166.498,372.422z M157.394,377.187c0.235,0.136,0.62,0.133,0.859-0.005l5.642-3.258
			c0.24-0.138,0.243-0.36,0.009-0.496l-5.954-3.438c-0.235-0.136-0.619-0.133-0.859,0.005l-5.642,3.258
			c-0.239,0.138-0.244,0.36-0.009,0.496L157.394,377.187z M138.515,351.254l-5.642,3.257c-0.24,0.139-0.243,0.36-0.008,0.496
			l5.954,3.438c0.235,0.135,0.62,0.133,0.859-0.005l5.642-3.258c0.24-0.138,0.244-0.36,0.009-0.496l-5.954-3.438
			C139.14,351.114,138.755,351.116,138.515,351.254z M179.743,327.451l-5.642,3.257c-0.239,0.139-0.243,0.361-0.008,0.496
			l5.954,3.438c0.235,0.136,0.619,0.133,0.859-0.005l5.642-3.258c0.24-0.138,0.243-0.36,0.009-0.496l-5.954-3.438
			C180.368,327.31,179.983,327.313,179.743,327.451z M146.761,346.494l-5.642,3.257c-0.24,0.138-0.243,0.361-0.009,0.496
			l5.954,3.438c0.235,0.136,0.62,0.134,0.859-0.005l5.642-3.257c0.24-0.139,0.243-0.361,0.008-0.496l-5.954-3.438
			C147.385,346.353,147.001,346.355,146.761,346.494z M187.989,322.69l-5.642,3.258c-0.24,0.138-0.243,0.361-0.008,0.496
			l5.954,3.438c0.235,0.136,0.619,0.134,0.859-0.005l5.642-3.257c0.24-0.139,0.244-0.361,0.009-0.496l-5.954-3.438
			C188.614,322.55,188.229,322.552,187.989,322.69z M171.498,332.212l-5.642,3.257c-0.24,0.138-0.244,0.361-0.009,0.496l5.955,3.437
			c0.235,0.136,0.62,0.134,0.86-0.005l5.641-3.257c0.24-0.138,0.244-0.361,0.009-0.496l-5.955-3.437
			C172.123,332.071,171.738,332.073,171.498,332.212z M163.252,336.972l-5.642,3.257c-0.24,0.138-0.244,0.361-0.009,0.496
			l5.954,3.438c0.235,0.136,0.62,0.133,0.859-0.005l5.642-3.257c0.239-0.139,0.243-0.361,0.008-0.497l-5.954-3.438
			C163.877,336.832,163.492,336.834,163.252,336.972z M155.007,341.733l-5.642,3.257c-0.24,0.139-0.244,0.361-0.009,0.496
			l5.954,3.438c0.235,0.136,0.62,0.133,0.859-0.005l5.642-3.258c0.239-0.138,0.243-0.361,0.008-0.496l-5.954-3.437
			C155.631,341.592,155.247,341.595,155.007,341.733z M194.881,346.213l5.642-3.257c0.24-0.138,0.244-0.361,0.009-0.496
			l-5.954-3.438c-0.235-0.136-0.62-0.133-0.859,0.005l-5.642,3.257c-0.24,0.139-0.243,0.361-0.008,0.496l5.954,3.438
			C194.257,346.354,194.641,346.352,194.881,346.213z M269.578,275.585l-5.642,3.257c-0.24,0.138-0.243,0.36-0.009,0.496
			l5.955,3.438c0.235,0.136,0.62,0.133,0.859-0.005l5.642-3.257c0.24-0.139,0.243-0.36,0.009-0.496l-5.954-3.438
			C270.203,275.444,269.818,275.447,269.578,275.585z M259.596,281.348l-5.642,3.258c-0.24,0.138-0.243,0.36-0.009,0.496
			l5.954,3.438c0.235,0.136,0.62,0.133,0.859-0.005l5.642-3.257c0.24-0.139,0.243-0.361,0.009-0.496l-5.954-3.438
			C260.221,281.207,259.836,281.21,259.596,281.348z M277.823,270.825l-5.641,3.257c-0.24,0.138-0.244,0.361-0.009,0.497
			l5.955,3.437c0.234,0.136,0.62,0.134,0.859-0.005l5.642-3.257c0.24-0.139,0.244-0.361,0.009-0.496l-5.954-3.438
			C278.448,270.684,278.064,270.686,277.823,270.825z M233.679,313.991l5.642-3.257c0.24-0.139,0.243-0.361,0.008-0.496
			l-5.954-3.438c-0.235-0.136-0.62-0.133-0.859,0.005l-5.642,3.258c-0.24,0.138-0.243,0.36-0.009,0.496l5.954,3.438
			C233.055,314.132,233.439,314.129,233.679,313.991z M286.929,266.059c-0.234-0.135-0.62-0.133-0.859,0.005l-5.641,3.257
			c-0.24,0.139-0.244,0.36-0.009,0.496l5.954,3.438c0.234,0.136,0.619,0.133,0.859-0.005l5.642-3.258
			c0.24-0.138,0.244-0.36,0.009-0.496L286.929,266.059z M203.127,341.453l5.642-3.257c0.24-0.139,0.243-0.361,0.008-0.496
			l-5.954-3.438c-0.235-0.136-0.62-0.133-0.859,0.005l-5.642,3.258c-0.24,0.138-0.243,0.361-0.008,0.496l5.954,3.438
			C202.502,341.593,202.887,341.591,203.127,341.453z M304.245,283.072l5.642-3.257c0.24-0.138,0.243-0.361,0.009-0.496
			l-5.955-3.437c-0.235-0.136-0.619-0.134-0.859,0.005l-5.642,3.257c-0.239,0.138-0.244,0.361-0.009,0.496l5.954,3.437
			C303.62,283.212,304.005,283.21,304.245,283.072z M287.493,282.922l5.642-3.258c0.239-0.138,0.243-0.36,0.008-0.496l-5.954-3.438
			c-0.234-0.136-0.62-0.133-0.859,0.005l-5.642,3.257c-0.24,0.139-0.244,0.361-0.009,0.496l5.954,3.438
			C286.868,283.063,287.253,283.06,287.493,282.922z M295.435,270.97c-0.234-0.136-0.62-0.133-0.859,0.005l-5.642,3.258
			c-0.239,0.138-0.243,0.361-0.008,0.496l5.954,3.438c0.235,0.136,0.62,0.133,0.859-0.005l5.642-3.257
			c0.24-0.139,0.244-0.361,0.009-0.496L295.435,270.97z M297.171,269.968l14.46,8.349c0.235,0.135,0.619,0.133,0.859-0.005
			l5.642-3.257c0.24-0.139,0.244-0.361,0.009-0.496l-14.461-8.349c-0.235-0.135-0.62-0.133-0.86,0.005l-5.642,3.257
			C296.94,269.609,296.936,269.832,297.171,269.968z M278.084,280.496l-5.642,3.257c-0.24,0.138-0.244,0.361-0.009,0.496
			l5.955,3.437c0.235,0.136,0.62,0.134,0.859-0.005l5.642-3.257c0.239-0.139,0.244-0.361,0.009-0.496l-5.954-3.438
			C278.709,280.356,278.324,280.358,278.084,280.496z M216.025,316.326l-5.642,3.258c-0.24,0.138-0.244,0.361-0.009,0.496
			l5.954,3.438c0.235,0.136,0.62,0.133,0.859-0.005l5.642-3.257c0.24-0.139,0.243-0.361,0.008-0.496l-5.954-3.438
			C216.649,316.185,216.264,316.188,216.025,316.326z M295.14,287.837c0.234,0.136,0.62,0.133,0.859-0.005l5.642-3.257
			c0.239-0.139,0.243-0.361,0.008-0.496l-5.954-3.438c-0.234-0.136-0.62-0.133-0.859,0.005l-5.642,3.258
			c-0.24,0.138-0.244,0.36-0.009,0.496L295.14,287.837z M224.27,311.566l-5.642,3.257c-0.24,0.139-0.243,0.361-0.008,0.496
			l5.954,3.438c0.235,0.136,0.619,0.133,0.859-0.005l5.642-3.258c0.24-0.138,0.244-0.361,0.009-0.496l-5.954-3.438
			C224.895,311.425,224.51,311.427,224.27,311.566z M161.039,365.261c0.235,0.136,0.62,0.133,0.859-0.005l5.642-3.257
			c0.239-0.139,0.243-0.361,0.008-0.496l-5.954-3.438c-0.235-0.136-0.619-0.133-0.859,0.005l-5.642,3.258
			c-0.24,0.138-0.243,0.361-0.009,0.496L161.039,365.261z M150.059,354.411l-5.642,3.258c-0.24,0.138-0.243,0.361-0.008,0.496
			l5.954,3.438c0.235,0.136,0.62,0.133,0.859-0.005l5.642-3.257c0.24-0.139,0.244-0.361,0.008-0.496l-5.954-3.438
			C150.684,354.271,150.299,354.273,150.059,354.411z M170.144,360.495l5.642-3.257c0.24-0.138,0.244-0.361,0.009-0.496
			l-5.955-3.437c-0.235-0.136-0.62-0.134-0.859,0.005l-5.642,3.257c-0.239,0.138-0.243,0.361-0.008,0.496l5.955,3.437
			C169.519,360.635,169.904,360.634,170.144,360.495z M178.389,355.735l5.642-3.257c0.24-0.139,0.244-0.361,0.009-0.496
			l-5.955-3.438c-0.234-0.136-0.619-0.133-0.859,0.005l-5.642,3.257c-0.239,0.139-0.244,0.361-0.008,0.496l5.955,3.438
			C177.765,355.875,178.15,355.873,178.389,355.735z M186.635,350.974l5.642-3.257c0.24-0.139,0.243-0.361,0.009-0.497l-5.954-3.438
			c-0.235-0.135-0.619-0.133-0.859,0.006l-5.642,3.257c-0.24,0.138-0.244,0.361-0.009,0.496l5.954,3.438
			C186.011,351.114,186.395,351.112,186.635,350.974z M158.305,349.651l-5.642,3.257c-0.24,0.138-0.243,0.361-0.009,0.496
			l5.955,3.437c0.235,0.136,0.619,0.134,0.859-0.005l5.642-3.257c0.24-0.138,0.243-0.361,0.009-0.496l-5.954-3.437
			C158.929,349.51,158.545,349.512,158.305,349.651z M166.551,344.89l-5.642,3.257c-0.24,0.139-0.244,0.361-0.009,0.496l5.954,3.438
			c0.235,0.136,0.62,0.133,0.859-0.005l5.642-3.258c0.239-0.138,0.243-0.36,0.008-0.496l-5.954-3.438
			C167.175,344.75,166.79,344.752,166.551,344.89z M199.533,325.848l-5.642,3.257c-0.24,0.139-0.243,0.361-0.008,0.496l5.954,3.437
			c0.235,0.136,0.62,0.134,0.859-0.005l5.642-3.257c0.24-0.138,0.244-0.361,0.009-0.496l-5.955-3.437
			C200.158,325.707,199.773,325.709,199.533,325.848z M191.288,330.608l-5.642,3.257c-0.239,0.138-0.244,0.361-0.008,0.496
			l5.954,3.438c0.235,0.136,0.62,0.133,0.859-0.005l5.642-3.257c0.24-0.139,0.244-0.361,0.009-0.497l-5.954-3.438
			C191.912,330.467,191.527,330.47,191.288,330.608z M207.779,321.087l-5.642,3.257c-0.24,0.139-0.243,0.361-0.009,0.496
			l5.954,3.438c0.235,0.136,0.62,0.133,0.859-0.005l5.642-3.258c0.24-0.138,0.243-0.36,0.008-0.496l-5.954-3.438
			C208.403,320.946,208.019,320.949,207.779,321.087z M174.797,340.129l-5.642,3.258c-0.24,0.138-0.244,0.361-0.009,0.496
			l5.954,3.438c0.235,0.136,0.619,0.134,0.859-0.005l5.642-3.257c0.24-0.139,0.244-0.36,0.009-0.496l-5.955-3.437
			C175.421,339.989,175.036,339.991,174.797,340.129z M183.042,335.369l-5.642,3.257c-0.24,0.139-0.244,0.361-0.008,0.496
			l5.954,3.438c0.234,0.136,0.619,0.133,0.859-0.005l5.642-3.258c0.24-0.138,0.244-0.36,0.009-0.496l-5.955-3.438
			C183.667,335.228,183.281,335.231,183.042,335.369z M174.744,367.661l5.642-3.258c0.24-0.138,0.243-0.36,0.009-0.496l-5.955-3.438
			c-0.235-0.136-0.62-0.134-0.859,0.005l-5.642,3.257c-0.24,0.139-0.244,0.361-0.009,0.496l5.954,3.438
			C174.12,367.801,174.504,367.799,174.744,367.661z M128.838,364.208l-5.955-3.438c-0.235-0.136-0.619-0.133-0.859,0.005
			l-5.642,3.257c-0.24,0.138-0.244,0.36-0.009,0.496l5.954,3.438c0.235,0.135,0.62,0.133,0.86-0.005l5.642-3.257
			C129.068,364.566,129.072,364.344,128.838,364.208z M140.381,367.366l-5.954-3.437c-0.235-0.136-0.619-0.134-0.859,0.005
			l-8.68,5.011c-0.24,0.138-0.243,0.361-0.008,0.496l5.954,3.437c0.235,0.136,0.619,0.134,0.859-0.005l8.68-5.011
			C140.612,367.723,140.616,367.501,140.381,367.366z M119.816,357.496l-5.954-3.437c-0.235-0.136-0.619-0.134-0.859,0.005
			l-6.944,4.009c-0.239,0.138-0.244,0.361-0.009,0.496l5.954,3.438c0.235,0.136,0.62,0.133,0.859-0.005l6.944-4.009
			C120.047,357.854,120.051,357.632,119.816,357.496z M125.14,354.423c0.234,0.136,0.619,0.133,0.859-0.005l5.642-3.258
			c0.24-0.138,0.244-0.36,0.009-0.496l-5.954-3.438c-0.235-0.136-0.62-0.133-0.86,0.005l-5.641,3.257
			c-0.24,0.139-0.244,0.361-0.009,0.496L125.14,354.423z M151.057,371.023l-5.954-3.438c-0.235-0.135-0.62-0.133-0.859,0.006
			l-10.85,6.264c-0.24,0.139-0.243,0.361-0.008,0.496l5.954,3.438c0.235,0.136,0.619,0.133,0.859-0.005l10.85-6.264
			C151.288,371.381,151.292,371.159,151.057,371.023z M155.658,378.189l-5.955-3.437c-0.234-0.136-0.619-0.134-0.859,0.005
			l-6.944,4.009c-0.24,0.138-0.244,0.361-0.009,0.496l5.954,3.438c0.235,0.136,0.62,0.133,0.859-0.005l6.944-4.009
			C155.889,378.547,155.892,378.325,155.658,378.189z M186.447,319.027c0.234,0.136,0.619,0.133,0.859-0.005l5.642-3.258
			c0.24-0.138,0.244-0.36,0.009-0.496l-5.954-3.438c-0.235-0.136-0.62-0.133-0.86,0.005l-5.641,3.257
			c-0.24,0.139-0.244,0.361-0.009,0.496L186.447,319.027z M169.955,328.549c0.235,0.136,0.62,0.133,0.859-0.005l5.642-3.258
			c0.24-0.138,0.243-0.36,0.008-0.496l-5.954-3.438c-0.235-0.136-0.619-0.133-0.859,0.005l-5.642,3.257
			c-0.24,0.139-0.243,0.361-0.009,0.497L169.955,328.549z M133.385,349.662c0.235,0.136,0.62,0.134,0.859-0.005l5.642-3.257
			c0.24-0.138,0.244-0.361,0.009-0.496l-5.954-3.438c-0.235-0.135-0.619-0.133-0.859,0.005l-5.642,3.257
			c-0.239,0.138-0.244,0.361-0.008,0.496L133.385,349.662z M178.201,323.788c0.235,0.136,0.62,0.134,0.859-0.005l5.642-3.257
			c0.24-0.138,0.243-0.361,0.008-0.496l-5.954-3.438c-0.235-0.135-0.619-0.134-0.859,0.005l-5.642,3.257
			c-0.24,0.138-0.244,0.361-0.009,0.496L178.201,323.788z M161.71,333.309c0.235,0.135,0.62,0.133,0.859-0.005l5.642-3.257
			c0.24-0.138,0.244-0.361,0.009-0.496l-5.954-3.437c-0.235-0.135-0.62-0.134-0.859,0.005l-5.642,3.257
			c-0.24,0.139-0.243,0.361-0.008,0.496L161.71,333.309z M159.945,378.661c-0.235-0.136-0.62-0.134-0.859,0.005l-8.68,5.011
			c-0.24,0.138-0.243,0.36-0.009,0.496l5.954,3.437c0.235,0.136,0.619,0.134,0.859-0.005l8.68-5.011
			c0.24-0.138,0.243-0.361,0.008-0.496L159.945,378.661z M149.876,340.141c0.235,0.136,0.62,0.133,0.859-0.005l5.642-3.257
			c0.24-0.139,0.243-0.361,0.009-0.496l-5.954-3.438c-0.235-0.136-0.62-0.133-0.86,0.005l-5.642,3.257
			c-0.24,0.138-0.243,0.36-0.009,0.496L149.876,340.141z M141.63,344.902c0.235,0.135,0.62,0.133,0.859-0.005l5.642-3.258
			c0.24-0.138,0.244-0.361,0.009-0.496l-5.954-3.438c-0.235-0.136-0.62-0.133-0.859,0.005l-5.642,3.257
			c-0.24,0.139-0.243,0.36-0.008,0.496L141.63,344.902z M312.707,290.464c-0.235-0.136-0.619-0.134-0.859,0.005l-13.887,8.018
			c-0.24,0.138-0.244,0.361-0.009,0.496l5.955,3.437c0.234,0.136,0.619,0.134,0.859-0.005l13.887-8.018
			c0.24-0.138,0.244-0.36,0.009-0.496L312.707,290.464z M294.48,300.987c-0.235-0.136-0.619-0.134-0.859,0.005l-5.642,3.257
			c-0.24,0.139-0.243,0.361-0.009,0.496l5.954,3.438c0.235,0.135,0.62,0.133,0.86-0.006l5.642-3.257
			c0.24-0.138,0.243-0.361,0.009-0.496L294.48,300.987z M182.99,362.9l5.642-3.257c0.239-0.139,0.243-0.361,0.008-0.496
			l-5.954-3.438c-0.235-0.136-0.62-0.133-0.859,0.005l-5.642,3.258c-0.24,0.138-0.244,0.36-0.009,0.496l5.954,3.438
			C182.365,363.041,182.75,363.039,182.99,362.9z M277.989,310.508c-0.235-0.136-0.62-0.133-0.859,0.005l-5.642,3.257
			c-0.24,0.139-0.243,0.361-0.008,0.496l5.954,3.438c0.235,0.136,0.62,0.133,0.859-0.005l5.642-3.258
			c0.24-0.138,0.244-0.361,0.009-0.496L277.989,310.508z M320.953,285.703c-0.235-0.136-0.62-0.133-0.859,0.005l-5.642,3.258
			c-0.239,0.138-0.243,0.361-0.008,0.496l5.954,3.438c0.235,0.136,0.62,0.133,0.859-0.005l5.642-3.257
			c0.24-0.139,0.243-0.361,0.009-0.496L320.953,285.703z M335.153,284.38l-14.461-8.349c-0.235-0.136-0.619-0.133-0.859,0.005
			l-5.642,3.258c-0.24,0.138-0.244,0.361-0.008,0.496l14.46,8.349c0.235,0.136,0.62,0.133,0.859-0.005l5.642-3.258
			C335.384,284.738,335.388,284.515,335.153,284.38z M247.176,328.298c-0.235-0.136-0.62-0.133-0.859,0.005l-6.944,4.009
			c-0.24,0.138-0.244,0.361-0.009,0.497l5.954,3.437c0.235,0.136,0.62,0.134,0.859-0.005l6.944-4.009
			c0.24-0.138,0.244-0.361,0.009-0.496L247.176,328.298z M268.007,316.271c-0.235-0.136-0.62-0.133-0.859,0.005l-8.68,5.012
			c-0.24,0.138-0.243,0.36-0.009,0.496l5.954,3.438c0.235,0.136,0.619,0.133,0.859-0.005l8.68-5.011
			c0.24-0.138,0.244-0.36,0.009-0.496L268.007,316.271z M228.081,339.323c-0.235-0.136-0.62-0.133-0.859,0.005l-46.436,26.81
			c-0.24,0.138-0.244,0.361-0.009,0.496l5.954,3.438c0.235,0.136,0.619,0.134,0.859-0.005l46.436-26.81
			c0.24-0.139,0.244-0.361,0.009-0.497L228.081,339.323z M179.041,367.636c-0.235-0.136-0.62-0.133-0.859,0.005l-6.944,4.009
			c-0.24,0.138-0.243,0.361-0.008,0.496l5.954,3.438c0.235,0.135,0.62,0.133,0.859-0.006l6.944-4.009
			c0.239-0.138,0.243-0.36,0.008-0.496L179.041,367.636z M237.628,333.81c-0.235-0.136-0.619-0.133-0.859,0.005l-6.943,4.009
			c-0.24,0.139-0.244,0.361-0.009,0.496l5.954,3.437c0.235,0.136,0.62,0.134,0.859-0.004l6.943-4.009
			c0.24-0.138,0.243-0.36,0.008-0.496L237.628,333.81z M169.493,373.148c-0.235-0.136-0.62-0.133-0.859,0.005l-6.944,4.009
			c-0.24,0.139-0.243,0.361-0.008,0.496l5.954,3.438c0.235,0.136,0.619,0.133,0.859-0.005l6.944-4.009
			c0.24-0.139,0.244-0.361,0.009-0.496L169.493,373.148z M256.724,322.786c-0.235-0.136-0.619-0.134-0.859,0.005l-6.944,4.009
			c-0.239,0.138-0.243,0.361-0.008,0.496l5.954,3.438c0.234,0.136,0.62,0.134,0.859-0.005l6.944-4.009
			c0.24-0.138,0.243-0.361,0.008-0.496L256.724,322.786z M286.234,305.747c-0.235-0.136-0.62-0.133-0.86,0.005l-5.642,3.257
			c-0.24,0.138-0.243,0.36-0.008,0.496l5.954,3.438c0.235,0.135,0.62,0.133,0.859-0.005l5.642-3.257
			c0.24-0.139,0.243-0.361,0.009-0.496L286.234,305.747z M304.505,292.743l5.642-3.257c0.24-0.139,0.244-0.361,0.009-0.496
			l-5.954-3.437c-0.235-0.136-0.62-0.134-0.859,0.005l-5.642,3.257c-0.239,0.138-0.243,0.361-0.009,0.496l5.955,3.437
			C303.88,292.884,304.266,292.882,304.505,292.743z M269.266,293.445l5.642-3.257c0.24-0.138,0.243-0.361,0.009-0.496l-5.955-3.437
			c-0.235-0.136-0.619-0.134-0.859,0.005l-5.642,3.257c-0.24,0.139-0.244,0.361-0.009,0.496l5.954,3.437
			C268.641,293.586,269.026,293.584,269.266,293.445z M248.955,324.815l16.491-9.521c0.24-0.138,0.243-0.361,0.008-0.496
			l-5.954-3.438c-0.235-0.135-0.619-0.133-0.859,0.005l-16.491,9.521c-0.24,0.138-0.244,0.361-0.009,0.496l5.954,3.437
			C248.331,324.956,248.715,324.954,248.955,324.815z M295.4,297.509c0.235,0.136,0.62,0.133,0.859-0.005l5.642-3.257
			c0.24-0.139,0.244-0.361,0.009-0.496l-5.954-3.438c-0.234-0.135-0.619-0.133-0.859,0.005l-5.642,3.258
			c-0.239,0.138-0.243,0.361-0.009,0.496L295.4,297.509z M287.753,292.594l5.642-3.258c0.239-0.138,0.243-0.361,0.008-0.496
			l-5.954-3.438c-0.235-0.136-0.62-0.133-0.859,0.005l-5.642,3.257c-0.24,0.139-0.244,0.361-0.009,0.496l5.954,3.438
			C287.129,292.734,287.514,292.732,287.753,292.594z M240.71,329.576l5.642-3.258c0.24-0.138,0.244-0.36,0.009-0.496l-5.954-3.438
			c-0.235-0.136-0.62-0.133-0.86,0.005l-5.642,3.258c-0.24,0.138-0.243,0.36-0.008,0.496l5.954,3.438
			C240.085,329.716,240.47,329.714,240.71,329.576z M277.173,308.033c0.235,0.136,0.62,0.133,0.859-0.005l5.642-3.258
			c0.24-0.138,0.243-0.361,0.009-0.496l-5.955-3.438c-0.235-0.136-0.619-0.133-0.859,0.005l-5.642,3.257
			c-0.24,0.139-0.244,0.361-0.008,0.496L277.173,308.033z M199.481,353.379l5.642-3.258c0.239-0.138,0.243-0.36,0.009-0.496
			l-5.954-3.438c-0.235-0.136-0.619-0.134-0.859,0.005l-5.642,3.258c-0.24,0.138-0.243,0.36-0.009,0.496l5.954,3.438
			C198.857,353.52,199.242,353.517,199.481,353.379z M207.727,348.618l5.642-3.257c0.239-0.139,0.243-0.361,0.008-0.496
			l-5.954-3.438c-0.235-0.135-0.619-0.133-0.859,0.006l-5.642,3.257c-0.24,0.138-0.243,0.361-0.009,0.496l5.955,3.437
			C207.103,348.759,207.487,348.757,207.727,348.618z M191.236,358.14l5.642-3.257c0.24-0.138,0.244-0.361,0.008-0.496l-5.954-3.437
			c-0.235-0.136-0.62-0.134-0.859,0.005l-5.642,3.257c-0.24,0.138-0.243,0.361-0.009,0.496l5.954,3.438
			C190.611,358.28,190.996,358.278,191.236,358.14z M224.218,339.097l5.642-3.257c0.24-0.139,0.244-0.361,0.009-0.496l-5.954-3.438
			c-0.235-0.136-0.62-0.133-0.86,0.005l-5.642,3.257c-0.239,0.138-0.243,0.36-0.008,0.496l5.954,3.438
			C223.594,339.238,223.979,339.235,224.218,339.097z M215.972,343.858l5.642-3.257c0.24-0.138,0.244-0.36,0.009-0.496l-5.955-3.438
			c-0.234-0.136-0.62-0.134-0.859,0.005l-5.642,3.257c-0.239,0.139-0.243,0.361-0.008,0.496l5.954,3.438
			C215.348,343.998,215.733,343.996,215.972,343.858z M232.464,334.336l5.642-3.257c0.24-0.138,0.243-0.361,0.009-0.496
			l-5.954-3.437c-0.235-0.136-0.62-0.134-0.859,0.005l-5.642,3.257c-0.24,0.138-0.243,0.361-0.008,0.496l5.954,3.438
			C231.839,334.477,232.224,334.475,232.464,334.336z M273.865,266.034c0.235,0.135,0.62,0.133,0.859-0.005l5.642-3.258
			c0.24-0.138,0.243-0.36,0.009-0.496l-1.585-0.915c-0.235-0.136-0.62-0.133-0.86,0.005l-5.642,3.258
			c-0.239,0.138-0.243,0.36-0.008,0.496L273.865,266.034z M233.086,292.1c0.234,0.136,0.619,0.134,0.859-0.005l5.642-3.257
			c0.239-0.138,0.244-0.36,0.009-0.496l-5.954-3.437c-0.235-0.136-0.62-0.134-0.859,0.004l-5.642,3.258
			c-0.24,0.138-0.244,0.361-0.009,0.496L233.086,292.1z M249.577,282.579c0.235,0.136,0.62,0.133,0.859-0.005l5.642-3.257
			c0.24-0.139,0.243-0.36,0.009-0.496l-5.955-3.438c-0.235-0.136-0.62-0.133-0.859,0.005l-5.642,3.257
			c-0.239,0.138-0.244,0.361-0.008,0.496L249.577,282.579z M223.017,297.913c0.235,0.136,0.619,0.134,0.859-0.005l5.642-3.257
			c0.24-0.138,0.243-0.361,0.008-0.496l-5.954-3.438c-0.235-0.135-0.62-0.133-0.859,0.006l-5.642,3.257
			c-0.24,0.138-0.244,0.361-0.009,0.496L223.017,297.913z M241.331,287.34c0.234,0.136,0.62,0.133,0.859-0.005l5.642-3.258
			c0.239-0.138,0.243-0.361,0.008-0.496l-5.954-3.438c-0.234-0.136-0.619-0.134-0.859,0.005l-5.642,3.257
			c-0.24,0.139-0.244,0.361-0.009,0.496L241.331,287.34z M206.525,307.435c0.235,0.135,0.62,0.133,0.859-0.006l5.642-3.257
			c0.24-0.138,0.244-0.361,0.009-0.497l-5.954-3.437c-0.235-0.136-0.62-0.134-0.86,0.005l-5.642,3.257
			c-0.24,0.139-0.243,0.361-0.008,0.496L206.525,307.435z M214.771,302.674c0.235,0.135,0.62,0.133,0.859-0.005l5.642-3.258
			c0.24-0.138,0.243-0.36,0.008-0.496l-5.954-3.438c-0.235-0.136-0.619-0.133-0.859,0.005l-5.642,3.257
			c-0.24,0.139-0.243,0.361-0.009,0.496L214.771,302.674z M257.374,275.555c0.235,0.136,0.62,0.133,0.859-0.005l5.642-3.258
			c0.24-0.138,0.243-0.36,0.009-0.496l-1.585-0.915c-0.235-0.136-0.62-0.133-0.859,0.005l-5.642,3.258
			c-0.24,0.138-0.244,0.36-0.009,0.496L257.374,275.555z M282.111,261.273c0.235,0.136,0.62,0.134,0.859-0.005l5.642-3.257
			c0.24-0.139,0.243-0.361,0.008-0.496l-1.585-0.915c-0.235-0.135-0.619-0.133-0.859,0.006l-5.642,3.257
			c-0.24,0.138-0.244,0.361-0.009,0.496L282.111,261.273z M294.619,268.494c0.235,0.136,0.62,0.133,0.859-0.005l5.642-3.257
			c0.24-0.139,0.243-0.361,0.009-0.496l-5.955-3.438c-0.234-0.136-0.62-0.133-0.859,0.005l-5.642,3.258
			c-0.24,0.138-0.244,0.361-0.008,0.496L294.619,268.494z M312.751,287.983l5.642-3.258c0.24-0.138,0.244-0.36,0.009-0.496
			l-5.954-3.438c-0.234-0.136-0.62-0.133-0.859,0.005l-5.642,3.257c-0.239,0.139-0.243,0.361-0.008,0.496l5.954,3.438
			C312.126,288.124,312.511,288.121,312.751,287.983z M265.62,270.794c0.235,0.136,0.619,0.134,0.859-0.005l5.642-3.257
			c0.24-0.138,0.244-0.361,0.009-0.496l-1.585-0.915c-0.235-0.136-0.62-0.134-0.859,0.005l-5.642,3.257
			c-0.239,0.139-0.243,0.361-0.008,0.496L265.62,270.794z M198.28,312.195c0.235,0.136,0.62,0.133,0.859-0.005l5.642-3.257
			c0.24-0.139,0.244-0.361,0.009-0.496l-5.954-3.438c-0.235-0.136-0.62-0.133-0.859,0.005l-5.642,3.258
			c-0.239,0.138-0.243,0.36-0.008,0.496L198.28,312.195z"/>
		<path id="XMLID_386_" style="fill:#263238;" d="M228.482,360.67l50.815-29.338c1.531-0.884,4.014-0.884,5.546,0l29.138,16.823
			c1.531,0.884,1.531,2.318,0,3.202l-50.815,29.338c-1.531,0.884-4.014,0.884-5.546,0l-29.138-16.823
			C226.95,362.987,226.95,361.554,228.482,360.67z"/>
	</g>
</g>
<g id="Shield_2_">
	<g id="Shield_1_">
		<g id="Shield">
			<g>
				<path style="fill:#27DEBF;" d="M219.883,138.242c-15.886,14.265-29.605,13.517-38.182,6.913
					c-8.568,16.511-22.287,33.092-38.173,37.169l-9.07,24.498c0,0,4.861,5.601,4.861,19.003c0,6.041-0.925,11.351-2.246,16.625
					c-1.655,6.613-3.786,13.455-3.786,24.876c0,7.749,1.021,15.278,4.94,22.129c2.263,3.963,5.53,7.318,9.933,9.951
					c-2.932-1.691-11.562-6.675-13.79-7.96c-4.667-2.686-8.101-6.138-10.453-10.25c-3.919-6.86-4.94-14.38-4.94-22.129
					c0-11.421,2.131-18.263,3.786-24.885c1.321-5.266,2.254-10.576,2.254-16.616c0-13.402-4.861-19.003-4.861-19.003l9.061-24.498
					c15.886-4.077,29.605-20.658,38.173-37.169c8.577,6.604,22.296,7.353,38.182-6.913L219.883,138.242z"/>
				<g>
					<path style="opacity:0.8;fill:#FFFFFF;" d="M172.421,139.798l-5.029-2.903C168.911,138.065,170.595,139.046,172.421,139.798z"
						/>
					<path style="opacity:0.85;fill:#FFFFFF;" d="M205.573,129.982c-13.071,11.738-24.673,13.306-33.152,9.816l9.28,5.357
						c8.577,6.604,22.296,7.353,38.182-6.913L205.573,129.982z"/>
				</g>
				<path style="opacity:0.65;fill:#FFFFFF;" d="M167.392,136.895c-8.568,16.511-22.287,33.092-38.173,37.169l14.309,8.26
					c15.886-4.077,29.605-20.658,38.173-37.169L167.392,136.895z"/>
				<polygon style="opacity:0.55;fill:#FFFFFF;" points="129.219,174.064 120.157,198.561 134.458,206.821 143.528,182.324 				"/>
				<path style="opacity:0.4;fill:#FFFFFF;" d="M138.227,289.455c-3.919-6.851-4.94-14.38-4.94-22.129
					c0-11.421,2.131-18.263,3.786-24.876c1.321-5.275,2.246-10.584,2.246-16.625c0-13.402-4.861-19.003-4.861-19.003l-14.301-8.26
					c0,0,4.861,5.601,4.861,19.003c0,6.041-0.934,11.351-2.254,16.616c-1.655,6.622-3.786,13.464-3.786,24.885
					c0,7.749,1.021,15.269,4.94,22.129c2.351,4.112,5.785,7.564,10.453,10.25c2.228,1.286,10.857,6.27,13.79,7.96
					C143.757,296.772,140.49,293.417,138.227,289.455z"/>
				<path style="opacity:0.05;" d="M138.227,289.455c-3.919-6.851-4.94-14.38-4.94-22.129c0-11.421,2.131-18.263,3.786-24.876
					c1.321-5.275,2.246-10.584,2.246-16.625c0-13.402-4.861-19.003-4.861-19.003l-14.301-8.26c0,0,4.861,5.601,4.861,19.003
					c0,6.041-0.934,11.351-2.254,16.616c-1.655,6.622-3.786,13.464-3.786,24.885c0,7.749,1.021,15.269,4.94,22.129
					c2.351,4.112,5.785,7.564,10.453,10.25c2.228,1.286,10.857,6.27,13.79,7.96C143.757,296.772,140.49,293.417,138.227,289.455z"/>
			</g>
			<g>
				<path style="fill:#27DEBF;" d="M181.704,306.234c-23.727,0.263-37.318-5.994-43.479-16.781
					c-3.915-6.853-4.936-14.38-4.936-22.129c0-11.42,2.125-18.259,3.783-24.878c1.32-5.268,2.251-10.581,2.251-16.618
					c0-13.402-4.861-19.003-4.861-19.003l9.065-24.502c15.885-4.077,29.604-20.661,38.177-37.172
					c8.573,6.611,22.292,7.354,38.177-6.911l9.065,14.035c0,0-4.861,11.213-4.861,24.615c0,6.036,0.931,10.275,2.251,14.019
					c1.658,4.704,3.783,9.091,3.783,20.51c0,7.748-1.021,16.454-4.936,27.828C219.022,257.148,205.43,279.1,181.704,306.234z"/>
				<path style="opacity:0.75;fill:#FFFFFF;" d="M181.704,306.234c-23.727,0.263-37.318-5.994-43.479-16.781
					c-3.915-6.853-4.936-14.38-4.936-22.129c0-11.42,2.125-18.259,3.783-24.878c1.32-5.268,2.251-10.581,2.251-16.618
					c0-13.402-4.861-19.003-4.861-19.003l9.065-24.502c15.885-4.077,29.604-20.661,38.177-37.172
					c8.573,6.611,22.292,7.354,38.177-6.911l9.065,14.035c0,0-4.861,11.213-4.861,24.615c0,6.036,0.931,10.275,2.251,14.019
					c1.658,4.704,3.783,9.091,3.783,20.51c0,7.748-1.021,16.454-4.936,27.828C219.022,257.148,205.43,279.1,181.704,306.234z"/>
				<path style="opacity:0.75;fill:#27DEBF;" d="M178.894,300.069c-18.379-0.218-30.258-4.815-35.318-13.673
					c-2.852-4.994-4.123-10.876-4.123-19.072c0-9.379,1.538-15.356,3.025-21.137c0.194-0.755,0.387-1.501,0.573-2.244
					c1.685-6.724,2.436-12.311,2.436-18.116c0-9.764-2.34-16.158-4.197-19.695l6.956-18.802
					c17.003-5.911,29.291-22.698,35.802-33.71c3.462,1.478,7.209,2.243,11.093,2.243c7.683,0,15.492-2.859,23.285-8.513l3.656,5.659
					c-1.586,4.588-4.161,13.618-4.161,23.881c0,6.007,0.802,10.962,2.6,16.067c0.192,0.544,0.389,1.081,0.587,1.624
					c1.464,3.995,2.846,7.77,2.846,16.838c0,8.615-1.419,16.579-4.6,25.821C213.291,254.861,199.682,275.99,178.894,300.069z"/>
				<path style="opacity:0.4;fill:#FFFFFF;" d="M178.894,300.069c-18.379-0.218-30.258-4.815-35.318-13.673
					c-2.852-4.994-4.123-10.876-4.123-19.072c0-9.379,1.538-15.356,3.025-21.137c0.194-0.755,0.387-1.501,0.573-2.244
					c1.685-6.724,2.436-12.311,2.436-18.116c0-9.764-2.34-16.158-4.197-19.695l6.956-18.802
					c17.003-5.911,29.291-22.698,35.802-33.71c3.462,1.478,7.209,2.243,11.093,2.243c7.683,0,15.492-2.859,23.285-8.513l3.656,5.659
					c-1.586,4.588-4.161,13.618-4.161,23.881c0,6.007,0.802,10.962,2.6,16.067c0.192,0.544,0.389,1.081,0.587,1.624
					c1.464,3.995,2.846,7.77,2.846,16.838c0,8.615-1.419,16.579-4.6,25.821C213.291,254.861,199.682,275.99,178.894,300.069z"/>
				<path style="opacity:0.15;" d="M178.894,300.069c-18.379-0.218-30.258-4.815-35.318-13.673
					c-2.852-4.994-4.123-10.876-4.123-19.072c0-9.379,1.538-15.356,3.025-21.137c0.194-0.755,0.387-1.501,0.573-2.244
					c1.685-6.724,2.436-12.311,2.436-18.116c0-9.764-2.34-16.158-4.197-19.695l6.956-18.802
					c17.003-5.911,29.291-22.698,35.802-33.71c3.462,1.478,7.209,2.243,11.093,2.243c7.683,0,15.492-2.859,23.285-8.513l3.656,5.659
					c-1.586,4.588-4.161,13.618-4.161,23.881c0,6.007,0.802,10.962,2.6,16.067c0.192,0.544,0.389,1.081,0.587,1.624
					c1.464,3.995,2.846,7.77,2.846,16.838c0,8.615-1.419,16.579-4.6,25.821C213.291,254.861,199.682,275.99,178.894,300.069z"/>
				<path style="opacity:0.8;fill:#FFFFFF;" d="M147.786,291.492c6.26,5.52,16.668,8.407,31.108,8.578l-9.215-5.249
					C161.435,294.771,154.099,293.705,147.786,291.492z"/>
				<polygon style="opacity:0.15;" points="217.283,150.241 222.082,153.01 218.426,147.35 216.344,148.787 				"/>
			</g>
			<g>
				<path style="fill:#455A64;" d="M215.722,190.19c-1.798-5.105-2.6-10.061-2.6-16.067c0-10.263,2.576-19.294,4.161-23.881
					l-0.939-1.454c-7.1,4.696-14.204,7.077-21.202,7.077c-3.884,0-7.631-0.764-11.093-2.243
					c-6.511,11.012-18.799,27.799-35.802,33.71l-6.956,18.802c1.857,3.537,4.197,9.932,4.197,19.695
					c0,5.805-0.752,11.392-2.436,18.116c-0.186,0.743-0.378,1.489-0.573,2.244c-1.487,5.781-3.025,11.758-3.025,21.137
					c0,8.196,1.272,14.078,4.123,19.072c1.439,2.519,3.449,4.681,5.983,6.508c6.142,2.8,14.333,4.275,24.536,4.396
					c20.788-24.079,34.397-45.209,40.46-62.828c3.181-9.243,4.6-17.206,4.6-25.821c0-9.068-1.382-12.842-2.846-16.838
					C216.111,191.27,215.914,190.733,215.722,190.19z"/>
				<path style="fill:#37474F;" d="M148.247,187.331l-6.956,18.802c1.857,3.537,4.197,9.932,4.197,19.695
					c0,5.805-0.752,11.392-2.436,18.116c-0.186,0.743-0.378,1.489-0.573,2.244c-1.487,5.781-3.025,11.758-3.025,21.137
					c0,8.196,1.272,14.078,4.123,19.072c1.439,2.519,3.449,4.681,5.983,6.508c6.142,2.8,14.333,4.275,24.536,4.396V228.02
					l9.953-3.01v-71.389c-2.782,4.747-6.056,9.495-9.953,14.242C167.442,175.886,158.744,183.682,148.247,187.331z"/>
			</g>
		</g>
		<path id="Shadow_5_" style="fill:#263238;" d="M198.118,202.417c-0.095-0.187-0.224-0.368-0.377-0.545
			c-0.017-0.019-0.03-0.039-0.047-0.058c-0.265-0.291-0.61-0.565-1.034-0.809l-3.335-1.926c-0.565-0.326-1.219-0.571-1.916-0.735
			c-0.395-0.092-0.806-0.152-1.221-0.192v-9.864c0-4.945-1.869-8.86-5.128-10.742c-3.11-1.796-6.956-1.552-10.831,0.685
			c-7.117,4.109-12.693,14.136-12.693,22.827v11.645l-6.633,3.83c-0.21,0.121-0.393,0.251-0.564,0.384
			c-0.06,0.047-0.124,0.093-0.179,0.141c-0.014,0.012-0.025,0.026-0.04,0.038c-0.609,0.549-0.915,1.177-0.914,1.806l0,39.926
			c-0.001,0.172,0.028,0.344,0.073,0.515c0.152,0.581,0.568,1.143,1.252,1.619c0.116,0.081,0.238,0.16,0.37,0.236l1.622,0.937
			l1.716,0.992c0.622,0.361,1.359,0.61,2.141,0.77c2.043,0.422,4.41,0.171,6.046-0.774l30.232-17.454
			c1.131-0.653,1.696-1.509,1.696-2.365V203.37C198.357,203.049,198.278,202.728,198.118,202.417z M168.071,201.058
			c0-6.356,4.316-14.218,9.425-17.168c1.742-1.006,3.308-1.255,4.298-0.685c1.165,0.673,1.861,2.573,1.861,5.083v11.645
			l-8.597,4.964l-6.986,4.033V201.058z"/>
		<g id="Padlock">
			<path style="fill:#27DEBF;" d="M201.879,205.13c0-0.856-0.565-1.712-1.696-2.365l-3.335-1.926c-2.262-1.306-5.93-1.306-8.192,0
				l-30.231,17.454c-1.132,0.654-1.697,1.511-1.696,2.368l0,0l0,39.927l0,0c-0.003,0.858,0.562,1.716,1.696,2.371l3.334,1.925
				c2.262,1.306,5.929,1.306,8.192,0l30.232-17.454c1.131-0.653,1.696-1.509,1.696-2.365l0,0V205.13L201.879,205.13z"/>
			<path style="opacity:0.4;fill:#FFFFFF;" d="M161.76,224.949l-3.334-1.925c-2.262-1.306-2.262-3.424,0-4.73l30.23-17.454
				c2.262-1.306,5.93-1.306,8.192,0l3.335,1.926c2.262,1.306,2.262,3.423,0,4.729l-30.232,17.454
				C167.689,226.255,164.021,226.255,161.76,224.949z"/>
			<path style="opacity:0.1;" d="M165.86,225.927v39.936c-1.485,0-2.97-0.322-4.096-0.974l-3.339-1.929
				c-1.135-0.653-1.703-1.514-1.693-2.374v-39.927c0,0.861,0.558,1.712,1.693,2.365l3.339,1.93
				C162.889,225.605,164.375,225.927,165.86,225.927z"/>
			<g id="XMLID_274_">
				<path id="XMLID_277_" style="fill:#455A64;" d="M187.859,245.681l-7.218,4.168l1.118-13.058
					c-0.863-0.456-1.414-1.58-1.414-3.193c0-2.875,1.748-6.215,3.905-7.46c2.156-1.245,3.904,0.077,3.904,2.952
					c0,1.613-0.55,3.371-1.414,4.825L187.859,245.681z"/>
				<polygon id="XMLID_276_" style="fill:#37474F;" points="187.859,245.681 181.321,241.906 180.641,249.848 				"/>
				<path id="XMLID_275_" style="fill:#37474F;" d="M184.251,226.137c-1.411,0.815-2.643,2.527-3.329,4.419l5.82,3.36l0-0.002
					c0.863-1.453,1.414-3.212,1.414-4.825C188.155,226.214,186.406,224.893,184.251,226.137z"/>
			</g>
			<path style="fill:#E0E0E0;" d="M193.71,206.021c0-0.002,0.001-0.003,0.001-0.005h-0.001V190.05c0-4.945-1.869-8.86-5.127-10.742
				c-3.11-1.796-6.956-1.552-10.831,0.685c-7.117,4.109-12.692,14.136-12.692,22.826v16.054h-0.001c0,0.482,0.322,0.965,0.959,1.333
				c1.275,0.736,3.342,0.736,4.617,0c0.637-0.368,0.959-0.85,0.959-1.333h0v-16.054c0-6.356,4.316-14.218,9.425-17.168
				c1.742-1.006,3.308-1.255,4.298-0.685c1.165,0.673,1.861,2.573,1.861,5.083v15.966h0c0,0.001,0,0.001,0,0.002v0.009h0.001
				c0.005,0.479,0.325,0.956,0.957,1.321c1.275,0.736,3.342,0.736,4.617,0c0.633-0.365,0.953-0.843,0.958-1.321h0.001V206.021z"/>
		</g>
	</g>
</g>
<g id="Key_1_">
	<g id="Key">
		<g id="XMLID_975_">
			<polyline id="XMLID_381_" style="fill:#27DEBF;" points="232.568,276.206 236.968,273.666 238.712,271.554 234.312,274.094 
				232.568,276.206 			"/>
			<polyline id="XMLID_375_" style="opacity:0.4;" points="232.568,276.206 236.968,273.666 238.712,271.554 234.312,274.094 
				232.568,276.206 			"/>
		</g>
		<g id="XMLID_936_">
			<polyline id="XMLID_974_" style="fill:#27DEBF;" points="244.543,283.12 248.943,280.579 252.62,277.324 248.22,279.865 
				244.543,283.12 			"/>
			<polyline id="XMLID_353_" style="opacity:0.4;" points="244.543,283.12 248.943,280.579 252.62,277.324 248.22,279.865 
				244.543,283.12 			"/>
		</g>
		<path id="XMLID_343_" style="fill:#27DEBF;" d="M281.955,291.898c0.965,1.227,1.668,3.03,1.819,4.789
			C282.809,295.459,282.106,293.656,281.955,291.898z M292.184,292.031c-1.48-10.081-6.896-20.053-13.352-23.78
			c-3.098-1.791-5.965-1.856-8.261-0.513c-0.672,0.39-3.163,1.827-4.145,2.39c-0.079,0.043-0.159,0.087-0.231,0.137
			c-0.181,0.101-0.361,0.217-0.535,0.339c-0.332,0.231-0.65,0.491-0.953,0.787c-0.043,0.036-0.087,0.087-0.137,0.13
			c-0.13,0.13-0.26,0.274-0.383,0.419c-0.152,0.173-0.303,0.354-0.441,0.541c-0.289,0.383-0.563,0.794-0.809,1.242
			c-0.123,0.217-0.246,0.448-0.361,0.686l-36.186-20.891l-4.398,2.535v2.802l0.375,0.217l0.347,0.202v0.592l-0.722,0.419v1.632
			l5.315,11.251l5.257,3.04l1.747-2.116l4.636,2.773l2.665,4.564l2.932,1.69l3.676-3.257l4.513,2.607l1.517,6.254l7.561,4.362
			c0.383,1.603,0.867,3.17,1.43,4.701c0.051,0.159,0.108,0.318,0.173,0.491c2.513,6.608,6.514,12.262,11.02,14.868
			c0.578,0.332,1.141,0.607,1.697,0.816c0.318,0.13,0.636,0.231,0.946,0.318c0.282,0.079,0.563,0.144,0.845,0.188
			c0.931,0.166,1.834,0.159,2.679-0.007c0.123-0.029,0.245-0.058,0.368-0.087c0.173-0.036,0.346-0.087,0.513-0.152
			c0.13-0.051,0.26-0.101,0.39-0.152c0.137-0.051,0.274-0.116,0.404-0.188c0.13-0.058,0.253-0.123,0.376-0.195
			c0.065-0.036,0.13-0.072,0.188-0.108c0.029-0.007,0.058-0.029,0.087-0.051c1.004-0.578,3.481-2.008,4.152-2.39
			c3.343-1.935,5.51-6.839,5.51-13.771C292.589,295.605,292.452,293.814,292.184,292.031z"/>
		<path id="XMLID_340_" style="fill:#27DEBF;" d="M280.664,300.401c-1.736-1.002-3.143-3.981-3.143-6.654
			c0-2.673,1.407-4.027,3.143-3.025c1.736,1.002,3.143,3.981,3.143,6.654C283.808,300.05,282.4,301.404,280.664,300.401z
			 M287.786,294.565c-1.48-10.074-6.896-20.046-13.352-23.772c-2.99-1.726-5.755-1.856-8.008-0.664
			c-0.079,0.043-0.159,0.087-0.231,0.137c-0.181,0.101-0.361,0.217-0.535,0.339c-0.332,0.231-0.65,0.491-0.953,0.787
			c-0.043,0.036-0.087,0.087-0.137,0.13c-0.13,0.13-0.26,0.274-0.383,0.419c-0.152,0.173-0.303,0.354-0.441,0.541
			c-0.289,0.383-0.563,0.794-0.809,1.242c-0.123,0.217-0.246,0.448-0.361,0.686c-0.599,1.228-1.076,2.657-1.394,4.275l-39.19-22.631
			v2.802l0.375,0.217l0.347,0.202v0.592l-0.722,0.419v1.632l5.315,11.251l5.257,3.04l1.747-2.116l4.636,2.773l2.665,4.564
			l2.932,1.69l3.676-3.257l4.513,2.607l1.517,6.254l7.561,4.362c0.383,1.603,0.867,3.17,1.43,4.701
			c0.051,0.159,0.108,0.318,0.173,0.491c2.513,6.608,6.514,12.262,11.02,14.868c0.578,0.332,1.141,0.607,1.697,0.816
			c0.318,0.13,0.636,0.231,0.946,0.318c0.282,0.079,0.563,0.144,0.845,0.188c0.931,0.166,1.834,0.159,2.679-0.007
			c0.123-0.029,0.245-0.058,0.368-0.087c0.173-0.036,0.346-0.087,0.513-0.152c0.13-0.051,0.26-0.101,0.39-0.152
			c0.137-0.051,0.274-0.116,0.404-0.188c0.13-0.058,0.253-0.123,0.376-0.195c0.065-0.036,0.13-0.072,0.188-0.108
			c0.029-0.007,0.058-0.029,0.087-0.051c3.206-2.022,5.264-6.853,5.264-13.619C288.191,298.147,288.046,296.356,287.786,294.565z"/>
		<path id="XMLID_339_" style="opacity:0.4;" d="M283.808,297.375c0,2.672-1.408,4.029-3.141,3.026
			c-1.74-1.004-3.148-3.979-3.148-6.651c0-2.672,1.408-4.029,3.148-3.026c0.462,0.267,0.903,0.672,1.285,1.177
			c0.152,1.755,0.859,3.56,1.82,4.788C283.8,296.919,283.808,297.151,283.808,297.375z"/>
		<path id="XMLID_337_" style="opacity:0.4;fill:#FFFFFF;" d="M292.589,297.367c0,6.932-2.166,11.836-5.51,13.771
			c-0.672,0.383-3.149,1.813-4.152,2.39c3.206-2.022,5.264-6.853,5.264-13.619c0-1.762-0.145-3.553-0.404-5.344
			c-1.48-10.074-6.896-20.046-13.352-23.772c-2.99-1.726-5.755-1.856-8.008-0.664c0.982-0.563,3.473-2,4.145-2.39
			c2.296-1.343,5.163-1.278,8.261,0.513c6.456,3.726,11.872,13.699,13.352,23.78C292.452,293.814,292.589,295.605,292.589,297.367z"
			/>
		<g id="XMLID_329_">
			<path id="XMLID_331_" style="fill:#27DEBF;" d="M288.191,299.909c0,6.766-2.058,11.597-5.264,13.619
				c1.004-0.578,3.481-2.008,4.152-2.39c3.343-1.935,5.51-6.839,5.51-13.771c0-0.256-0.009-0.513-0.015-0.77
				c-1.511,0.872-3.039,1.754-4.398,2.539C288.181,299.394,288.191,299.652,288.191,299.909z"/>
			<path id="XMLID_330_" style="opacity:0.1;" d="M288.191,299.909c0,6.766-2.058,11.597-5.264,13.619
				c1.004-0.578,3.481-2.008,4.152-2.39c3.343-1.935,5.51-6.839,5.51-13.771c0-0.256-0.009-0.513-0.015-0.77
				c-1.511,0.872-3.039,1.754-4.398,2.539C288.181,299.394,288.191,299.652,288.191,299.909z"/>
		</g>
		<g id="XMLID_317_">
			<polygon id="XMLID_324_" style="opacity:0.15;" points="261.342,281.574 261.342,283.004 221.994,260.286 222.716,259.867 
				222.716,259.275 			"/>
			<polygon id="XMLID_318_" style="opacity:0.15;" points="261.342,282.167 261.342,283.004 221.994,260.286 222.716,259.867 
				222.716,259.86 			"/>
		</g>
		<path id="XMLID_312_" style="opacity:0.15;fill:none;stroke:#000000;stroke-width:0.7315;stroke-miterlimit:10;" d="
			M262.98,285.352c0,9.739,5.128,20.596,11.454,24.248c6.326,3.652,11.454-1.282,11.454-11.022c0-9.74-5.128-20.596-11.454-24.248
			C268.108,270.678,262.98,275.612,262.98,285.352z"/>
		<path id="XMLID_279_" style="opacity:0.5;fill:#FFFFFF;" d="M262.577,274.411c-0.599,1.228-1.076,2.657-1.394,4.275l-39.19-22.631
			l4.398-2.535L262.577,274.411z"/>
	</g>
</g>
<g id="Character">
	<g id="Character_13_">
		<g id="XMLID_972_">
			<path style="fill:#263238;" d="M411.957,385.041c0.152,1.368,0.339,5.208,7.299,6.165c6.96,0.957,11.345-1.346,13.201-4.695
				c1.855-3.349,1.43-6.078,1.727-9.179c0.297-3.101,2.86-4.752,3.596-6.349c1.085-2.352-0.501-6.014-0.501-6.014L411.957,385.041z"
				/>
			<path style="fill:#263238;" d="M361.168,374.136c-0.252,0.2-0.324,2.393,0.453,3.367c0.535,0.67,5.371,3.912,11.154,2.983
				c5.782-0.928,8.561-2.546,11.807-4.627c3.321-2.13,5.655-2.507,9.112-2.625c3.347-0.115,5.797-0.859,6.05-1.738
				c0.445-1.543,0.445-2.52-0.288-2.471L361.168,374.136z"/>
			<path id="XMLID_982_" style="fill:#FFA8A7;" d="M435.658,359.584c-0.872,6.344-13.178,5.833-12.176,0.765l-2.195-15.408
				l13.93,0.432L435.658,359.584z"/>
			<path style="fill:#37474F;" d="M412.461,381.877c0.616-1.143,2.411-2.79,3.201-3.82c4.128-5.385,6.728-11.65,7.238-18.463
				c0.028-0.374,0.075-1.098,0.446-1.322c0.393-0.236,0.751,0.09,1.15,0.264c0.008-0.006,0.013-0.012,0.021-0.018
				c0,0,0.003,0.02,0.004,0.03c0.499,0.215,1.187,0.456,2.155,0.564c2.466,0.275,5.193-0.316,5.809-0.231
				c0.478,0.066,0.626,1.548,0.587,3.152c0.877-0.555,1.164-1.654,1.952-2.296c0.425-0.346,0.613-0.357,0.604-0.928
				c-0.006-0.372-0.03-0.706-0.034-1.078c0.632-0.186,1.164,2.241,1.684,4.093c0.602,2.144,1.353,4.564,0.508,6.742
				c-0.471,1.212-1.249,2.275-1.963,3.362c-1.23,1.873-2.312,3.927-2.527,6.158c-0.094,0.978-0.019,1.969-0.158,2.941
				c-0.485,3.387-2.808,6.05-6.073,7.07c-4.244,1.326-10.617,1.118-14.357-1.85C411.399,385.206,411.845,383.02,412.461,381.877z"/>
			<path id="XMLID_981_" style="fill:#FFA8A7;" d="M396.616,358.519c-3.371,2.619-7.44,4.164-11.588,2.273l-0.97-25.934l13.969,2.51
				L396.616,358.519z"/>
			<path style="fill:#37474F;" d="M363.98,369.66c0.926-0.295,1.841-0.625,2.745-0.985c2.526-1.005,4.961-2.237,7.291-3.638
				c1.029-0.618,2.037-1.27,3.021-1.958c1.034-0.722,1.99-1.524,2.97-2.318c0.519-0.42,0.997-1.003,1.418-1.519
				c0.839-1.031,1.545-2.173,2.092-3.384c0.122-0.27,0.256-0.565,0.523-0.692c0.317-0.15,0.695-0.001,0.982,0.2
				c0.253,0.177,0.479,0.397,0.766,0.521c0.27,0.117,0.549,0.224,0.822,0.338c0.874,0.363,1.8,0.589,2.742,0.673
				c3.533,0.316,3.647-0.394,3.801,0.746c0.037,0.278,0.051,0.735,0.028,1.278c1.865-0.309,3.336-0.912,3.417-1.619l0.226-2.261
				c1.859-0.168,1.983,3.159,2.594,6.896c0.494,3.024,1.219,5.215,0.388,7.439c-2.812,2.456-7.77,1.86-10.596,2.327
				c-3.996,0.66-5.865,3.617-11.421,5.54c-8.956,3.099-14.612-0.475-16.291-2.034C360.387,373.225,360.165,370.876,363.98,369.66z"
				/>
			<path id="XMLID_973_" style="fill:#263238;" d="M431.729,205.178c0.707,10.986,1.998,27.115,2.447,39.822
				c0.844,23.885,0.515,51.107,0.515,51.107s2.32,8.54,2.573,15.307c0.57,15.257,0.462,49.519,0.462,49.519
				s-6.321,6.371-15.79,1.366c0,0-8.384-48.035-10.73-63.082c-2.237-14.345-6.607-43.037-6.607-43.037l-1.977,40.724
				c0,0,2.315,8.293,1.489,19.546c-0.513,6.988-4.503,41.508-4.503,41.508c-3.636,3.412-14.241,1.557-16.557-1.156
				c0,0-3.714-51.01-4.126-58.378c-0.891-15.938-3.261-75.342-2.076-84.568C378.033,204.629,431.729,205.178,431.729,205.178z"/>
			<path d="M404.599,256.18l-2.775-18.379c0,0-7.638-1.445-13.209-5.582c0,0,2.17,4.91,10.607,8.413l2.743,17.115l0.658,39.156
				L404.599,256.18z"/>
		</g>
		<g id="XMLID_543_">
			<path style="fill:#263238;" d="M420.187,131.426c0.509,2.071,4.031,1.754,5.562,1.366c1.893-0.48,3.296-2.165,3.063-4.121
				c0.796-0.242,1.531-0.646,2.045-1.252c0.86-1.013,0.722-2.315,0.144-3.412c1.251-0.944,2.024-2.489,1.741-4.046
				c-0.201-1.111-0.858-2.155-1.719-2.813c-0.732-0.559-2.091-1.23-3.067-1.092c-0.361,0.051-0.719,0.726-0.198,0.78
				c0.686,0.07,1.701,0.556,2.232,0.967c0.585,0.451,1.267,1.128,1.516,1.919c0.414,1.314-0.065,2.617-1.076,3.436
				c-0.192-0.23-0.395-0.447-0.614-0.628c-0.718-0.593-1.591-0.975-2.534-0.895c-0.653,0.055-1.458,0.342-1.673,1.034
				c-0.243,0.783,0.568,1.445,1.167,1.786c0.891,0.508,1.927,0.578,2.895,0.261c0.077-0.025,0.15-0.067,0.226-0.097
				c0.053,0.107,0.105,0.214,0.144,0.318c0.54,1.438-0.327,2.326-1.505,2.723c-0.703-1.464-2.625-2.535-4.166-1.768
				c-0.884,0.44-0.985,1.396-0.355,2.116c0.574,0.656,1.529,0.891,2.365,0.941c0.385,0.023,0.796,0.014,1.211-0.031
				c0.083,0.636-0.052,1.302-0.424,1.838c-0.648,0.932-1.844,1.152-2.904,1.231c-1.375,0.102-2.344-0.283-3.435-1.09
				C420.526,130.673,420.112,131.119,420.187,131.426z M429.319,123.745c-0.664,0.183-1.337,0.086-1.933-0.314
				c-0.42-0.281-0.881-0.691-0.137-0.746C428.029,122.628,428.774,123.114,429.319,123.745z M427.231,127.895
				c-0.445,0.019-0.883-0.017-1.265-0.114c-0.296-0.075-1.605-0.738-0.938-1.035c0.515-0.229,1.409,0.28,1.772,0.608
				C426.974,127.512,427.112,127.698,427.231,127.895z"/>
			<g id="XMLID_954_">
				<g>
					<path style="fill:#263238;" d="M422.62,92.748c0,0,0.252,0.035,0.648,0.135c-0.273-1.395,0.338-2.797,1.598-3.373
						c1.515-0.693,3.375,0.069,4.153,1.703l-4.526,2.07c1.204,0.482,2.679,1.364,3.445,2.94c1.241,2.551-0.395,7.986-2.049,14.698
						c-1.654,6.712-2.553,9.612-3.651,12.435c-0.759,1.954-2.126,2.015-2.126,2.015l0-6.696l0.288-5.55c0,0-3.563-4.865-3.954-8.852
						c-0.504-5.131,0.577-7.231,0.577-7.231L422.62,92.748z"/>
					<path style="fill:#263238;" d="M397.994,86.993c6.236,0.02,11.276,5.092,11.255,11.329c-0.02,6.237-5.092,11.276-11.329,11.255
						c-6.237-0.02-11.276-5.092-11.256-11.329C386.686,92.011,391.758,86.972,397.994,86.993z"/>
				</g>
				<path id="XMLID_986_" style="fill:#FFA8A7;" d="M420.192,112.24c1.339,1.161,2.428-1.843,3.554-3.015
					c1.126-1.171,4.797-2.764,6.612,1.094c1.85,3.932-1.681,9.273-4.424,10.545c-4.019,1.864-5.82-2.188-5.82-2.188v16.753
					c-4.233,7.625-13.387,5.842-17.714,6.91c-0.787-3.091-0.476-4.261-0.025-5.974l0.032-5.458c0,0-3.333,0.643-5.53,0.296
					c-3.655-0.577-5.614-3.588-6.711-7.55c-1.761-6.363-2.125-17.047,0.322-29.402c4.094-3.166,17.946-2.653,26.536,2.793
					C416.395,108,418.854,111.079,420.192,112.24z"/>
				<path id="XMLID_985_" style="fill:#F28F8F;" d="M402.407,130.905c0,0,8.168-1.618,11.026-3.125
					c1.913-1.009,3.492-2.764,3.958-3.89c0,0-0.543,2.42-2.256,4.596c-2.096,2.661-12.735,4.591-12.735,4.591L402.407,130.905z"/>
				<g>
					<path style="fill:#263238;" d="M384.89,105.626c0.037,0.75,0.504,1.463,0.75,1.758c0.123,0.16,0.233,0.369,0.295,0.627
						c0.27,1.193,0.467,3.455,1.008,4.721c0.541,1.279,1.684,3.308,4.992,3.443c0.652,0.037,1.217-0.012,1.722-0.111
						c0.049,0,0.098-0.012,0.135-0.025c0.541-0.111,1.008-0.295,1.414-0.516c0.024-0.025,0.061-0.037,0.086-0.049
						c0.037-0.025,0.074-0.049,0.123-0.074c0.025-0.025,0.061-0.049,0.147-0.111c0.049-0.025,0.098-0.062,0.135-0.098
						c0.061-0.037,0.111-0.074,0.16-0.123c0.049-0.037,0.098-0.074,0.147-0.123c0.098-0.086,0.184-0.172,0.283-0.271
						c0.492-0.516,0.861-1.143,1.156-1.771c0.763-1.623,0.615-3.934,1.82-4.168c0.049-0.012,0.098-0.012,0.147-0.025h0.16
						c1.635,0.062,1.401,2.558,2.274,4.365c0.873,1.808,2.361,3.59,5.902,3.701c0.16,0.012,0.307,0.012,0.455,0.012
						c0.123,0,0.246-0.012,0.369-0.025c0.307-0.012,0.59-0.049,0.848-0.098c0.099-0.025,0.185-0.037,0.271-0.061
						c0.086-0.012,0.172-0.037,0.258-0.062c0.061-0.012,0.111-0.037,0.16-0.049c0.369-0.123,0.689-0.271,0.971-0.43
						c0.111-0.074,0.221-0.135,0.332-0.209c0.197-0.148,0.381-0.307,0.553-0.479c0.553-0.541,0.885-1.144,1.107-1.648
						c0.578-1.23,0.774-3.467,1.069-4.635c0.074-0.307,0.172-0.529,0.283-0.676c0.234-0.332,0.787-0.91,0.824-1.66
						c0.037-0.762-0.48-1.426-0.959-1.5c-0.27-0.049-0.565-0.086-0.861-0.135c-2.791-0.393-6.431-0.615-8.619-0.062
						c-2.754,0.689-3.725,1.549-5.25,1.5c-1.414-0.062-2.324-0.996-4.906-1.894c-2.054-0.713-5.459-0.75-8.066-0.565
						c-0.283,0.012-0.541,0.037-0.812,0.062C385.333,104.212,384.853,104.876,384.89,105.626z M402.842,107.692
						c0.147-0.209,0.43-0.418,0.787-0.615c0.049-0.037,0.099-0.049,0.148-0.074c0.025-0.025,0.049-0.037,0.074-0.049
						c0.123-0.049,0.258-0.111,0.393-0.172c0.111-0.049,0.233-0.086,0.357-0.135c0.369-0.135,0.763-0.246,1.18-0.344
						c0.148-0.037,0.307-0.074,0.467-0.098c0.393-0.074,0.799-0.135,1.205-0.172c0.098,0,0.184-0.012,0.283-0.012
						c2.631-0.16,4.267,0.492,4.844,1.045c0.615,0.566,0.283,3,0.012,4.23c-0.012,0.025-0.012,0.062-0.025,0.086
						c0,0.037-0.012,0.062-0.025,0.098c-0.025,0.148-0.074,0.32-0.123,0.492c-0.025,0.098-0.049,0.209-0.086,0.307
						c0,0.012,0,0.012,0,0.012c-0.062,0.172-0.123,0.344-0.197,0.516c-0.012,0.062-0.049,0.123-0.074,0.172
						c-0.012,0.037-0.025,0.074-0.049,0.111c-0.012,0.037-0.037,0.074-0.049,0.111c-0.025,0.049-0.049,0.098-0.074,0.148
						c-0.037,0.062-0.062,0.111-0.098,0.16c-0.037,0.062-0.061,0.123-0.111,0.172c-0.037,0.061-0.074,0.123-0.111,0.172
						c-0.676,0.935-1.795,1.709-3.713,1.672c-1.906-0.049-3.099-0.725-3.861-1.562c-0.762-0.836-1.082-1.832-1.229-2.521
						C402.473,110.053,402.313,108.43,402.842,107.692z M387.386,106.106c0.148-0.135,0.356-0.283,0.652-0.394
						c0.012-0.012,0.025-0.025,0.049-0.025c0.086-0.037,0.184-0.074,0.283-0.111c0.062-0.012,0.123-0.037,0.172-0.049
						c0.049-0.012,0.099-0.025,0.148-0.037c0.037-0.012,0.074-0.012,0.099-0.025c0.012,0,0.025-0.012,0.037-0.012
						c0.049-0.012,0.099-0.012,0.148-0.025c0.184-0.037,0.394-0.074,0.603-0.086c0.111-0.012,0.221-0.025,0.332-0.025
						c0.062-0.012,0.135-0.012,0.197-0.012c0.049,0,0.111,0,0.16-0.012c0.135,0,0.27,0,0.418,0.012h0.148
						c0.049,0,0.098,0.012,0.147,0.012c0.381,0.025,0.787,0.062,1.218,0.135c1.869,0.307,3.812,1.217,4.303,2.004
						c0.504,0.775,0.356,2.373,0.086,3.75c-0.061,0.271-0.135,0.578-0.258,0.91c-0.012,0.025-0.025,0.049-0.025,0.074
						c-0.012,0.037-0.025,0.062-0.037,0.098c-0.012,0.012-0.012,0.037-0.025,0.061c-0.012,0.037-0.037,0.074-0.049,0.111
						c-0.037,0.074-0.074,0.147-0.111,0.221c-0.025,0.062-0.062,0.123-0.099,0.197c-0.012,0.012-0.025,0.037-0.037,0.062
						c-0.025,0.037-0.049,0.086-0.086,0.135c-0.013,0.025-0.037,0.062-0.074,0.111v0.012c-0.676,0.984-1.857,1.832-3.947,1.709
						c-0.787-0.037-1.439-0.234-1.967-0.516c-1.844-0.983-2.275-3.086-2.484-4.057C387.128,109.081,386.821,106.622,387.386,106.106
						z"/>
					<path style="fill:#263238;" d="M414.104,105.299l11.955,2.689c0,0-1.443,0.247-2.752,1.775l-9.212-1.746L414.104,105.299z"/>
					<path style="fill:#37474F;" d="M387.386,110.336c0.209,0.971,0.639,3.074,2.484,4.057c0.529,0.283,1.18,0.48,1.967,0.516
						c2.09,0.123,3.271-0.725,3.947-1.709v-0.012c0.037-0.049,0.061-0.086,0.074-0.111c0.037-0.049,0.061-0.098,0.086-0.135
						c0.012-0.025,0.025-0.049,0.037-0.062c0.037-0.074,0.074-0.135,0.099-0.197c0.037-0.074,0.074-0.147,0.111-0.221
						c0.012-0.037,0.037-0.074,0.049-0.111c0.012-0.025,0.012-0.049,0.025-0.061c0.012-0.037,0.025-0.062,0.037-0.098
						c0-0.024,0.012-0.049,0.025-0.074c0.123-0.332,0.197-0.639,0.258-0.91c0.27-1.377,0.418-2.976-0.086-3.75
						c-0.492-0.787-2.435-1.697-4.303-2.004c-0.43-0.074-0.836-0.111-1.218-0.135c-0.049,0-0.098-0.012-0.147-0.012h-0.148
						c-0.147-0.012-0.283-0.012-0.418-0.012c-0.049,0.012-0.111,0.012-0.16,0.012c-0.061,0-0.135,0-0.197,0.012
						c-0.111,0-0.221,0.012-0.332,0.025c-0.209,0.012-0.418,0.049-0.603,0.086c-0.049,0.012-0.098,0.012-0.148,0.025
						c-0.012,0-0.025,0.012-0.037,0.012c-0.025,0.012-0.061,0.012-0.099,0.025c-0.049,0.012-0.098,0.025-0.148,0.037
						c-0.049,0.012-0.11,0.037-0.172,0.049c-0.098,0.037-0.197,0.074-0.283,0.111c-0.025,0-0.037,0.012-0.049,0.025
						c-0.295,0.111-0.504,0.258-0.652,0.394C386.821,106.622,387.128,109.081,387.386,110.336z"/>
					<path style="fill:#37474F;" d="M402.768,111.442c0.147,0.688,0.467,1.685,1.229,2.521c0.762,0.836,1.955,1.512,3.861,1.562
						c1.918,0.037,3.037-0.738,3.713-1.672c0.037-0.049,0.074-0.111,0.111-0.172c0.049-0.049,0.074-0.111,0.111-0.172
						c0.037-0.049,0.061-0.098,0.098-0.16c0.025-0.049,0.049-0.098,0.074-0.148c0.012-0.037,0.037-0.074,0.049-0.111
						c0.025-0.037,0.037-0.074,0.049-0.111c0.025-0.049,0.062-0.111,0.074-0.172c0.074-0.172,0.135-0.344,0.197-0.516
						c0,0,0,0,0-0.012c0.037-0.098,0.062-0.209,0.086-0.307c0.049-0.172,0.098-0.344,0.123-0.492
						c0.012-0.037,0.025-0.062,0.025-0.098c0.012-0.025,0.012-0.062,0.025-0.086c0.271-1.229,0.602-3.664-0.012-4.23
						c-0.578-0.553-2.213-1.205-4.844-1.045c-0.098,0-0.185,0.012-0.283,0.012c-0.406,0.037-0.811,0.098-1.205,0.172
						c-0.16,0.025-0.32,0.062-0.467,0.098c-0.418,0.098-0.811,0.209-1.18,0.344c-0.123,0.049-0.246,0.086-0.357,0.135
						c-0.135,0.061-0.271,0.123-0.393,0.172c-0.025,0.012-0.049,0.024-0.074,0.049c-0.049,0.025-0.098,0.037-0.148,0.074
						c-0.357,0.197-0.639,0.406-0.787,0.615C402.313,108.43,402.473,110.053,402.768,111.442z"/>
				</g>
				<path style="fill:#263238;" d="M387.708,85.515c0.015-0.138,0.033-0.275,0.052-0.412c0.037-0.254,0.09-0.523,0.268-0.708
					c0.551-0.573,1.65,0.864,2.043,1.2c0.377,0.321,0.763,0.633,1.171,0.915c0.13,0.09,1.089,0.559,1.099,0.655
					c-0.146-1.359-0.347-2.757-0.007-4.117c0.161-0.901,0.417-2.987,1.532-3.211c0.664-0.133,1.243,0.422,1.737,0.885
					c4.469,4.183,10.304,2.247,15.689,2.419c4.502,0.144,9.936,1.976,11.969,6.355c0.93,2.003,1.09,4.114-0.749,5.499
					c-1.187,0.894-2.348,0.852-3.012,2.282c-0.163,0.351-1.192,4.613-0.585,4.57c-2.296,0.162-4.489-1.189-5.018-3.429
					c-0.11-0.466-0.361-1.314-0.464-1.793c-0.151-0.707-0.737-0.897-1.286-0.779c-1.365,0.294-2.256,0.853-3.55,1.207
					c-3.499,0.959-7.78,1.389-11.336,0.669c-2.669-0.541-5.248-1.825-7.123-3.823C388.091,91.713,387.387,88.453,387.708,85.515z"/>
			</g>
			<g id="XMLID_920_">
				<path id="XMLID_944_" style="fill:#263238;" d="M405.284,103.09l3.95,0.613c0.14-1.121-0.632-2.168-1.722-2.337
					C406.42,101.197,405.423,101.969,405.284,103.09z"/>
				<path id="XMLID_929_" style="fill:#F28F8F;" d="M404.358,121.472l-3.327,0.864c0.22,0.951,1.143,1.528,2.062,1.29
					C404.013,123.387,404.579,122.423,404.358,121.472z"/>
				<path id="XMLID_928_" style="fill:#263238;" d="M390.299,103.315l4.004-0.439c-0.08-1.119-1.042-1.928-2.147-1.807
					C391.049,101.191,390.218,102.196,390.299,103.315z"/>
				<path id="XMLID_922_" style="fill:#F28F8F;" d="M400.042,108.817l-0.54,9.332l-5.2-1.358l5.184-8.077
					C399.667,108.703,399.852,108.74,400.042,108.817z"/>
			</g>
			<g>
				<path style="fill:#263238;" d="M422.344,115.298c0,1.343,1.089,2.432,2.432,2.432c1.343,0,2.432-1.089,2.432-2.432
					c0-1.343-1.089-2.432-2.432-2.432C423.433,112.867,422.344,113.955,422.344,115.298z"/>
				<path style="fill:#263238;" d="M422.079,110.85c0.232-0.673,0.57-1.451,1.079-1.964c0.438-0.443,1.286-0.768,1.931-0.66
					c0.034,0.006,0.067,0.085,0.031,0.106c-0.266,0.161-0.462,0.244-0.726,0.433c-0.258,0.184-0.537,0.396-0.748,0.632
					c-0.199,0.223-0.349,0.49-0.468,0.76c-0.131,0.297-0.262,0.709-0.281,1.034c-0.039,0.652,0,1.066,0.234,1.603
					c0.121,0.277,0.253,0.538,0.459,0.762c0.177,0.192,0.424,0.357,0.538,0.596c0.148,0.309-0.276,0.835-0.613,0.655
					c-0.65-0.348-1.057-1.02-1.322-1.683C421.894,112.376,421.813,111.621,422.079,110.85z"/>
			</g>
		</g>
		<g>
			<path style="fill:#455A64;" d="M387.422,144.074c-3.383,2.211-8.048,5.095-9.188,8.222s-4.43,21.282-4.796,27.13
				c0,0,4.921,2.396,9.504,2.68L387.422,144.074z"/>
			<g>
				<path style="fill:#37474F;" d="M427.351,135.424c8.562,4.692,17.044,11.717,18.819,14.418c0,0-5.011,16.673-9.409,24.58
					c-4.398,7.907-6.766,31.301-6.766,31.301s-30.162,10.01-39.615,10.789c-9.453,0.779-10.652-3.232-10.652-3.232
					s-0.197-26.145,1.973-43.601c2.17-17.455,1.721-22.64,5.72-25.605c2.586-1.917,13.746-6.754,13.746-6.754s0,2.286,0,5.018
					C407.302,142.436,427.351,135.424,427.351,135.424z"/>
				<path style="fill:#27DEBF;" d="M398.85,145.014c0,0-0.818-1.408-0.642-3.645l2.519-1.832l0.043,3.178L398.85,145.014z"/>
				<path style="opacity:0.25;" d="M398.85,145.014c0,0-0.818-1.408-0.642-3.645l2.519-1.832l0.043,3.178L398.85,145.014z"/>
				<polygon style="fill:#27DEBF;" points="403.746,143.074 410.273,139.351 415.165,143.234 405.268,147.342 				"/>
				<polygon style="opacity:0.25;" points="403.746,143.074 410.273,139.351 415.165,143.234 405.268,147.342 				"/>
				<path style="fill:#455A64;" d="M420.114,128.341l0,1.315c-0.25,1.253-2.711,4.149-8.92,6.936
					c-6.32,2.836-8.794,5.746-8.794,5.746s2.352-0.01,4.923,0.911c2.826,1.012,7.524,4.597,8.865,4.563
					c1.305-0.033,3.188-3.739,6.706-7.428c2.956-3.1,4.457-4.96,4.457-4.96S422.526,128.368,420.114,128.341z"/>
				<path style="fill:#455A64;" d="M402.4,142.338c-2.246,0.254-4.355,1.813-4.905,0.988c-0.55-0.825,1.358-8.34,4.89-10.625
					L402.4,142.338z"/>
			</g>
			<g>
				<path style="fill:#F28F8F;" d="M380.604,181.798c0,0-0.276,4.673-0.348,6.269c-0.072,1.596,2.608,29.023,2.608,29.023
					l-9.427,3.984c0,0-1.136-10.559-1.507-16.445c-0.371-5.886,0.071-13.13,0.812-18.133c0.741-5.004,1.016-6.919,1.016-6.919
					C376.289,180.747,378.613,181.32,380.604,181.798z"/>
				<g>
					<path style="fill:#FFA8A7;" d="M374.197,234.457c0,0-0.011,0.424,0.008,2.02c0.019,1.596,0.981,6.307,1.571,7.783
						c0.591,1.477,2.025,4.725,2.743,5.105c0.84,0.445,1.405,0.493,2.301,0.41c1.494-0.139,3.053,0.63,4.462-0.046
						c0.551-0.264,1.07-0.617,1.664-0.759c0.879-0.21,1.878,0.051,2.656-0.408c0.497-0.293,0.808-0.833,1.301-1.133
						c0.721-0.439,1.669-0.279,2.437-0.631c0.617-0.283,1.053-0.878,1.268-1.522c0.442-1.321,0.011-2.804-0.259-4.125
						c0,0,0.633-0.717,0.675-2.236c0.042-1.519-0.253-4.093-0.591-5.063c-0.337-0.97-7.173-4.894-7.173-4.894l-1.35-0.886
						c0,0-4.43-1.181-8.396,1.35C373.548,231.955,374.197,234.457,374.197,234.457z"/>
					<path style="fill:#F28F8F;" d="M376.046,234.271c-1.807,3.012-0.745,8.406-0.738,8.47c-0.57-2.054-1.089-5.039-1.104-6.263
						c-0.019-1.596-0.008-2.02-0.008-2.02s-0.649-2.502,3.317-5.034c3.966-2.532,8.396-1.35,8.396-1.35
						S377.863,231.242,376.046,234.271z"/>
					<path style="fill:#F28F8F;" d="M394.348,241.153c-0.548-1.856-2.152-4.661-2.911-5.368c-0.759-0.707-1.392-1.593-0.633-1.298
						c0.759,0.295,1.814,0.474,2.236-0.058c0.422-0.532,0.506,0.396,0.042,1.113c-0.464,0.717-0.084,1.266,0.464,2.447
						C394.095,239.17,394.226,240.486,394.348,241.153z"/>
				</g>
			</g>
			<g>
				<path style="fill:#FFA8A7;" d="M443.555,150.174c2.851,0.981,3.232,8.797,2.614,15.792c-0.618,6.995-6.076,23.553-8.567,29.316
					c-2.794,6.464-4.487,10.2-6.344,12.231c-1.858,2.031-5.748,3.693-10.725,6.273c-4.508,2.337-7.587,3.514-15.26,5.896
					c-8.659,2.688-11.982,2.853-13.84,4.139s-2.364,4.094-4.174,5.139l-1.35-0.886c-2.353,0.474-6.286,2.043-8.613,3.594
					c-2.205,1.47-3.101,2.79-3.101,2.79l0.008,2.02c0,0-2.194,0.928-4.052-3.013s-2.715-9.799-0.572-12.372
					c2.143-2.572,8.915-6.051,14.389-7.813c5.474-1.762,8.231-3.52,14.652-7.401c6.84-4.134,11.585-6.882,14.965-8.74
					c1.297-0.746,2.166-1.661,2.744-4.045c0.457-1.887,1.833-7.448,2.674-11.624C420.401,174.533,423.41,153.395,443.555,150.174z"
					/>
				<path style="fill:#455A64;" d="M446.17,149.842c0,0,1.327,0.233,1.512,5.766c0.185,5.534-0.035,11.438-0.756,15.688
					c-0.721,4.251-4.969,16.809-4.969,16.809s-12.271,4.025-24.83-0.777c0,0,2.955-18.099,4.063-22.9
					C422.298,159.626,437.824,144.821,446.17,149.842z"/>
			</g>
			<g>
				<path style="fill:#27DEBF;" d="M402.753,150.202c-0.699,4.496-1.668,15.189-1.668,30.278c0,3.7-5.398,11.207-6.668,11.048
					c-1.27-0.16-3.599-7.22-3.929-11.317c0.512-9.919,6.509-25.311,9.129-30.567L402.753,150.202z"/>
				<path style="opacity:0.15;" d="M399.418,150.072c0.067-0.149,0.134-0.297,0.199-0.427l3.136,0.558c0,0-0.188,1.318-0.188,1.318
					C401.277,151.449,399.833,150.558,399.418,150.072z"/>
				<path style="fill:#27DEBF;" d="M403.746,143.074c-1.346-0.361-2.976-0.361-2.976-0.361s-1.177,0.851-1.92,2.3
					c0,0-0.166,2.787,0.766,4.631c0,0,1.158,0.976,3.136,0.558c0,0,1.876-1.133,2.515-2.86
					C405.471,145.83,404.416,143.564,403.746,143.074z"/>
			</g>
		</g>
	</g>
</g>
</svg>
