<?xml version="1.0" encoding="utf-8"?>
<!-- Generator: Adobe Illustrator 27.5.0, SVG Export Plug-In . SVG Version: 6.00 Build 0)  -->
<svg version="1.1" xmlns="http://www.w3.org/2000/svg" xmlns:xlink="http://www.w3.org/1999/xlink" x="0px" y="0px"
	 viewBox="0 0 500 500" style="enable-background:new 0 0 500 500;" xml:space="preserve">
<g id="Background_Simple">
	<g>
		<path style="fill:#C6FF00;" d="M429.839,253.515c-3.386-26.972-11.865-53.078-22.044-71.763
			c-24.467-44.911-92.633-74.956-144.045-67.186c-43.813,6.621-64.865,46.591-104.364,60.464
			c-36.339,12.763-69.052,22.614-86.188,56.277c-36.203,71.12,52.516,148.878,128.545,142.812
			c23.995-1.914,45.433-11.144,70.063-6.814c49.964,8.785,66.599,18.24,110.763,0.652
			C426.085,350.626,435.769,300.744,429.839,253.515z"/>
		<path style="opacity:0.8;fill:#FFFFFF;" d="M429.839,253.515c-3.386-26.972-11.865-53.078-22.044-71.763
			c-24.467-44.911-92.633-74.956-144.045-67.186c-43.813,6.621-64.865,46.591-104.364,60.464
			c-36.339,12.763-69.052,22.614-86.188,56.277c-36.203,71.12,52.516,148.878,128.545,142.812
			c23.995-1.914,45.433-11.144,70.063-6.814c49.964,8.785,66.599,18.24,110.763,0.652
			C426.085,350.626,435.769,300.744,429.839,253.515z"/>
	</g>
</g>
<g id="Device">
	<g>
		
			<polyline id="XMLID_203_" style="fill:#FFFFFF;stroke:#263238;stroke-width:0.75;stroke-linecap:round;stroke-linejoin:round;stroke-miterlimit:10;" points="
			254.913,389.432 212.257,293.934 315.612,293.934 443.057,378 		"/>
		
			<polygon id="XMLID_1_" style="fill:#263238;stroke:#263238;stroke-width:0.75;stroke-linecap:round;stroke-linejoin:round;stroke-miterlimit:10;" points="
			244.333,385.667 212.257,300.301 212.257,293.934 257.627,393.885 		"/>
		<g id="XMLID_188_">
			
				<polygon id="XMLID_186_" style="fill:#FFFFFF;stroke:#263238;stroke-width:0.75;stroke-linecap:round;stroke-linejoin:round;stroke-miterlimit:10;" points="
				271.35,297.875 315.309,349.414 261.951,361.844 231.634,304.242 			"/>
			
				<polygon id="XMLID_187_" style="fill:#263238;stroke:#263238;stroke-width:0.75;stroke-linecap:round;stroke-linejoin:round;stroke-miterlimit:10;" points="
				261.951,361.844 261.951,363.36 314.4,352.749 315.309,349.414 			"/>
			<g id="XMLID_189_">
				<polygon id="XMLID_190_" style="fill:#263238;" points="269.694,316.422 271.935,319.736 277.664,318.188 275.276,314.948 				
					"/>
				<polygon id="XMLID_191_" style="fill:#263238;" points="291.341,336.734 288.62,333.045 282.122,334.804 284.663,338.562 				
					"/>
				<polygon id="XMLID_192_" style="fill:#263238;" points="265.016,309.502 266.688,311.975 272.073,310.605 270.384,308.315 				
					"/>
				<polygon id="XMLID_193_" style="fill:#263238;" points="275.382,324.835 278.465,329.394 284.749,327.795 281.352,323.188 				
					"/>
				<polygon id="XMLID_245_" style="fill:#263238;" points="291.67,326.972 286.283,328.343 288.983,332.004 294.469,330.519 				
					"/>
				<polygon id="XMLID_246_" style="fill:#263238;" points="279.006,330.194 281.583,334.007 288.041,332.259 285.331,328.585 				
					"/>
				<polygon id="XMLID_247_" style="fill:#263238;" points="258.926,310.848 260.586,313.528 265.751,312.213 264.061,309.713 				
					"/>
				<polygon id="XMLID_248_" style="fill:#263238;" points="272.474,320.533 274.845,324.04 280.774,322.405 278.244,318.973 				
					"/>
				<polygon id="XMLID_249_" style="fill:#263238;" points="267.229,312.775 269.155,315.624 274.695,314.161 272.655,311.395 				
					"/>
				<polygon id="XMLID_250_" style="fill:#263238;" points="255.591,319.205 253.907,316.166 247.78,317.725 249.493,320.815 				
					"/>
				<polygon id="XMLID_251_" style="fill:#263238;" points="246.783,326.534 250.993,325.397 249.041,321.875 244.896,322.969 				
					"/>
				<polygon id="XMLID_252_" style="fill:#263238;" points="257.105,307.909 258.418,310.029 263.513,308.902 262.145,306.879 				
					"/>
				<polygon id="XMLID_253_" style="fill:#263238;" points="253.452,315.343 251.831,312.417 245.601,313.794 247.324,316.903 				
					"/>
				<polygon id="XMLID_254_" style="fill:#263238;" points="251.058,309.145 252.298,311.382 257.477,310.237 256.155,308.103 				
					"/>
				<polygon id="XMLID_255_" style="fill:#263238;" points="242.354,318.168 246.413,317.135 244.674,313.999 240.621,314.895 				
					"/>
				<polygon id="XMLID_256_" style="fill:#263238;" points="243.841,310.62 245.141,312.964 251.371,311.587 250.124,309.336 				
					"/>
				<polygon id="XMLID_257_" style="fill:#263238;" points="263.407,318.082 265.508,321.473 271.007,319.987 268.763,316.668 				
					"/>
				<polygon id="XMLID_258_" style="fill:#263238;" points="277.528,329.633 274.457,325.09 268.728,326.669 271.512,331.163 				
					"/>
				<polygon id="XMLID_259_" style="fill:#263238;" points="252.757,312.212 254.363,315.112 259.662,313.763 257.985,311.056 				
					"/>
				<polygon id="XMLID_260_" style="fill:#263238;" points="253.957,330.743 249.641,331.933 251.879,336.159 256.332,335.026 				
					"/>
				<polygon id="XMLID_261_" style="fill:#263238;" points="266.008,322.28 268.229,325.864 273.92,324.295 271.546,320.783 				"/>
				<polygon id="XMLID_262_" style="fill:#263238;" points="261.987,317.516 260.164,314.573 254.819,315.934 256.498,318.966 				
					"/>
				<polygon id="XMLID_263_" style="fill:#263238;" points="272.021,348.868 265.909,350.426 268.092,354.362 274.224,352.846 				
					"/>
				<polygon id="XMLID_264_" style="fill:#263238;" points="262.558,305.866 267.79,304.797 264.976,300.98 259.829,301.83 				"/>
				<polygon id="XMLID_265_" style="fill:#263238;" points="249.663,308.502 247.129,303.927 240.717,304.985 243.379,309.786 				
					"/>
				<polygon id="XMLID_266_" style="fill:#263238;" points="257.975,323.509 256.045,320.025 249.948,321.635 251.897,325.152 				
					"/>
				<polygon id="XMLID_267_" style="fill:#263238;" points="273.551,336.181 271.09,332.209 264.729,333.827 267.013,337.95 				"/>
				<polygon id="XMLID_268_" style="fill:#263238;" points="270.588,331.398 267.814,326.921 261.82,328.574 264.274,333.005 				
					"/>
				<polygon id="XMLID_269_" style="fill:#263238;" points="280.655,334.258 278.069,330.433 272.014,331.974 274.467,335.933 				
					"/>
				<polygon id="XMLID_270_" style="fill:#263238;" points="264.592,321.721 262.488,318.324 256.952,319.786 258.879,323.265 				
					"/>
				<polygon id="XMLID_271_" style="fill:#263238;" points="261.088,314.338 262.906,317.273 268.223,315.87 266.292,313.014 				
					"/>
				<polygon id="XMLID_272_" style="fill:#263238;" points="267.315,326.116 265.092,322.528 259.333,324.084 261.367,327.756 				
					"/>
				<polygon id="XMLID_273_" style="fill:#263238;" points="283.737,338.816 281.194,335.055 274.967,336.74 277.338,340.567 				
					"/>
				<polygon id="XMLID_274_" style="fill:#263238;" points="279.628,345.989 276.923,341.624 270.085,343.495 272.476,347.813 				
					"/>
				<polygon id="XMLID_275_" style="fill:#263238;" points="259.135,340.082 256.787,335.848 252.316,336.986 254.605,341.308 				
					"/>
				<polygon id="XMLID_276_" style="fill:#263238;" points="251.447,326.216 247.219,327.359 249.205,331.11 253.503,329.925 				
					"/>
				<polygon id="XMLID_277_" style="fill:#263238;" points="271.565,348.045 269.182,343.743 263.124,345.401 265.454,349.604 				
					"/>
				<polygon id="XMLID_278_" style="fill:#263238;" points="260.465,328.005 258.429,324.329 252.352,325.971 254.406,329.676 				
					"/>
				<polygon id="XMLID_279_" style="fill:#263238;" points="263.109,306.682 264.468,308.691 269.794,307.514 268.385,305.603 				
					"/>
				<polygon id="XMLID_280_" style="fill:#263238;" points="240.18,314.061 244.214,313.169 242.907,310.811 238.893,311.631 				
					"/>
				<polygon id="XMLID_281_" style="fill:#263238;" points="256.594,307.085 261.594,306.064 258.841,301.993 253.941,302.802 				
					"/>
				<polygon id="XMLID_282_" style="fill:#263238;" points="250.597,308.311 255.645,307.28 252.97,302.962 248.081,303.77 				"/>
				<polygon id="XMLID_283_" style="fill:#263238;" points="248.586,321.055 246.868,317.957 242.791,318.995 244.459,322.144 				
					"/>
				<polygon id="XMLID_284_" style="fill:#263238;" points="268.772,304.596 273.285,303.674 270.447,300.077 265.983,300.814 				
					"/>
				<polygon id="XMLID_285_" style="fill:#263238;" points="242.444,309.977 239.764,305.143 235.804,305.796 238.45,310.794 				
					"/>
				<polygon id="XMLID_286_" style="fill:#263238;" points="264.998,350.658 260.202,351.881 262.276,355.799 267.177,354.588 				
					"/>
				<polygon id="XMLID_287_" style="fill:#263238;" points="287.811,344.841 281.054,346.564 283.522,350.548 290.503,348.822 				
					"/>
				<polygon id="XMLID_288_" style="fill:#263238;" points="280.13,346.8 272.932,348.635 275.139,352.62 282.594,350.777 				"/>
				<polygon id="XMLID_289_" style="fill:#263238;" points="295.814,342.8 288.747,344.602 291.443,348.59 298.751,346.783 				"/>
				<polygon id="XMLID_290_" style="fill:#263238;" points="302.762,341.029 296.765,342.558 299.706,346.547 305.907,345.014 				
					"/>
				<polygon id="XMLID_291_" style="fill:#263238;" points="262.22,345.648 257.576,346.92 259.764,351.055 264.542,349.836 				"/>
				<polygon id="XMLID_292_" style="fill:#263238;" points="276.424,340.818 274.051,336.988 267.467,338.77 269.632,342.677 				
					"/>
				<polygon id="XMLID_293_" style="fill:#263238;" points="287.27,344.041 284.275,339.611 277.837,341.373 280.551,345.754 				
					"/>
				<polygon id="XMLID_294_" style="fill:#263238;" points="268.729,342.924 266.563,339.014 260.493,340.657 262.67,344.583 				
					"/>
				<polygon id="XMLID_295_" style="fill:#263238;" points="257.14,346.097 261.767,344.83 259.589,340.902 255.041,342.133 				"/>
				<polygon id="XMLID_296_" style="fill:#263238;" points="263.363,333.237 260.918,328.823 254.859,330.494 257.243,334.794 				
					"/>
				<polygon id="XMLID_297_" style="fill:#263238;" points="295.231,342.01 291.919,337.518 285.201,339.357 288.206,343.802 				
					"/>
				<polygon id="XMLID_298_" style="fill:#263238;" points="266.109,338.195 263.818,334.059 257.699,335.616 260.039,339.837 				
					"/>
				<polygon id="XMLID_299_" style="fill:#263238;" points="282.291,322.929 285.701,327.553 291.053,326.191 287.374,321.528 				
					"/>
				<polygon id="XMLID_300_" style="fill:#263238;" points="275.641,313.911 280.376,312.66 278.253,309.97 273.607,311.152 				"/>
				<polygon id="XMLID_301_" style="fill:#263238;" points="271.356,308.1 273.024,310.363 277.637,309.189 275.973,307.08 				"/>
				<polygon id="XMLID_302_" style="fill:#263238;" points="302.145,340.247 298.558,335.701 292.859,337.261 296.182,341.768 				
					"/>
				<polygon id="XMLID_303_" style="fill:#263238;" points="276.221,314.698 278.607,317.933 283.494,316.612 280.991,313.439 				
					"/>
				<polygon id="XMLID_304_" style="fill:#263238;" points="289.562,332.79 292.281,336.477 297.946,334.926 295.082,331.296 				
					"/>
				<polygon id="XMLID_305_" style="fill:#263238;" points="270.765,307.299 275.347,306.286 273.916,304.473 269.367,305.403 				
					"/>
				<polygon id="XMLID_306_" style="fill:#263238;" points="281.713,322.146 286.762,320.753 284.107,317.388 279.186,318.718 				
					"/>
			</g>
		</g>
		<g>
			
				<path id="XMLID_195_" style="fill:#FFFFFF;stroke:#263238;stroke-width:0.75;stroke-linecap:round;stroke-linejoin:round;stroke-miterlimit:10;" d="
				M322.282,303.635v8.186c0,0-1.213,1.213-2.729,2.122c-1.516,0.909-13.946,3.032-13.946,3.032l15.765,17.281
				c0,0,14.444-1.571,18.493-2.728c4.244-1.213,3.335-16.674,3.335-16.674L322.282,303.635z"/>
			
				<path style="fill:#263238;stroke:#263238;stroke-width:0.75;stroke-linecap:round;stroke-linejoin:round;stroke-miterlimit:10;" d="
				M322.282,303.635v8.186c0,0-0.223,0.22-0.584,0.536l18.429,19.065c3.941-1.768,3.073-16.569,3.073-16.569L322.282,303.635z"/>
			
				<polygon id="XMLID_183_" style="fill:#FFFFFF;stroke:#263238;stroke-width:0.75;stroke-linecap:round;stroke-linejoin:round;stroke-miterlimit:10;" points="
				294.39,199.042 294.39,285.749 360.481,337.893 360.481,203.893 			"/>
			
				<polygon id="XMLID_184_" style="fill:#C6FF00;stroke:#263238;stroke-width:0.75;stroke-linecap:round;stroke-linejoin:round;stroke-miterlimit:10;" points="
				298.938,203.59 298.938,276.653 354.418,310.911 354.418,208.44 			"/>
			
				<rect id="XMLID_185_" x="360.481" y="203.893" style="fill:#263238;stroke:#263238;stroke-width:0.75;stroke-linecap:round;stroke-linejoin:round;stroke-miterlimit:10;" width="6.67" height="134.033"/>
			
				<polygon id="XMLID_197_" style="fill:#FFFFFF;stroke:#263238;stroke-width:0.75;stroke-linecap:round;stroke-linejoin:round;stroke-miterlimit:10;" points="
				302.576,208.137 302.879,273.319 349.264,299.694 349.264,218.98 317.431,214.163 315.309,209.653 			"/>
			
				<polygon id="XMLID_200_" style="fill:#C6FF00;stroke:#263238;stroke-width:0.75;stroke-linecap:round;stroke-linejoin:round;stroke-miterlimit:10;" points="
				305.608,216.02 305.608,271.5 346.535,293.328 346.535,223.296 			"/>
			<g id="XMLID_196_">
				<path id="XMLID_194_" style="fill:#263238;" d="M336.236,258.602c0-8.037-5.158-15.836-11.52-17.42
					c-6.363-1.584-11.52,3.648-11.52,11.685c0,8.037,5.158,15.836,11.52,17.42C331.078,271.871,336.236,266.639,336.236,258.602z"/>
				<path id="XMLID_201_" style="fill:#FFFFFF;" d="M325.925,256.67l3.888-4.312c0.542-0.601,0.509-1.76-0.073-2.589
					c-0.581-0.828-1.493-1.012-2.035-0.413l-3.746,4.154l-3.746-6.019c-0.541-0.869-1.452-1.138-2.035-0.6
					c-0.583,0.54-0.616,1.682-0.074,2.553l3.888,6.247l-3.888,4.312c-0.542,0.601-0.509,1.76,0.074,2.589
					c0.277,0.395,0.629,0.643,0.98,0.731c0.386,0.096,0.771-0.003,1.055-0.318l3.746-4.154l3.746,6.019
					c0.284,0.456,0.668,0.747,1.055,0.843c0.351,0.087,0.703,0.014,0.98-0.243c0.583-0.539,0.615-1.682,0.073-2.553L325.925,256.67z
					"/>
			</g>
			
				<line id="XMLID_198_" style="fill:none;stroke:#263238;stroke-width:0.75;stroke-linecap:round;stroke-linejoin:round;stroke-miterlimit:10;" x1="312.884" y1="234.816" x2="335.805" y2="241.549"/>
			
				<line id="XMLID_199_" style="fill:none;stroke:#263238;stroke-width:0.75;stroke-linecap:round;stroke-linejoin:round;stroke-miterlimit:10;" x1="311.974" y1="228.449" x2="341.681" y2="236.741"/>
		</g>
		<g>
			
				<path style="fill:#FFFFFF;stroke:#263238;stroke-width:0.75;stroke-linecap:round;stroke-linejoin:round;stroke-miterlimit:10;" d="
				M332.448,371.305c0,0-14.484,1.341-19.849,5.633c-5.364,4.292-1.341,6.437,3.755,7.778c5.096,1.341,27.895-0.805,30.846-3.755
				C350.151,378.011,347.2,370.769,332.448,371.305z"/>
			
				<path style="fill:#263238;stroke:#263238;stroke-width:0.75;stroke-linecap:round;stroke-linejoin:round;stroke-miterlimit:10;" d="
				M347.2,380.961c0.573-0.573,0.92-1.309,1.005-2.117c-6.497-0.323-14.977,1.558-22.731,3.995
				c-3.178,0.999-5.821,1.654-7.944,2.091C324.266,385.781,344.437,383.724,347.2,380.961z"/>
		</g>
		<g>
			
				<line style="fill:none;stroke:#263238;stroke-linecap:round;stroke-linejoin:round;stroke-miterlimit:10;" x1="281.083" y1="212.163" x2="291.667" y2="217.667"/>
			
				<line style="fill:none;stroke:#263238;stroke-linecap:round;stroke-linejoin:round;stroke-miterlimit:10;" x1="275" y1="209" x2="278.154" y2="210.64"/>
			
				<line style="fill:none;stroke:#263238;stroke-linecap:round;stroke-linejoin:round;stroke-miterlimit:10;" x1="283.413" y1="239.919" x2="287" y2="240.333"/>
			
				<line style="fill:none;stroke:#263238;stroke-linecap:round;stroke-linejoin:round;stroke-miterlimit:10;" x1="269.667" y1="238.333" x2="279.348" y2="239.45"/>
			
				<line style="fill:none;stroke:#263238;stroke-linecap:round;stroke-linejoin:round;stroke-miterlimit:10;" x1="285.667" y1="265.667" x2="273.667" y2="269"/>
		</g>
	</g>
</g>
<g id="Clock">
	<g>
		<path style="fill:#263238;" d="M270.182,119.029c-15.851,0-28.701,12.85-28.701,28.701c0,15.851,12.85,28.701,28.701,28.701
			c15.851,0,28.701-12.85,28.701-28.701C298.883,131.879,286.033,119.029,270.182,119.029z M270.182,170.793
			c-12.737,0-23.063-10.326-23.063-23.063c0-12.738,10.326-23.063,23.063-23.063c12.738,0,23.063,10.326,23.063,23.063
			C293.245,160.468,282.919,170.793,270.182,170.793z"/>
		<path style="fill:#263238;" d="M272.232,147.73c0,1.132-0.918,2.05-2.05,2.05c-1.132,0-2.05-0.918-2.05-2.05
			c0-1.132,0.918-2.05,2.05-2.05C271.314,145.68,272.232,146.598,272.232,147.73z"/>
		<polyline style="fill:none;stroke:#263238;stroke-linecap:round;stroke-linejoin:round;stroke-miterlimit:10;" points="
			263.305,158.139 270.182,147.73 281.789,157.335 		"/>
	</g>
</g>
<g id="File_Cabinet">
	<g>
		<g>
			<polyline style="fill:#C6FF00;" points="117.884,169.729 114.434,160.299 116.274,162.369 116.274,159.148 120.184,165.129 
				116.734,143.738 121.334,155.468 121.794,145.118 122.484,148.568 123.404,136.837 125.014,154.778 127.314,148.568 
				126.854,156.618 133.065,138.217 130.075,161.219 134.445,157.999 131.915,162.139 135.135,159.839 131.455,170.419 
				118.114,170.649 			"/>
			<polygon style="fill:#263238;stroke:#263238;stroke-linecap:round;stroke-linejoin:round;stroke-miterlimit:10;" points="
				132.642,192.959 118.256,192.959 114.383,168.038 136.515,168.038 			"/>
		</g>
		<g>
			
				<rect x="99.416" y="192.788" style="fill:#FFFFFF;stroke:#263238;stroke-linecap:round;stroke-linejoin:round;stroke-miterlimit:10;" width="72.591" height="193.105"/>
			<g>
				
					<rect x="103.644" y="199.13" style="fill:none;stroke:#263238;stroke-linecap:round;stroke-linejoin:round;stroke-miterlimit:10;" width="63.429" height="46.514"/>
				<rect x="122.673" y="218.159" style="fill:#263238;" width="25.372" height="8.457"/>
			</g>
			<g>
				
					<rect x="103.644" y="253.397" style="fill:none;stroke:#263238;stroke-linecap:round;stroke-linejoin:round;stroke-miterlimit:10;" width="63.429" height="46.514"/>
				<rect x="122.673" y="272.426" style="fill:#263238;" width="25.372" height="8.457"/>
			</g>
			<g>
				
					<rect x="103.644" y="307.664" style="fill:none;stroke:#263238;stroke-linecap:round;stroke-linejoin:round;stroke-miterlimit:10;" width="63.429" height="46.514"/>
				<rect x="122.673" y="326.693" style="fill:#263238;" width="25.372" height="8.457"/>
			</g>
		</g>
	</g>
</g>
<g id="Character">
	<g>
		<defs>
			<rect id="SVGID_1_" x="55.667" y="159" width="230" height="228"/>
		</defs>
		<clipPath id="SVGID_00000147935491995390906070000014587157491664460986_">
			<use xlink:href="#SVGID_1_"  style="overflow:visible;"/>
		</clipPath>
		<g style="clip-path:url(#SVGID_00000147935491995390906070000014587157491664460986_);">
			
				<path id="XMLID_22_" style="fill:#263238;stroke:#263238;stroke-width:0.75;stroke-linecap:round;stroke-linejoin:round;stroke-miterlimit:10;" d="
				M179.792,374.88c0,0,36.38-16.068,55.939-17.281l14.216,31.53H142.221L179.792,374.88z"/>
			<g>
				<g>
					<g>
						<defs>
							<path id="XMLID_21_" d="M224.072,184.895c0,0,25.61,30.424,31.001,36.008c5.392,5.584,5.584,9.628,3.851,12.131
								c-1.733,2.503-14.827,7.125-28.306,15.79c-13.479,8.665-51.797,31.001-52.182,31.772c-0.385,0.77-4.044-26.958-4.044-26.958
								l64.121-26.38l-0.192-1.926l-20.796-38.511L224.072,184.895z"/>
						</defs>
						<use xlink:href="#XMLID_21_"  style="overflow:visible;fill:#FFFFFF;"/>
						<clipPath id="XMLID_00000062885362681811897600000016557765375469607815_">
							<use xlink:href="#XMLID_21_"  style="overflow:visible;"/>
						</clipPath>
						<path style="clip-path:url(#XMLID_00000062885362681811897600000016557765375469607815_);fill:#C6FF00;" d="M248.723,229.796
							l-29.771-43.394l-1.428,0.42l20.796,38.511l0.192,1.926l-64.121,26.38c0,0,0.063,0.479,0.172,1.296l4.173,9.588
							L248.723,229.796z"/>
						<path style="opacity:0.5;clip-path:url(#XMLID_00000062885362681811897600000016557765375469607815_);fill:#FFFFFF;" d="
							M248.723,229.796l-29.771-43.394l-1.428,0.42l20.796,38.511l0.192,1.926l-64.121,26.38c0,0,0.063,0.479,0.172,1.296
							l4.173,9.588L248.723,229.796z"/>
						
							<use xlink:href="#XMLID_21_"  style="overflow:visible;fill:none;stroke:#263238;stroke-width:0.75;stroke-linecap:round;stroke-linejoin:round;stroke-miterlimit:10;"/>
					</g>
					
						<path id="XMLID_20_" style="fill:#FFFFFF;stroke:#263238;stroke-width:0.75;stroke-linecap:round;stroke-linejoin:round;stroke-miterlimit:10;" d="
						M203.661,171.609c0,0-3.081-2.696-4.621,0c-1.54,2.696-1.733,7.125-0.77,7.51s4.814-0.193,5.392-1.348
						C204.239,176.616,203.661,171.609,203.661,171.609z"/>
					
						<path id="XMLID_19_" style="fill:#FFFFFF;stroke:#263238;stroke-width:0.75;stroke-linecap:round;stroke-linejoin:round;stroke-miterlimit:10;" d="
						M209.052,170.261c0,0-3.273-3.466-5.391-2.118s-1.54,8.665-0.77,9.243c0.77,0.578,5.391-0.963,5.969-1.926
						C209.438,174.497,209.052,170.261,209.052,170.261z"/>
					
						<path id="XMLID_18_" style="fill:#FFFFFF;stroke:#263238;stroke-width:0.75;stroke-linecap:round;stroke-linejoin:round;stroke-miterlimit:10;" d="
						M216.37,170.454c0,0-2.888-4.044-5.584-4.044c-2.696,0-4.621,9.628-3.658,10.398s7.317-0.193,7.702-0.77
						C215.214,175.46,216.37,170.454,216.37,170.454z"/>
					
						<path id="XMLID_17_" style="fill:#FFFFFF;stroke:#263238;stroke-width:0.75;stroke-linecap:round;stroke-linejoin:round;stroke-miterlimit:10;" d="
						M221.954,177.001c0-1.155-0.578-11.168-4.044-10.591s-7.125,8.665-6.932,10.013
						C211.171,177.771,221.954,177.001,221.954,177.001z"/>
					
						<path id="XMLID_16_" style="fill:#FFFFFF;stroke:#263238;stroke-width:0.75;stroke-linecap:round;stroke-linejoin:round;stroke-miterlimit:10;" d="
						M238.513,227.258c0,0,9.82,3.659,13.479,3.466"/>
				</g>
				<g>
					<defs>
						<path id="XMLID_15_" d="M157.762,389.395c10.461-1.767,23.854-8.952,27.843-18.018c-3.036-15.69-6.784-37.791-6.784-51.307
							c0-22.722,5.969-35.623,3.273-51.027c-2.696-15.404-8.472-25.417-14.634-29.461c0,0-9.435,2.503-19.063,11.553
							c-9.628,9.05-18.1,24.647-21.374,39.474c-3.273,14.827-7.702,60.463-7.702,72.401c0,11.938-0.864,26.765-0.864,26.765
							c11.532,0,23.062-0.013,34.594,0.038C154.515,389.819,156.102,389.675,157.762,389.395z"/>
					</defs>
					<use xlink:href="#XMLID_15_"  style="overflow:visible;fill:#FFFFFF;"/>
					<clipPath id="XMLID_00000036231868886345623610000007986875579129108124_">
						<use xlink:href="#XMLID_15_"  style="overflow:visible;"/>
					</clipPath>
					<path style="clip-path:url(#XMLID_00000036231868886345623610000007986875579129108124_);fill:#C6FF00;" d="M185.605,371.376
						c-5.858,4.975-32.241,14.716-36.094,15.572c-3.853,0.856-1.712-7.277,4.281-15.411c5.993-8.134-7.277,2.997-9.418,3.853
						c-2.14,0.856,0.856-15.839,0.856-23.973c0-8.134,7.705-77.482,7.705-77.482l14.555-26.541l4.981-3.024
						c-1.602-2.048-3.29-3.66-5.011-4.789c0,0-9.435,2.503-19.063,11.553c-9.628,9.05-18.1,24.647-21.374,39.474
						c-3.273,14.827-7.702,60.463-7.702,72.401c0,11.938-0.864,26.765-0.864,26.765c11.532,0,23.062-0.014,34.594,0.038
						c1.463,0.007,3.05-0.137,4.71-0.418C168.224,387.627,181.617,380.443,185.605,371.376z"/>
					<path style="opacity:0.5;clip-path:url(#XMLID_00000036231868886345623610000007986875579129108124_);fill:#FFFFFF;" d="
						M185.605,371.376c-5.858,4.975-32.241,14.716-36.094,15.572c-3.853,0.856-1.712-7.277,4.281-15.411
						c5.993-8.134-7.277,2.997-9.418,3.853c-2.14,0.856,0.856-15.839,0.856-23.973c0-8.134,7.705-77.482,7.705-77.482l14.555-26.541
						l4.981-3.024c-1.602-2.048-3.29-3.66-5.011-4.789c0,0-9.435,2.503-19.063,11.553c-9.628,9.05-18.1,24.647-21.374,39.474
						c-3.273,14.827-7.702,60.463-7.702,72.401c0,11.938-0.864,26.765-0.864,26.765c11.532,0,23.062-0.014,34.594,0.038
						c1.463,0.007,3.05-0.137,4.71-0.418C168.224,387.627,181.617,380.443,185.605,371.376z"/>
					
						<use xlink:href="#XMLID_15_"  style="overflow:visible;fill:none;stroke:#263238;stroke-width:0.75;stroke-linecap:round;stroke-linejoin:round;stroke-miterlimit:10;"/>
				</g>
				<g>
					
						<path style="fill:#263238;stroke:#263238;stroke-width:0.75;stroke-linecap:round;stroke-linejoin:round;stroke-miterlimit:10;" d="
						M166.897,243.159l16.545,30.119l0.883,16.526c0,0,4.613-11.79,2.563-19.478C184.838,262.638,166.897,243.159,166.897,243.159z"
						/>
					
						<polygon style="fill:#263238;stroke:#263238;stroke-width:0.75;stroke-linecap:round;stroke-linejoin:round;stroke-miterlimit:10;" points="
						184.325,289.805 179.712,359.517 184.838,373.869 188.426,345.164 185.351,287.754 					"/>
				</g>
				<g>
					<g>
						<defs>
							<path id="XMLID_11_" d="M179.784,214.934c0,0,0.578,7.51,1.155,11.168c0.578,3.659-8.472,13.864-8.472,13.864l13.094,19.833
								l14.827-11.553c0,0,20.989-1.54,22.914-3.273c1.926-1.733,1.926-20.796,1.926-20.796l5.006-2.888
								c0,0-4.621-20.026-5.777-24.454c-1.155-4.429-1.155-4.429-1.155-4.429s6.74-2.311,5.199-9.05
								c-1.54-6.74-11.361-10.013-21.181-8.473c-9.82,1.54-12.323,5.199-12.323,5.199s-13.864-0.193-21.759,6.354
								c-7.895,6.547-3.081,16.945-0.578,20.603C175.163,210.698,179.784,214.934,179.784,214.934z"/>
						</defs>
						<use xlink:href="#XMLID_11_"  style="overflow:visible;fill:#FFFFFF;"/>
						<clipPath id="XMLID_00000039091848353499969440000018267649402095725243_">
							<use xlink:href="#XMLID_11_"  style="overflow:visible;"/>
						</clipPath>
						<path style="clip-path:url(#XMLID_00000039091848353499969440000018267649402095725243_);fill:#C6FF00;" d="M203.021,241.83
							c-3.853-4.709,0-22.688,2.997-31.678c2.997-8.99-4.281-12.842-4.281-12.842l21.861-3.769
							c-0.295-1.131-0.296-1.135-0.296-1.135s2.228-0.772,3.829-2.706l1.18-6.948c-1.981-6.322-11.474-9.361-20.991-7.868
							c-9.82,1.54-12.323,5.199-12.323,5.199s-13.864-0.193-21.759,6.354c-7.895,6.547-3.081,16.945-0.578,20.603
							c2.503,3.659,7.125,7.895,7.125,7.895s0.578,7.51,1.155,11.168c0.578,3.658-8.473,13.864-8.473,13.864l13.094,19.833
							l14.827-11.553c0,0,16.035-1.177,21.359-2.631l1.555-0.643C223.302,244.973,206.874,246.538,203.021,241.83z"/>
						<path style="opacity:0.5;clip-path:url(#XMLID_00000039091848353499969440000018267649402095725243_);fill:#FFFFFF;" d="
							M203.021,241.83c-3.853-4.709,0-22.688,2.997-31.678c2.997-8.99-4.281-12.842-4.281-12.842l21.861-3.769
							c-0.295-1.131-0.296-1.135-0.296-1.135s2.228-0.772,3.829-2.706l1.18-6.948c-1.981-6.322-11.474-9.361-20.991-7.868
							c-9.82,1.54-12.323,5.199-12.323,5.199s-13.864-0.193-21.759,6.354c-7.895,6.547-3.081,16.945-0.578,20.603
							c2.503,3.659,7.125,7.895,7.125,7.895s0.578,7.51,1.155,11.168c0.578,3.658-8.473,13.864-8.473,13.864l13.094,19.833
							l14.827-11.553c0,0,16.035-1.177,21.359-2.631l1.555-0.643C223.302,244.973,206.874,246.538,203.021,241.83z"/>
						<path id="XMLID_14_" style="clip-path:url(#XMLID_00000039091848353499969440000018267649402095725243_);fill:#263238;" d="
							M214.251,206.077c0,0-0.033-0.298-0.038-0.768c-0.017-1.491,0.245-4.708,2.734-5.587c3.273-1.155,5.969,1.926,5.969,1.926
							l0.193,3.081c0,0-1.348-1.926-4.044-1.541C216.37,203.573,214.251,206.077,214.251,206.077z"/>
						<path id="XMLID_13_" style="clip-path:url(#XMLID_00000039091848353499969440000018267649402095725243_);fill:#263238;" d="
							M219.836,212.238c0,1.595-0.431,2.888-0.963,2.888c-0.532,0-0.963-1.293-0.963-2.888s0.431-2.888,0.963-2.888
							C219.405,209.35,219.836,210.643,219.836,212.238z"/>
						<path id="XMLID_12_" style="clip-path:url(#XMLID_00000039091848353499969440000018267649402095725243_);fill:#263238;" d="
							M213.767,232.407c-1.069,1.111-2.495,1.474-3.185,0.81c-0.69-0.664-0.382-2.102,0.687-3.214
							c1.069-1.111,2.495-1.474,3.185-0.81C215.144,229.857,214.837,231.296,213.767,232.407z"/>
						
							<use xlink:href="#XMLID_11_"  style="overflow:visible;fill:none;stroke:#263238;stroke-width:0.75;stroke-linecap:round;stroke-linejoin:round;stroke-miterlimit:10;"/>
					</g>
					<g>
						
							<path id="XMLID_10_" style="fill:#263238;stroke:#263238;stroke-width:0.75;stroke-linecap:round;stroke-linejoin:round;stroke-miterlimit:10;" d="
							M198.269,196.064c3.466-2.311,25.032-3.659,25.032-3.659s6.739-2.311,5.199-9.05c-1.54-6.74-11.361-10.013-21.181-8.473
							c-9.82,1.54-12.324,5.199-12.324,5.199s-13.864-0.193-21.759,6.354c-7.895,6.547-3.081,16.945-0.578,20.603
							c2.503,3.659,7.124,7.895,7.124,7.895s0.317,4.12,0.716,7.743l6.023,1.692l6.547-3.466l6.547-1.54
							c0,0-4.814-3.659-2.118-7.125c2.696-3.466,7.702-4.621,7.895-7.317C205.587,202.226,194.803,198.374,198.269,196.064z"/>
						<path style="fill:none;stroke:#FFFFFF;stroke-linecap:round;stroke-miterlimit:10;" d="M219.286,184.87
							c0,0-2.258-4.14,1.882-3.387c4.14,0.753,4.14,7.903,0.753,9.409c-3.387,1.505-21.829-1.882-31.991,1.129
							c-10.162,3.011-17.313,11.291-17.313,11.291"/>
						<path style="fill:none;stroke:#FFFFFF;stroke-linecap:round;stroke-miterlimit:10;" d="M178.263,209.71
							c0,0,7.904-6.774,14.302-7.904c6.398-1.129,9.785-1.129,2.635,3.011c-7.151,4.14-2.258,3.387,2.258,1.882"/>
					</g>
					<g>
						<defs>
							<path id="XMLID_8_" d="M194.803,224.562c0,0-1.155-12.131-7.124-12.516c-5.969-0.385-5.777,8.28-4.044,14.249
								c1.733,5.969,5.969,7.895,9.435,4.814"/>
						</defs>
						<use xlink:href="#XMLID_8_"  style="overflow:visible;fill:#C6FF00;"/>
						<clipPath id="XMLID_00000142864051269866836300000017801190334009159816_">
							<use xlink:href="#XMLID_8_"  style="overflow:visible;"/>
						</clipPath>
						
							<path id="XMLID_9_" style="opacity:0.5;clip-path:url(#XMLID_00000142864051269866836300000017801190334009159816_);fill:#FFFFFF;stroke:#263238;stroke-width:0.75;stroke-linecap:round;stroke-linejoin:round;stroke-miterlimit:10;" d="
							M194.803,224.562c0,0-1.155-12.131-7.124-12.516c-5.969-0.385-5.777,8.28-4.044,14.249c1.733,5.969,5.969,7.895,9.435,4.814"
							/>
						
							<use xlink:href="#XMLID_8_"  style="overflow:visible;fill:none;stroke:#263238;stroke-width:0.75;stroke-linecap:round;stroke-linejoin:round;stroke-miterlimit:10;"/>
					</g>
				</g>
				<g>
					<defs>
						<path id="XMLID_7_" d="M173.045,232.649l19.256,29.268l-8.858,11.361c0,0-6.739-13.094-13.286-22.336
							c-6.547-9.243-7.317-10.783-7.317-10.783L173.045,232.649z"/>
					</defs>
					<use xlink:href="#XMLID_7_"  style="overflow:visible;fill:#FFFFFF;"/>
					<clipPath id="XMLID_00000119112793487017681710000000043808165555125686_">
						<use xlink:href="#XMLID_7_"  style="overflow:visible;"/>
					</clipPath>
					<path style="clip-path:url(#XMLID_00000119112793487017681710000000043808165555125686_);fill:#C6FF00;" d="M173.045,232.649
						l-10.205,7.51c0,0,0.572,1.134,4.772,7.162l10.78-6.545L173.045,232.649z"/>
					<path style="opacity:0.5;clip-path:url(#XMLID_00000119112793487017681710000000043808165555125686_);fill:#FFFFFF;" d="
						M173.045,232.649l-10.205,7.51c0,0,0.572,1.134,4.772,7.162l10.78-6.545L173.045,232.649z"/>
					
						<use xlink:href="#XMLID_7_"  style="overflow:visible;fill:none;stroke:#263238;stroke-width:0.75;stroke-linecap:round;stroke-linejoin:round;stroke-miterlimit:10;"/>
				</g>
				<g>
					
						<path id="XMLID_6_" style="fill:#FFFFFF;stroke:#263238;stroke-width:0.75;stroke-linecap:round;stroke-linejoin:round;stroke-miterlimit:10;" d="
						M222.531,305.435c0,0,3.081-6.354,3.659-10.398c0.578-4.044,0.77-6.354,3.081-8.28c2.311-1.925,9.82-9.628,10.976-12.516
						c1.155-2.888,1.926-0.193,2.503,2.118c0.578,2.311,0.385,4.429-1.54,5.777s-3.659,3.466-3.659,3.466l1.733,1.348
						c0,0,24.069-9.05,26.573-10.013s4.814-0.193,5.007,1.733c0.193,1.926-0.578,2.118-1.733,2.696
						c-1.155,0.578-13.864,5.006-15.597,5.777c-1.733,0.77-1.733,0.77-1.733,0.77l1.348,1.348c0,0,6.932-0.192,10.398-0.385
						c3.466-0.192,8.665-0.77,9.435,0.385c0.77,1.155,0.385,2.503-0.578,3.273s-1.348,0.963-3.081,0.963s-16.56,1.155-16.56,1.155
						l0.385,2.118c0,0,15.79,2.503,16.367,3.273c0.578,0.77,0.578,1.155,0,2.311c-0.578,1.155-0.963,1.155-2.503,1.155
						c-1.54,0-14.056-1.926-14.056-1.926s6.162,3.466,6.932,4.044c0.77,0.578,3.466,0.963,2.696,2.311
						c-0.77,1.348-1.155,1.733-2.311,1.54c-1.155-0.193-9.435-3.851-9.435-3.851s-8.28,1.155-10.976,1.348
						c-2.696,0.193-5.969-0.193-5.969-0.193l-7.702,5.006L222.531,305.435z"/>
					<g>
						<defs>
							<path id="XMLID_5_" d="M167.846,296.77c0,0-5.584-23.299-7.895-28.498c-2.311-5.199-15.404-10.013-21.759,1.348
								c-6.354,11.361-0.578,24.262,1.733,33.505c2.311,9.243,16.945,51.027,19.063,56.226s5.969,4.044,8.087,3.466
								c2.118-0.578,60.655-47.754,60.655-47.754l-4.621-10.398l-45.443,23.299L167.846,296.77z"/>
						</defs>
						<use xlink:href="#XMLID_5_"  style="overflow:visible;fill:#FFFFFF;"/>
						<clipPath id="XMLID_00000006708295994016410440000013539465155252804520_">
							<use xlink:href="#XMLID_5_"  style="overflow:visible;"/>
						</clipPath>
						<path style="clip-path:url(#XMLID_00000006708295994016410440000013539465155252804520_);fill:#C6FF00;" d="M166.206,347.993
							c0,0,2.997-8.99,5.137-13.271s-10.274,9.846-12.842,2.141c-2.568-7.706-18.836-46.233-15.839-59.075
							c1.857-7.959,6.506-12.46,9.776-14.736c-4.767-1.134-10.609,0.066-14.245,6.568c-6.354,11.361-0.578,24.262,1.733,33.505
							s16.945,51.027,19.063,56.226s5.969,4.044,8.087,3.466c1.542-0.421,32.993-25.544,49.981-39.174L166.206,347.993z"/>
						<path style="opacity:0.5;clip-path:url(#XMLID_00000006708295994016410440000013539465155252804520_);fill:#FFFFFF;" d="
							M166.206,347.993c0,0,2.997-8.99,5.137-13.271s-10.274,9.846-12.842,2.141c-2.568-7.706-18.836-46.233-15.839-59.075
							c1.857-7.959,6.506-12.46,9.776-14.736c-4.767-1.134-10.609,0.066-14.245,6.568c-6.354,11.361-0.578,24.262,1.733,33.505
							s16.945,51.027,19.063,56.226s5.969,4.044,8.087,3.466c1.542-0.421,32.993-25.544,49.981-39.174L166.206,347.993z"/>
						
							<use xlink:href="#XMLID_5_"  style="overflow:visible;fill:none;stroke:#263238;stroke-width:0.75;stroke-linecap:round;stroke-linejoin:round;stroke-miterlimit:10;"/>
					</g>
					
						<line id="XMLID_4_" style="fill:#FFFFFF;stroke:#263238;stroke-width:0.75;stroke-linecap:round;stroke-linejoin:round;stroke-miterlimit:10;" x1="216.37" y1="308.516" x2="221.569" y2="319.107"/>
				</g>
			</g>
			<g>
				
					<path style="fill:#FFFFFF;stroke:#263238;stroke-width:0.75;stroke-linecap:round;stroke-linejoin:round;stroke-miterlimit:10;" d="
					M94.221,255.391l-26.596,18.452c0,0,13.106,13.853,11.753,50.219c-1.033,27.767,2.671,59.301,8.014,65.712h28.315
					c0,0-9.786-53.967-9.082-84.945C107.159,281.323,100.098,265.008,94.221,255.391z"/>
				
					<path style="fill:#263238;stroke:#263238;stroke-width:0.75;stroke-linecap:round;stroke-linejoin:round;stroke-miterlimit:10;" d="
					M97.416,255.391L70.82,273.844c0,0,13.106,13.853,11.753,50.219c-1.033,27.767,2.671,59.301,8.014,65.712h28.315
					c0,0-9.786-53.967-9.082-84.945C110.354,281.323,103.293,265.008,97.416,255.391z"/>
				
					<polygon style="fill:#FFFFFF;stroke:#263238;stroke-width:0.75;stroke-linecap:round;stroke-linejoin:round;stroke-miterlimit:10;" points="
					94.221,255.391 97.416,255.391 70.82,273.844 67.625,273.844 				"/>
			</g>
		</g>
	</g>
</g>
</svg>
